SplineFontDB: 3.0
FontName: MonomakhUnicode
FullName: Monomakh Unicode
FamilyName: Monomakh Unicode
Weight: Regular
Copyright: Copyright 2006-2020 Aleksandr Andreev and Nikita Simmons (https://sci.ponomar.net/).
UComments: "2011-5-3: Created.+AAoACgAA-Ratios for superscript digits:+AAoA-thin stems: 82+AAoA-thick stems: 72+AAoA-vertical: 56+AAoA-horizontal: 64+AAoACgAA-Ratios for combining letters:+AAoA-ZONES:+AAoA--582,-22+AD0A-960+AAoA-0,-48+AD0A-1100+AAoA-946,34+AD0A-1572+AAoA-vscale+AD0A-50%+AAoA-csize+AD0A-44%+AAoA-wstem+AD0A-66%+AAoA-nstem+AD0A-73%"
Version: 1.2
ItalicAngle: 0
UnderlinePosition: -125
UnderlineWidth: 59
Ascent: 732
Descent: 268
InvalidEm: 0
LayerCount: 2
Layer: 0 0 "Back" 1
Layer: 1 0 "Fore" 0
XUID: [1021 211 1460294968 11180153]
FSType: 0
OS2Version: 0
OS2_WeightWidthSlopeOnly: 0
OS2_UseTypoMetrics: 1
CreationTime: 1315915564
ModificationTime: 1585557594
PfmFamily: 17
TTFWeight: 400
TTFWidth: 5
LineGap: 273
VLineGap: 90
Panose: 2 6 7 3 8 0 6 0 0 0
OS2TypoAscent: 732
OS2TypoAOffset: 0
OS2TypoDescent: -268
OS2TypoDOffset: 0
OS2TypoLinegap: 273
OS2WinAscent: 984
OS2WinAOffset: 0
OS2WinDescent: 334
OS2WinDOffset: 0
HheadAscent: 732
HheadAOffset: 0
HheadDescent: -268
HheadDOffset: 0
OS2Vendor: 'PfEd'
Lookup: 1 0 0 "'ss06' Cyrillic i with dot above" { "'ss06' Cyrillic i with dot above-1"  } ['ss06' ('DFLT' <'dflt' > 'cyrl' <'dflt' > 'latn' <'MOL ' 'ROM ' 'dflt' > ) ]
Lookup: 1 0 0 "'ss07' Cyrillic i with two dots above" { "'ss07' Cyrillic i with two dots above-1"  } ['ss07' ('DFLT' <'dflt' > 'cyrl' <'dflt' > 'latn' <'MOL ' 'ROM ' 'dflt' > ) ]
Lookup: 1 0 0 "'ss08' Sharp Cyrillic Zemlya" { "'ss08' Sharp Cyrillic Zemlya-1"  } ['ss08' ('DFLT' <'dflt' > 'cyrl' <'dflt' > 'latn' <'MOL ' 'ROM ' 'dflt' > ) ]
Lookup: 1 0 0 "'ss09' Double-Sided Cyrillic Cherv" { "'ss09' Double-Sided Cyrillic Cherv-1"  } ['ss09' ('DFLT' <'dflt' > 'cyrl' <'dflt' > 'latn' <'MOL ' 'ROM ' 'dflt' > ) ]

StartChar: exclam
Encoding: 33 33 1
Width: 257
VWidth: 1014
Flags: W
HStem: -18 157<76.5856 181.414>
VStem: 47 173<498.75 632.297> 51 156<6.73829 114.785>
LayerCount: 2
Fore
SplineSet
47 588 m 0xc0
 47 612 75 643 105 665 c 0
 136 688 173 707 189 707 c 0
 214 707 220 691 220 681 c 0
 220 659 211 588 208 564 c 2
 156 216 l 2
 154 204 143 193 129 193 c 0
 115 193 105 198 102 216 c 2
 59 494 l 2
 55 520 47 578 47 588 c 0xc0
51 61 m 0xa0
 51 104 86 139 129 139 c 0
 172 139 207 104 207 61 c 0
 207 18 172 -18 129 -18 c 0
 86 -18 51 18 51 61 c 0xa0
EndSplineSet
Validated: 19457
EndChar

StartChar: numbersign
Encoding: 35 35 3
Width: 800
VWidth: 1014
Flags: W
HStem: 209 60<83.1873 217 296 449 529 718.352> 427 59<82.6476 272 352 504 584 718.352>
VStem: 170 59<-0.232769 29.8654> 340 58<665.66 695.233> 402 59<-0.232769 29.3396> 572 59<665.135 695.233>
DStem2: 217 209 281 209 0.247354 0.968925<-191.797 0 77.6765 224.83 301.785 493.334> 449 209 514 209 0.245979 0.969275<-191.797 0 77.8348 224.831 301.696 493.493>
LayerCount: 2
Fore
SplineSet
74 220 m 0
 74 226 76 232 82 245 c 0
 89 261 93 269 100 269 c 2
 232 269 l 1
 272 427 l 1
 90 427 l 2
 83 427 74 432 74 438 c 0
 74 444 76 450 82 463 c 0
 89 479 93 486 100 486 c 2
 287 486 l 1
 340 693 l 2
 342 700 349 707 355 707 c 0
 360 707 366 703 378 694 c 0
 390 685 398 678 398 672 c 0
 398 671 397 665 397 664 c 2
 352 486 l 1
 520 486 l 1
 572 693 l 2
 574 700 581 707 587 707 c 0
 592 707 599 703 611 694 c 0
 623 685 631 678 631 672 c 0
 631 671 629 665 629 664 c 2
 584 486 l 1
 710 486 l 2
 717 486 727 481 727 475 c 0
 727 469 725 463 719 450 c 0
 712 434 708 427 701 427 c 2
 569 427 l 1
 529 269 l 1
 710 269 l 2
 717 269 727 263 727 257 c 0
 727 251 725 245 719 232 c 0
 712 216 708 209 701 209 c 2
 514 209 l 1
 461 2 l 2
 459 -5 452 -12 446 -12 c 0
 441 -12 434 -8 422 1 c 0
 410 10 402 17 402 23 c 0
 402 24 404 30 404 31 c 2
 449 209 l 1
 281 209 l 1
 229 2 l 2
 227 -5 219 -12 213 -12 c 0
 208 -12 202 -8 190 1 c 0
 178 10 170 17 170 23 c 0
 170 24 171 30 171 31 c 2
 217 209 l 1
 90 209 l 2
 83 209 74 214 74 220 c 0
296 269 m 1
 464 269 l 1
 504 427 l 1
 336 427 l 1
 296 269 l 1
EndSplineSet
Validated: 19457
EndChar

StartChar: dollar
Encoding: 36 36 4
Width: 605
VWidth: 0
Flags: W
HStem: -16 30<246.672 296 335 383.609> 680 30<252.154 296 335 371.717>
VStem: 89 109<498.105 620.78> 296 39<-97.9342 -16 15 282 436 680 710 780.763> 449 113<84.004 208.598>
LayerCount: 2
Fore
SplineSet
65 68 m 0
 65 72 66 86 66 94 c 2
 73 223 l 2
 73 234 80 239 87 239 c 0
 105 239 115 221 121 204 c 0
 156 107 208 21 296 14 c 1
 296 303 l 1
 186 356 89 411 89 538 c 0
 89 630 154 704 296 710 c 1
 296 771 l 2
 296 779 300 785 304 785 c 0
 308 785 310 784 319 779 c 0
 329 773 335 770 335 763 c 2
 335 710 l 1
 380 708 431 697 466 681 c 0
 511 661 520 651 520 628 c 0
 520 620 519 605 513 572 c 0
 508 548 500 511 490 511 c 0
 478 511 471 522 462 543 c 0
 436 602 397 669 335 680 c 1
 335 416 l 1
 471 344 562 291 562 171 c 0
 562 52 472 -9 335 -16 c 1
 335 -88 l 2
 335 -96 331 -103 327 -103 c 0
 323 -103 321 -101 312 -96 c 0
 302 -90 296 -87 296 -80 c 2
 296 -16 l 1
 239 -14 167 2 116 23 c 0
 71 42 65 45 65 68 c 0
198 573 m 0
 198 501 240 467 296 436 c 1
 296 680 l 1
 233 672 198 628 198 573 c 0
335 15 m 1
 408 24 449 71 449 137 c 0
 449 209 404 244 335 282 c 1
 335 15 l 1
EndSplineSet
Validated: 19457
EndChar

StartChar: percent
Encoding: 37 37 5
Width: 726
VWidth: 0
Flags: W
HStem: -12 24<507.902 574.844> 267 24<495.54 562.52> 402 24<163.902 230.993> 572 30<370.359 498.525> 682 23<151.985 217.474>
VStem: 31 86<474.032 633.692> 266 86<476.498 614.652> 375 86<60.032 219.555> 609 86<59.8186 219.342>
DStem2: 515 588 634 656 0.608732 0.793376<-703.534 0 31.3094 136.68>
LayerCount: 2
Fore
SplineSet
31 554 m 0
 31 648 106 705 190 705 c 0
 233 705 276 689 302 665 c 0
 340 631 382 602 430 602 c 0
 498 602 550 641 603 703 c 0
 606 708 609 711 614 711 c 0
 620 711 626 702 632 688 c 0
 636 678 638 672 638 666 c 0
 638 664 636 659 634 656 c 2
 124 -10 l 2
 121 -15 117 -18 112 -18 c 0
 106 -18 100 -9 94 5 c 0
 90 15 89 22 89 28 c 0
 89 30 90 34 92 37 c 2
 515 588 l 25
 513 590 l 17
 493 577 468 572 437 572 c 0
 407 572 371 580 349 596 c 1
 347 594 l 1
 350 581 352 568 352 554 c 0
 352 460 276 402 191 402 c 0
 106 402 31 460 31 554 c 0
117 578 m 0
 117 490 149 426 197 426 c 0
 240 426 266 468 266 529 c 0
 266 617 234 682 186 682 c 0
 143 682 117 639 117 578 c 0
375 140 m 0
 375 234 450 291 535 291 c 0
 620 291 695 234 695 140 c 0
 695 46 620 -12 535 -12 c 0
 450 -12 375 46 375 140 c 0
461 164 m 0
 461 76 493 12 541 12 c 0
 584 12 609 54 609 115 c 0
 609 203 578 267 530 267 c 0
 487 267 461 225 461 164 c 0
EndSplineSet
Validated: 19457
EndChar

StartChar: ampersand
Encoding: 38 38 6
Width: 791
VWidth: 0
Flags: W
HStem: -18 55<626.539 709.393> -16 75<176 347.254> 443 30<546.033 594.611 698.575 758.967> 665 41<236.584 322.717>
VStem: 43 119<125.464 236.095> 138 62<521.717 611.067> 370 74<506.574 617.402> 603 156<383.5 464>
LayerCount: 2
Fore
SplineSet
43 152 m 0x7b
 43 250 125 324 218 375 c 1
 218 377 l 1
 175 411 138 456 138 532 c 0
 138 626 222 706 318 706 c 0
 400 706 444 629 444 573 c 0
 444 519 396 463 346 426 c 1
 346 421 l 1
 396 388 455 348 485 309 c 0
 505 284 521 259 535 234 c 1
 537 234 l 1
 575 296 603 360 603 407 c 0
 603 431 580 441 560 443 c 0
 550 444 546 450 546 459 c 0
 546 469 551 473 557 473 c 0
 564 473 582 471 602 469 c 0
 625 466 639 465 652 465 c 0
 665 465 680 466 703 469 c 0
 723 471 740 473 748 473 c 0
 754 473 759 469 759 459 c 0
 759 450 755 446 745 444 c 0
 701 433 687 428 661 390 c 0
 648 371 630 335 611 297 c 0
 592 259 573 219 557 198 c 1
 568 177 577 156 586 132 c 0
 605 82 632 37 666 37 c 0
 698 37 711 50 730 78 c 0
 737 89 746 101 758 101 c 0
 767 101 773 95 773 87 c 0
 773 62 721 -18 638 -18 c 0xb7
 553 -18 506 25 482 95 c 1
 479 95 l 1
 409 20 320 -16 230 -16 c 0
 122 -16 43 50 43 152 c 0x7b
162 207 m 0x7b
 162 80 273 59 321 59 c 0
 375 59 425 88 466 130 c 1
 450 163 434 193 408 228 c 0
 372 276 303 324 243 359 c 1
 184 321 162 269 162 207 c 0x7b
200 585 m 0x37
 200 519 260 476 322 438 c 1
 358 464 370 492 370 550 c 0
 370 605 324 665 271 665 c 0
 235 665 200 619 200 585 c 0x37
EndSplineSet
Validated: 19457
EndChar

StartChar: quotesingle
Encoding: 39 39 7
Width: 283
VWidth: 0
Flags: W
HStem: 388 318<114.376 169>
VStem: 82 119<476.656 678.707>
LayerCount: 2
Fore
SplineSet
82 645 m 0
 82 675 138 706 169 706 c 0
 191 706 201 677 201 658 c 0
 201 654 199 637 198 624 c 2
 169 394 l 1
 161 390 153 388 142 388 c 0
 131 388 122 390 114 394 c 1
 84 621 l 2
 83 632 82 641 82 645 c 0
EndSplineSet
Validated: 19457
EndChar

StartChar: parenleft
Encoding: 40 40 8
Width: 351
VWidth: 0
Flags: W
VStem: 75 95<113.029 410.971>
LayerCount: 2
Fore
SplineSet
75 262 m 0
 75 522 264 705 304 705 c 0
 313 705 320 696 320 690 c 0
 320 685 315 677 302 663 c 0
 208 562 170 421 170 262 c 0
 170 103 208 -38 302 -139 c 0
 315 -153 320 -161 320 -166 c 0
 320 -172 313 -181 304 -181 c 0
 264 -181 75 2 75 262 c 0
EndSplineSet
Validated: 19457
EndChar

StartChar: parenright
Encoding: 41 41 9
Width: 351
VWidth: 0
Flags: W
VStem: 182 94<113.029 410.971>
LayerCount: 2
Fore
SplineSet
31 -166 m 0
 31 -161 37 -153 50 -139 c 0
 144 -38 182 103 182 262 c 0
 182 421 144 562 50 663 c 0
 37 677 31 685 31 690 c 0
 31 696 38 705 47 705 c 0
 87 705 276 522 276 262 c 0
 276 2 87 -181 47 -181 c 0
 38 -181 31 -172 31 -166 c 0
EndSplineSet
Validated: 19457
EndChar

StartChar: asterisk
Encoding: 42 42 10
Width: 468
VWidth: 0
Flags: W
HStem: 519 85<52.4736 112.467 329.219 407.265>
VStem: 188 84<551.875 695.774>
LayerCount: 2
Fore
SplineSet
46 576 m 0
 46 595 60 604 80 604 c 0
 89 604 100 599 105 596 c 2
 209 539 l 1
 211 541 l 1
 189 656 l 2
 188 661 188 667 188 669 c 0
 188 687 227 710 246 710 c 0
 259 710 272 687 272 676 c 0
 272 673 272 664 271 657 c 2
 248 541 l 1
 250 539 l 1
 353 596 l 2
 360 600 365 602 371 602 c 0
 388 602 423 574 423 555 c 0
 423 542 407 526 398 522 c 0
 395 521 386 519 379 518 c 2
 261 504 l 1
 261 501 l 1
 346 421 l 2
 350 417 354 413 355 411 c 0
 357 408 358 404 358 399 c 0
 358 379 343 341 322 341 c 0
 301 341 289 355 281 372 c 2
 230 480 l 1
 229 480 l 1
 178 373 l 2
 171 358 164 353 142 353 c 0
 126 353 108 357 100 363 c 0
 95 367 93 375 93 383 c 0
 93 402 100 409 112 420 c 2
 199 501 l 1
 199 504 l 1
 81 519 l 2
 76 519 70 520 68 521 c 0
 54 525 46 555 46 576 c 0
EndSplineSet
Validated: 19457
EndChar

StartChar: plus
Encoding: 43 43 11
Width: 640
VWidth: 1014
Flags: W
HStem: -6 21G<336 342> 212 59<82.6476 289 352 558.352>
VStem: 289 63<2.40673 212 271 480.336>
LayerCount: 2
Fore
SplineSet
74 223 m 0
 74 229 76 235 82 248 c 0
 89 264 93 271 100 271 c 2
 289 271 l 1
 289 472 l 2
 289 479 295 489 301 489 c 0
 307 489 312 487 326 482 c 0
 342 476 352 471 352 464 c 2
 352 271 l 1
 550 271 l 2
 557 271 566 266 566 260 c 0
 566 254 565 248 559 235 c 0
 552 219 548 212 541 212 c 2
 352 212 l 1
 352 11 l 2
 352 4 345 -6 339 -6 c 0
 333 -6 328 -4 314 1 c 0
 298 7 289 13 289 20 c 2
 289 212 l 1
 90 212 l 2
 83 212 74 217 74 223 c 0
EndSplineSet
Validated: 19457
EndChar

StartChar: comma
Encoding: 44 44 12
Width: 257
Flags: W
HStem: -155 304
VStem: 131 85<-53.3203 61>
LayerCount: 2
Fore
SplineSet
51 64 m 0
 51 78 64 86 82 94 c 0
 96 100 106 112 115 127 c 0
 125 143 131 149 146 149 c 0
 161 149 216 95 216 27 c 0
 216 -33 183 -77 152 -104 c 0
 123 -129 85 -155 70 -155 c 0
 64 -155 53 -145 53 -138 c 0
 53 -132 64 -123 83 -110 c 0
 109 -92 131 -65 131 -31 c 0
 131 -5 119 7 96 22 c 0
 70 39 51 52 51 64 c 0
EndSplineSet
Validated: 19457
EndChar

StartChar: period
Encoding: 46 46 14
Width: 257
VWidth: 1014
Flags: W
HStem: -18 157<76.5856 181.414>
VStem: 51 156<6.73829 114.785>
LayerCount: 2
Fore
SplineSet
51 61 m 0
 51 104 86 139 129 139 c 0
 172 139 207 104 207 61 c 0
 207 18 172 -18 129 -18 c 0
 86 -18 51 18 51 61 c 0
EndSplineSet
Validated: 19457
EndChar

StartChar: slash
Encoding: 47 47 15
Width: 484
VWidth: 1014
Flags: W
DStem2: 35 -58 85 -99 0.434282 0.900777<-13.277 836.225>
LayerCount: 2
Fore
SplineSet
31 -71 m 0
 31 -67 33 -62 35 -58 c 2
 399 697 l 2
 402 703 407 708 412 708 c 0
 414 708 419 705 423 703 c 0
 449 688 453 677 453 669 c 0
 453 665 451 660 449 656 c 2
 85 -99 l 2
 82 -105 77 -109 72 -109 c 0
 70 -109 65 -107 61 -105 c 0
 35 -90 31 -79 31 -71 c 0
EndSplineSet
Validated: 19457
EndChar

StartChar: zero
Encoding: 48 48 16
Width: 640
VWidth: 0
Flags: W
HStem: -17 30<272.193 367.824> 682 29<272.193 367.824>
VStem: 55 137<199.371 494.726> 448 138<199.371 494.726>
LayerCount: 2
Fore
SplineSet
55 347 m 0
 55 560 176 711 320 711 c 0
 464 711 586 560 586 347 c 0
 586 134 464 -17 320 -17 c 0
 176 -17 55 134 55 347 c 0
192 347 m 0
 192 154 219 13 320 13 c 0
 421 13 448 154 448 347 c 0
 448 540 421 682 320 682 c 0
 219 682 192 540 192 347 c 0
EndSplineSet
Validated: 19457
EndChar

StartChar: one
Encoding: 49 49 17
Width: 382
VWidth: 0
Flags: W
HStem: -8 29<45.0118 117 268.494 360.988> 595 29<45.0928 126.212> 678 20G<247 256>
VStem: 143 121<27.4182 584.412>
LayerCount: 2
Fore
SplineSet
45 6 m 0
 45 15 49 20 59 21 c 2
 117 27 l 2
 130 28 143 31 143 50 c 2
 143 533 l 2
 143 583 118 595 65 595 c 0
 53 595 45 598 45 608 c 0
 45 620 55 623 63 624 c 0
 136 635 191 659 231 690 c 0
 236 693 244 698 250 698 c 0
 262 698 264 691 264 683 c 10
 264 50 l 18
 264 31 276 28 289 27 c 2
 348 21 l 2
 358 20 361 15 361 6 c 0
 361 -4 357 -8 351 -8 c 0
 338 -8 301 -5 281 -3 c 0
 259 -1 222 2 203 2 c 0
 184 2 147 -1 125 -3 c 0
 105 -5 68 -8 55 -8 c 0
 49 -8 45 -4 45 6 c 0
EndSplineSet
Validated: 19457
EndChar

StartChar: two
Encoding: 50 50 18
Width: 571
VWidth: 0
Flags: W
HStem: 0 107<172 474.385> 620 88<192.683 303.153>
VStem: 353 137<447.764 570.578>
LayerCount: 2
Fore
SplineSet
30 8 m 0
 30 18 35 26 38 28 c 0
 227 208 353 337 353 503 c 0
 353 566 310 620 225 620 c 0
 178 620 122 594 80 541 c 0
 72 531 67 525 59 525 c 0
 47 525 42 530 42 542 c 0
 42 568 152 708 281 708 c 0
 403 708 490 641 490 529 c 0
 490 428 377 311 273 213 c 0
 236 178 201 145 172 112 c 1
 172 107 l 9
 428 107 l 18
 462 107 470 118 488 151 c 0
 494 163 506 182 519 182 c 0
 528 182 534 177 534 169 c 0
 534 165 530 151 527 142 c 2
 475 0 l 9
 38 0 l 18
 34 0 30 4 30 8 c 0
EndSplineSet
Validated: 19457
EndChar

StartChar: three
Encoding: 51 51 19
Width: 488
VWidth: 0
Flags: W
HStem: -17 39<27.6611 175.04> 619 88<173.15 280.86>
VStem: 305 108<527.466 595.88> 315 138<157.485 276.433>
LayerCount: 2
Fore
SplineSet
25 10 m 0xd0
 25 19 33 22 44 22 c 0
 185 22 315 74 315 220 c 0xd0
 315 305 216 327 138 327 c 0
 130 327 122 330 122 337 c 0
 122 352 134 359 165 378 c 0
 231 417 305 469 305 544 c 0
 305 584 278 619 212 619 c 0
 159 619 113 589 71 547 c 0
 66 542 56 534 50 534 c 0
 42 534 38 538 38 547 c 0
 38 582 142 707 259 707 c 0
 333 707 413 666 413 584 c 0xe0
 413 541 366 491 327 464 c 0
 304 448 291 439 271 421 c 1
 272 417 l 1
 369 407 453 347 453 254 c 0
 453 94 294 -17 107 -17 c 0
 63 -17 25 -8 25 10 c 0xd0
EndSplineSet
Validated: 19457
EndChar

StartChar: four
Encoding: 52 52 20
Width: 589
VWidth: 0
Flags: W
HStem: -8 29<193.015 286.832 438 509.988> 167 84<108.004 291 412 518.968>
VStem: 291 121<27.4182 167 251 503.998> 534 38<268.119 325.483>
DStem2: 44 229 117 280 0.58491 0.811098<64.4681 363.319>
LayerCount: 2
Fore
SplineSet
12 160 m 0
 12 186 33 214 44 229 c 2
 375 688 l 2
 380 695 391 703 397 703 c 0
 409 703 412 696 412 688 c 2
 412 251 l 1
 464 251 l 2
 501 251 516 259 534 299 c 0
 540 314 547 327 560 327 c 0
 568 327 572 321 572 315 c 0
 572 307 567 289 564 278 c 2
 528 167 l 1
 412 167 l 1
 412 50 l 2
 412 31 425 28 438 27 c 2
 496 21 l 2
 506 20 510 15 510 6 c 0
 510 -4 506 -8 500 -8 c 0
 487 -8 450 -5 430 -3 c 0
 408 -1 371 2 352 2 c 0
 333 2 295 -1 273 -3 c 0
 253 -5 217 -8 204 -8 c 0
 198 -8 193 -4 193 6 c 0
 193 15 197 20 207 21 c 2
 266 27 l 2
 279 28 291 31 291 50 c 2
 291 167 l 1
 69 167 l 2
 57 167 46 165 38 153 c 0
 34 147 32 145 24 145 c 0
 19 145 12 148 12 160 c 0
108 262 m 0
 108 255 114 251 126 251 c 2
 291 251 l 1
 291 494 l 2
 291 501 288 504 284 504 c 0
 280 504 276 501 271 494 c 2
 117 280 l 2
 113 275 108 269 108 262 c 0
EndSplineSet
Validated: 19457
EndChar

StartChar: five
Encoding: 53 53 21
Width: 503
VWidth: 0
Flags: W
HStem: -17 39<28.5688 167.463> 366 113<133.209 291.945> 586 105<122.859 406.252>
VStem: 339 127<200.624 321.866>
DStem2: 76 406 112 451 0.0766965 0.997054<47.6285 194.042>
LayerCount: 2
Fore
SplineSet
27 10 m 0
 27 19 35 22 44 22 c 0
 201 22 339 94 339 249 c 0
 339 322 296 366 209 366 c 0
 173 366 136 354 110 338 c 0
 100 332 85 324 76 324 c 0
 66 324 62 333 62 340 c 0
 62 346 63 354 66 364 c 0
 70 377 75 387 76 406 c 10
 99 705 l 17
 166 697 229 691 278 691 c 0
 307 691 338 692 363 695 c 0
 398 699 405 706 423 739 c 0
 429 751 441 770 454 770 c 0
 463 770 469 765 469 757 c 0
 469 753 464 739 461 730 c 2
 412 594 l 1
 352 589 321 586 261 586 c 0
 224 586 163 591 123 597 c 9
 112 451 l 25
 114 449 l 17
 159 472 216 479 249 479 c 0
 381 479 466 406 466 302 c 0
 466 127 288 -17 83 -17 c 0
 41 -17 27 -4 27 10 c 0
EndSplineSet
Validated: 19457
EndChar

StartChar: six
Encoding: 54 54 22
Width: 576
VWidth: 0
Flags: W
HStem: -15 32<255.988 355.305> 362 39<242.369 366.806> 670 39<376.544 516.645>
VStem: 45 135<146.834 327.406> 415 121<118.423 309.394>
LayerCount: 2
Fore
SplineSet
45 271 m 0
 45 504 185 709 447 709 c 0
 465 709 519 704 519 683 c 0
 519 674 511 670 478 670 c 0
 288 670 201 530 185 352 c 1
 187 350 l 1
 219 374 272 401 332 401 c 0
 464 401 536 323 536 223 c 0
 536 65 419 -15 287 -15 c 0
 152 -15 45 98 45 271 c 0
180 259 m 0
 180 105 223 17 310 17 c 0
 362 17 415 66 415 187 c 0
 415 290 401 362 292 362 c 0
 248 362 200 329 182 313 c 1
 181 293 180 276 180 259 c 0
EndSplineSet
Validated: 19457
EndChar

StartChar: seven
Encoding: 55 55 23
Width: 498
VWidth: 0
Flags: W
HStem: 0 29<306.648 361.994> 584 109<71.4497 416>
VStem: 137 134<32.5 176.796>
LayerCount: 2
Fore
SplineSet
16 521 m 0
 16 525 19 539 21 548 c 2
 62 693 l 9
 475 693 l 18
 482 693 484 689 484 684 c 0
 484 618 398 481 367 438 c 0
 297 338 271 254 271 155 c 0
 271 107 279 77 292 59 c 0
 307 38 324 32 343 29 c 0
 354 27 362 24 362 15 c 0
 362 4 355 0 347 0 c 2
 187 0 l 2
 151 0 137 13 137 52 c 0
 137 159 173 248 315 428 c 0
 354 477 392 527 416 581 c 1
 416 584 l 9
 124 584 l 18
 90 584 73 575 60 540 c 0
 55 527 44 508 31 508 c 0
 22 508 16 513 16 521 c 0
EndSplineSet
Validated: 19457
EndChar

StartChar: eight
Encoding: 56 56 24
Width: 597
VWidth: 0
Flags: W
HStem: -17 31<210.363 350.909> 675 32<253.906 379.181>
VStem: 59 79<71.9005 210.487> 76 127<502.162 596.925> 420 127<92.1527 204.755> 443 75<486.075 622.652>
LayerCount: 2
Fore
SplineSet
59 138 m 0xe8
 59 229 148 289 238 322 c 1
 238 325 l 1
 160 372 76 429 76 515 c 0
 76 634 191 707 307 707 c 0
 432 707 518 645 518 562 c 0xd4
 518 481 457 431 386 387 c 1
 386 384 l 1
 469 333 547 277 547 177 c 0
 547 38 404 -17 300 -17 c 0
 191 -17 59 22 59 138 c 0xe8
138 146 m 0xe8
 138 65 199 14 275 14 c 0
 350 14 420 51 420 139 c 0
 420 198 382 231 332 263 c 2
 259 310 l 1
 179 274 138 221 138 146 c 0xe8
203 574 m 0xd4
 203 520 229 484 278 453 c 2
 364 398 l 1
 416 431 443 481 443 545 c 0
 443 604 411 675 312 675 c 0
 250 675 203 628 203 574 c 0xd4
EndSplineSet
Validated: 19457
EndChar

StartChar: nine
Encoding: 57 57 25
Width: 576
VWidth: 0
Flags: W
HStem: -15 39<60.3125 199.456> 292 40<208.204 333.973> 677 32<221.079 320.443>
VStem: 40 121<384.49 575.577> 396 135<364.763 547.166>
LayerCount: 2
Fore
SplineSet
40 471 m 0
 40 629 157 709 289 709 c 0
 424 709 531 596 531 423 c 0
 531 190 391 -15 129 -15 c 0
 111 -15 58 -10 58 11 c 0
 58 20 66 24 99 24 c 0
 289 24 376 164 392 342 c 1
 389 344 l 1
 357 320 304 292 244 292 c 0
 112 292 40 371 40 471 c 0
161 507 m 0
 161 404 176 332 285 332 c 0
 329 332 376 364 394 380 c 1
 395 400 396 418 396 435 c 0
 396 589 354 677 267 677 c 0
 215 677 161 628 161 507 c 0
EndSplineSet
Validated: 19457
EndChar

StartChar: less
Encoding: 60 60 28
Width: 640
VWidth: 1014
Flags: W
HStem: -6 21G<495 500>
DStem2: 105 276 167 242 0.876655 0.481119<37.9946 445.48> 167 240 105 207 0.875679 -0.482894<0 407.6>
LayerCount: 2
Fore
SplineSet
74 241 m 0
 74 257 89 267 105 276 c 2
 484 484 l 2
 488 486 493 488 497 488 c 0
 503 488 507 483 521 464 c 0
 524 460 528 452 528 448 c 0
 528 443 522 438 516 435 c 2
 167 242 l 1
 167 240 l 1
 516 48 l 2
 522 45 528 39 528 34 c 0
 528 30 524 22 521 18 c 0
 507 -1 503 -6 497 -6 c 0
 493 -6 488 -4 484 -2 c 2
 105 207 l 2
 89 216 74 225 74 241 c 0
EndSplineSet
Validated: 19457
EndChar

StartChar: equal
Encoding: 61 61 29
Width: 640
VWidth: 1014
Flags: W
HStem: 128 60<83.1873 558.352> 296 59<82.6476 558.352>
LayerCount: 2
Fore
SplineSet
74 139 m 0
 74 145 76 151 82 164 c 0
 89 180 93 188 100 188 c 2
 550 188 l 2
 557 188 566 182 566 176 c 0
 566 170 565 164 559 151 c 0
 552 135 548 128 541 128 c 2
 90 128 l 2
 83 128 74 133 74 139 c 0
74 307 m 0
 74 313 76 319 82 332 c 0
 89 348 93 355 100 355 c 2
 550 355 l 2
 557 355 566 350 566 344 c 0
 566 338 565 332 559 319 c 0
 552 303 548 296 541 296 c 2
 90 296 l 2
 83 296 74 301 74 307 c 0
EndSplineSet
Validated: 19457
EndChar

StartChar: greater
Encoding: 62 62 30
Width: 640
VWidth: 1014
Flags: W
HStem: -6 21G<141 146>
DStem2: 535 276 125 435 0.876655 -0.481119<-444.604 -37.1179> 125 48 535 207 0.875679 0.482894<-9.27349 398.328>
LayerCount: 2
Fore
SplineSet
112 34 m 0
 112 39 119 45 125 48 c 2
 474 240 l 1
 474 242 l 1
 125 435 l 2
 119 438 112 443 112 448 c 0
 112 452 117 460 120 464 c 0
 134 483 138 488 144 488 c 0
 148 488 152 486 156 484 c 2
 535 276 l 2
 551 267 566 257 566 241 c 0
 566 225 551 216 535 207 c 2
 156 -2 l 2
 152 -4 148 -6 144 -6 c 0
 138 -6 134 -1 120 18 c 0
 117 22 112 30 112 34 c 0
EndSplineSet
Validated: 19457
EndChar

StartChar: question
Encoding: 63 63 31
Width: 437
VWidth: 1014
Flags: W
HStem: -18 157<138.586 243.868> 608 99<166.812 305.221>
VStem: 113 157<8.13242 113.414> 129 52<215.062 287.535> 355 41<485.117 581.076>
LayerCount: 2
Fore
SplineSet
37 519 m 0xd8
 37 537 56 629 67 641 c 0
 92 667 147 707 222 707 c 0
 344 707 396 592 396 522 c 0
 396 466 380 410 362 387 c 0
 341 359 289 334 243 312 c 0
 191 287 181 267 181 253 c 0
 181 244 185 236 190 230 c 0
 194 225 200 218 200 210 c 0
 200 201 194 193 180 193 c 0
 152 193 129 254 129 283 c 0
 129 370 198 403 257 431 c 0
 311 457 355 483 355 544 c 0
 355 578 314 608 245 608 c 0
 194 608 130 569 99 541 c 0
 80 523 63 508 54 508 c 0
 48 508 37 514 37 519 c 0xd8
113 61 m 0xe8
 113 104 148 139 191 139 c 0
 234 139 270 104 270 61 c 0
 270 18 234 -18 191 -18 c 0
 148 -18 113 18 113 61 c 0xe8
EndSplineSet
Validated: 19457
EndChar

StartChar: at
Encoding: 64 64 32
Width: 978
VWidth: 0
Flags: W
HStem: -160 47<344.267 626.301> 25 60<312.5 420.554> 25 39<613.121 713.771> 477 69<538.036 594> 661 47<406.772 671.71>
VStem: 55 74<111.471 379.967> 238 109<115.737 298.185> 850 74<250.542 481.811>
DStem2: 513 182 612 162 0.268336 0.963325<-35.8144 305.916>
LayerCount: 2
Fore
SplineSet
55 250 m 0xbf
 55 494 268 708 541 708 c 0
 799 708 924 535 924 365 c 0
 924 201 782 25 630 25 c 0xbf
 573 25 525 59 512 120 c 9
 504 120 l 17
 470 71 407 25 337 25 c 0xdf
 288 25 238 101 238 205 c 0
 238 386 463 546 672 546 c 0
 680 546 714 541 714 536 c 0
 714 531 712 523 712 521 c 2
 612 162 l 10
 608 145 604 129 604 119 c 0
 604 82 621 64 649 64 c 0
 774 64 850 229 850 357 c 0
 850 522 755 661 539 661 c 0
 286 661 129 466 129 249 c 0
 129 35 250 -113 482 -113 c 0
 583 -113 709 -80 783 -5 c 0
 796 8 810 22 828 22 c 0
 842 22 849 9 849 -2 c 0
 849 -57 668 -160 480 -160 c 0
 216 -160 55 8 55 250 c 0xbf
347 245 m 0
 347 194 357 85 404 85 c 0xdf
 436 85 498 127 513 182 c 26
 594 477 l 17
 457 477 347 429 347 245 c 0
EndSplineSet
Validated: 19457
EndChar

StartChar: A
Encoding: 65 65 33
Width: 672
VWidth: 0
Flags: W
HStem: 0 29<6 50.5281 122.88 166 414 468 614 661> 199 30<166 405> 655 29<229.213 265.092>
DStem2: 87 100 120 96 0.321179 0.947019<-23.2106 115.916 147.539 530.811> 410 670 289 592 0.303265 -0.952906<37.6316 418.715 450.335 628.402>
AnchorPoint: "Bottom" 289 0 basechar 0
AnchorPoint: "TopCap" 336 762 basechar 0
LayerCount: 2
Fore
SplineSet
6 0 m 1
 6 29 l 1
 53 29 75 63 87 100 c 2
 262 616 l 10
 264 624 266 629 266 637 c 0
 266 647 260 653 250 655 c 0
 241 657 229 663 229 671 c 0
 229 679 240 684 246 684 c 0
 298 684 342 690 361 704 c 0
 367 708 380 711 385 711 c 0
 396 711 402 695 410 670 c 2
 614 29 l 1
 661 29 l 1
 661 0 l 1
 414 0 l 1
 414 29 l 1
 468 29 l 1
 415 199 l 1
 156 199 l 1
 120 96 l 2
 117 87 114 73 114 66 c 0
 114 49 126 29 166 29 c 1
 166 0 l 1
 6 0 l 1
166 229 m 1
 405 229 l 1
 289 592 l 1
 166 229 l 1
EndSplineSet
Validated: 19457
EndChar

StartChar: B
Encoding: 66 66 34
Width: 666
VWidth: 0
Flags: W
HStem: 0 29<47 98 235 417.306> 365 30<235 392.021> 664 29<47 98 235 392.359>
VStem: 98 137<29 365 395 664> 442 134<459.787 610.589> 484 151<104.982 272.006>
AnchorPoint: "Bottom" 289 0 basechar 0
LayerCount: 2
Fore
SplineSet
47 0 m 1xf4
 47 29 l 1
 98 29 l 1
 98 664 l 1
 47 664 l 1
 47 693 l 1
 354 693 l 2
 473 693 576 644 576 537 c 0xf8
 576 449 512 396 406 390 c 1
 406 383 l 1
 520 368 635 313 635 193 c 0
 635 47 504 0 397 0 c 2
 47 0 l 1xf4
235 29 m 1
 351 29 l 2
 439 29 484 75 484 197 c 0xf4
 484 297 442 364 353 365 c 2
 235 365 l 1
 235 29 l 1
235 395 m 1
 331 395 l 2
 428 395 442 465 442 537 c 0xf8
 442 614 413 664 330 664 c 2
 235 664 l 1
 235 395 l 1
EndSplineSet
Validated: 19457
EndChar

StartChar: C
Encoding: 67 67 35
Width: 731
VWidth: 0
Flags: W
HStem: -17 30<339.173 475.221> 682 29<343.339 478.272>
VStem: 55 156<213.775 480.331>
AnchorPoint: "Bottom" 405 0 basechar 0
AnchorPoint: "TopCap" 405 762 basechar 0
LayerCount: 2
Fore
SplineSet
55 347 m 0
 55 588 221 711 405 711 c 0
 484 711 550 693 604 664 c 0
 647 641 658 630 658 607 c 0
 658 603 657 588 656 582 c 2
 648 487 l 2
 647 478 644 472 637 472 c 0
 622 472 614 490 605 511 c 0
 576 583 534 682 405 682 c 0
 252 682 211 491 211 347 c 0
 211 203 252 13 405 13 c 0
 512 13 582 103 609 170 c 0
 618 191 627 215 642 215 c 0
 649 215 653 209 654 200 c 2
 660 98 l 2
 660 92 661 76 661 72 c 0
 661 51 650 43 607 21 c 0
 555 -5 484 -17 405 -17 c 0
 221 -17 55 106 55 347 c 0
EndSplineSet
Validated: 19457
EndChar

StartChar: D
Encoding: 68 68 36
Width: 759
VWidth: 0
Flags: W
HStem: 0 29<47 98 235 400.118> 664 29<47 98 235 400.118>
VStem: 98 137<29 664> 553 156<215.269 478.546>
AnchorPoint: "Bottom" 312 0 basechar 0
AnchorPoint: "TopCap" 312 762 basechar 0
LayerCount: 2
Fore
SplineSet
47 0 m 1
 47 29 l 1
 98 29 l 1
 98 664 l 1
 47 664 l 1
 47 693 l 1
 345 693 l 2
 590 693 709 544 709 347 c 0
 709 150 590 0 345 0 c 2
 47 0 l 1
235 29 m 1
 322 29 l 2
 519 29 553 211 553 347 c 0
 553 483 519 664 322 664 c 2
 235 664 l 1
 235 29 l 1
EndSplineSet
Validated: 19457
EndChar

StartChar: E
Encoding: 69 69 37
Width: 611
VWidth: 0
Flags: W
HStem: 0 29<47 98 235 424.575> 345 29<235 353.507> 664 29<47 98 235 423.625>
VStem: 98 137<29 345 374 664> 414 31<231.017 285.113 429.841 481.996> 495 32<526.004 587.203> 543 41<134.857 190.891>
AnchorPoint: "Bottom" 308 0 basechar 0
AnchorPoint: "TopCap" 304 762 basechar 0
LayerCount: 2
Fore
SplineSet
47 0 m 1
 47 29 l 1
 98 29 l 1
 98 664 l 1
 47 664 l 1
 47 693 l 1
 545 693 l 18
 553 693 557 691 557 687 c 0
 557 683 554 673 553 669 c 0
 539 626 530 582 527 537 c 0
 527 531 519 526 511 526 c 0
 505 526 496 530 495 537 c 0
 491 563 481 589 466 610 c 0
 442 645 411 664 364 664 c 10
 235 664 l 1
 235 374 l 1
 279 374 l 2
 320 374 361 385 382 408 c 0
 397 424 409 445 414 469 c 0
 416 477 421 482 429 482 c 0
 440 482 445 477 445 469 c 10
 445 245 l 18
 445 237 439 231 429 231 c 0
 421 231 416 236 414 244 c 0
 410 264 398 290 384 308 c 0
 362 336 320 345 279 345 c 2
 235 345 l 1
 235 29 l 1
 330 29 l 18
 395 29 444 38 491 91 c 0
 513 116 528 141 543 174 c 0
 548 185 553 191 566 191 c 0
 576 191 584 183 584 174 c 0
 584 167 581 153 578 133 c 10
 555 0 l 9
 47 0 l 1
EndSplineSet
Validated: 19457
EndChar

StartChar: F
Encoding: 70 70 38
Width: 574
VWidth: 0
Flags: W
HStem: 0 29<47 98 235 286> 345 29<235 353.507> 664 29<47 98 235 423.625>
VStem: 98 137<29 345 374 664> 414 31<231.017 285.113 429.841 481.996> 495 32<526.004 587.203>
AnchorPoint: "Bottom" 168 0 basechar 0
LayerCount: 2
Fore
SplineSet
47 0 m 25
 47 29 l 25
 98 29 l 17
 98 664 l 1
 47 664 l 1
 47 693 l 1
 545 693 l 18
 553 693 557 691 557 687 c 0
 557 683 554 673 553 669 c 0
 539 626 530 582 527 537 c 0
 527 531 519 526 511 526 c 0
 505 526 496 530 495 537 c 0
 491 563 481 589 466 610 c 0
 442 645 411 664 364 664 c 10
 235 664 l 1
 235 374 l 1
 279 374 l 2
 320 374 361 385 382 408 c 0
 397 424 409 445 414 469 c 0
 416 477 421 482 429 482 c 0
 440 482 445 477 445 469 c 10
 445 245 l 18
 445 237 439 231 429 231 c 0
 421 231 416 236 414 244 c 0
 410 264 398 290 384 308 c 0
 362 336 320 345 279 345 c 2
 235 345 l 1
 235 29 l 9
 286 29 l 25
 286 0 l 25
 47 0 l 25
EndSplineSet
Validated: 19457
EndChar

StartChar: G
Encoding: 71 71 39
Width: 791
VWidth: 0
Flags: W
HStem: -17 30<339.173 487.247> 279 30<456.005 543.669 693.332 732.996> 682 29<343.339 478.272>
VStem: 55 156<213.775 480.331> 558 124<68.8259 267.531>
AnchorPoint: "TopCap" 405 762 basechar 0
AnchorPoint: "Bottom" 408 0 basechar 0
LayerCount: 2
Fore
SplineSet
55 347 m 0
 55 588 221 711 405 711 c 0
 484 711 550 693 604 664 c 0
 647 641 658 630 658 607 c 0
 658 603 657 588 656 582 c 2
 648 487 l 2
 647 478 644 472 637 472 c 0
 622 472 614 490 605 511 c 0
 576 583 534 682 405 682 c 0
 252 682 211 491 211 347 c 0
 211 203 252 13 405 13 c 0
 534 13 558 93 558 140 c 2
 558 233 l 26
 558 248 554 258 544 268 c 0
 537 275 526 279 510 279 c 2
 472 279 l 2
 463 279 456 286 456 294 c 0
 456 302 461 309 468 309 c 26
 720 309 l 26
 728 309 733 304 733 294 c 0
 733 287 730 279 723 279 c 0
 712 279 700 278 693 271 c 0
 684 261 682 248 682 233 c 26
 682 90 l 18
 682 83 685 79 690 76 c 0
 693 74 698 69 698 65 c 0
 698 56 691 50 676 41 c 0
 623 9 484 -17 405 -17 c 0
 221 -17 55 106 55 347 c 0
EndSplineSet
Validated: 19457
EndChar

StartChar: H
Encoding: 72 72 40
Width: 781
VWidth: 0
Flags: W
HStem: 0 29<47 98 235 286 495 546 684 734> 351 29<235 546> 664 29<47 98 235 286 495 546 684 734>
VStem: 98 137<29 351 380 664> 546 138<29 351 380 664>
AnchorPoint: "TopCap" 391 762 basechar 0
AnchorPoint: "Bottom" 391 0 basechar 0
LayerCount: 2
Fore
SplineSet
47 0 m 1
 47 29 l 1
 98 29 l 1
 98 664 l 1
 47 664 l 1
 47 693 l 1
 286 693 l 1
 286 664 l 1
 235 664 l 1
 235 380 l 1
 546 380 l 1
 546 664 l 1
 495 664 l 1
 495 693 l 1
 734 693 l 1
 734 664 l 1
 684 664 l 1
 684 29 l 1
 734 29 l 1
 734 0 l 1
 495 0 l 1
 495 29 l 1
 546 29 l 1
 546 351 l 1
 235 351 l 1
 235 29 l 1
 286 29 l 1
 286 0 l 1
 47 0 l 1
EndSplineSet
Validated: 19457
EndChar

StartChar: I
Encoding: 73 73 41
Width: 333
VWidth: 0
Flags: W
HStem: 0 29<47 98 235 286> 664 29<47 98 235 286>
VStem: 98 137<29 664>
AnchorPoint: "TopCap" 167 762 basechar 0
AnchorPoint: "Bottom" 167 0 basechar 0
LayerCount: 2
Fore
SplineSet
47 0 m 25
 47 29 l 25
 98 29 l 25
 98 664 l 25
 47 664 l 25
 47 693 l 25
 286 693 l 25
 286 664 l 25
 235 664 l 25
 235 29 l 25
 286 29 l 25
 286 0 l 25
 47 0 l 25
EndSplineSet
Validated: 19457
EndChar

StartChar: J
Encoding: 74 74 42
Width: 496
VWidth: 0
Flags: W
HStem: -17 30<148.664 236.286> 664 29<218 269 406 457>
VStem: 12 115<59.1803 159.266> 269 137<99.6776 664>
AnchorPoint: "Bottom" 197 0 basechar 0
AnchorPoint: "TopCap" 337 762 basechar 0
LayerCount: 2
Fore
SplineSet
12 133 m 0
 12 164 130 206 156 206 c 0
 164 206 167 200 167 196 c 0
 167 190 162 181 157 174 c 0
 139 147 127 113 127 79 c 0
 127 50 140 13 193 13 c 0
 254 13 269 67 269 132 c 10
 269 664 l 25
 218 664 l 25
 218 693 l 25
 457 693 l 25
 457 664 l 25
 406 664 l 25
 406 238 l 18
 406 71 342 -17 196 -17 c 0
 106 -17 12 33 12 133 c 0
EndSplineSet
Validated: 19457
EndChar

StartChar: K
Encoding: 75 75 43
Width: 750
VWidth: 0
Flags: W
HStem: -20 46<670.523 741.299> 0 29<47 98 235 286> 664 29<47 98 235 286 415 475.227 578.8 637>
VStem: 98 137<29 297 343 664>
DStem2: 235 343 235 297 0.674386 0.738379<0 37.5392 164.206 380.177> 369 443 283 350 0.572424 -0.819958<27.0277 441.921>
AnchorPoint: "Bottom" 405 0 basechar 0
LayerCount: 2
Fore
SplineSet
47 0 m 1x70
 47 29 l 1
 98 29 l 1x70
 98 664 l 1
 47 664 l 1
 47 693 l 1
 286 693 l 1
 286 664 l 1
 235 664 l 1
 235 343 l 1
 458 587 l 2
 470 600 482 618 482 633 c 0
 482 656 455 664 415 664 c 1
 415 693 l 1
 637 693 l 1
 637 664 l 1
 590 664 544 635 509 597 c 2
 369 443 l 1
 554 178 l 2
 620 84 664 38 716 26 c 0
 730 23 744 19 744 12 c 0
 744 -7 717 -20 688 -20 c 0xb0
 561 -20 493 40 418 155 c 2
 283 350 l 1
 235 297 l 1
 235 29 l 1
 286 29 l 1
 286 0 l 1
 47 0 l 1x70
EndSplineSet
Validated: 19457
EndChar

StartChar: L
Encoding: 76 76 44
Width: 613
VWidth: 0
Flags: W
HStem: 0 29<47 98 235 412.881> 664 29<47 98 235 286>
VStem: 98 137<29 664>
AnchorPoint: "TopCap" 197 762 basechar 0
AnchorPoint: "Bottom" 328 0 basechar 0
LayerCount: 2
Fore
SplineSet
47 0 m 1
 47 29 l 1
 98 29 l 1
 98 664 l 9
 47 664 l 25
 47 693 l 25
 286 693 l 25
 286 664 l 25
 235 664 l 25
 235 29 l 1
 325 29 l 18
 390 29 458 49 504 103 c 0
 528 131 546 158 561 191 c 0
 566 202 571 208 584 208 c 0
 594 208 602 200 602 191 c 0
 602 184 600 170 596 150 c 10
 564 0 l 9
 47 0 l 1
EndSplineSet
Validated: 19457
EndChar

StartChar: M
Encoding: 77 77 45
Width: 935
VWidth: 0
Flags: W
HStem: 0 29<43 95.608 186.71 247 659 714 854 904> 664 29<57.0117 115.085 796 847>
DStem2: 129 95 164 97 0.0770536 0.997027<-9.24591 414.864> 263 670 147 605 0.413916 -0.910315<-34.5072 67.8626 122.94 548.703> 489 170 453 -2 0.37265 0.927972<0 410.281> 796 664 670 541 0.0909599 -0.995855<111.029 624.909>
AnchorPoint: "Bottom" 442 0 basechar 0
LayerCount: 2
Fore
SplineSet
43 0 m 1
 43 29 l 1
 80 29 126 49 129 95 c 2
 162 522 l 2
 162 530 163 545 163 549 c 0
 163 570 157 585 147 605 c 0
 137 626 129 640 112 652 c 0
 100 660 87 664 70 664 c 0
 61 664 57 672 57 679 c 0
 57 686 61 693 70 693 c 2
 218 693 l 2
 247 693 253 691 263 670 c 2
 489 170 l 1
 689 670 l 2
 693 681 699 693 718 693 c 2
 847 693 l 1
 847 664 l 1
 796 664 l 1
 854 29 l 1
 904 29 l 1
 904 0 l 1
 659 0 l 1
 659 29 l 1
 714 29 l 1
 670 541 l 1
 668 541 l 1
 665 526 661 517 657 506 c 2
 453 -2 l 2
 451 -8 444 -12 438 -12 c 0
 432 -12 426 -8 423 -2 c 2
 208 473 l 2
 205 480 200 494 198 506 c 1
 195 506 l 1
 164 97 l 2
 164 94 163 85 163 83 c 0
 163 44 206 29 247 29 c 1
 247 0 l 1
 43 0 l 1
EndSplineSet
Validated: 19457
EndChar

StartChar: N
Encoding: 78 78 46
Width: 722
VWidth: 0
Flags: W
HStem: 0 29<49 102.659 191.125 251> 664 29<494 555.228 640.72 696>
VStem: 135 33<55.3796 526> 577 33<206 638.368>
DStem2: 251 654 173 526 0.582772 -0.812636<-61.3179 20.5948 58.5612 551.131>
AnchorPoint: "TopCap" 408 762 basechar 0
AnchorPoint: "Bottom" 390 0 basechar 0
LayerCount: 2
Fore
SplineSet
39 680 m 0
 39 687 44 693 53 693 c 2
 179 693 l 2
 220 693 236 675 251 654 c 2
 572 206 l 1
 577 206 l 1
 577 600 l 2
 577 650 543 664 494 664 c 1
 494 693 l 1
 696 693 l 1
 696 664 l 1
 659 664 610 645 610 599 c 2
 610 -12 l 17
 582 -12 l 18
 561 -12 545 7 538 17 c 2
 173 526 l 1
 168 526 l 1
 168 94 l 2
 168 44 202 29 251 29 c 1
 251 0 l 1
 49 0 l 1
 49 29 l 1
 86 29 135 49 135 95 c 2
 135 560 l 2
 135 566 134 575 130 583 c 0
 126 593 118 604 107 618 c 0
 87 644 71 655 52 663 c 0
 45 666 39 671 39 680 c 0
EndSplineSet
Validated: 19457
EndChar

StartChar: O
Encoding: 79 79 47
Width: 810
VWidth: 0
Flags: W
HStem: -17 30<332.415 477.652> 682 29<332.415 477.652>
VStem: 55 156<219.031 475.038> 600 156<219.031 475.038>
AnchorPoint: "TopCap" 405 762 basechar 0
AnchorPoint: "Bottom" 405 0 basechar 0
LayerCount: 2
Fore
SplineSet
55 347 m 0
 55 560 212 711 405 711 c 0
 598 711 756 560 756 347 c 0
 756 134 598 -17 405 -17 c 0
 212 -17 55 134 55 347 c 0
211 347 m 0
 211 154 252 13 405 13 c 0
 558 13 600 154 600 347 c 0
 600 540 558 682 405 682 c 0
 252 682 211 540 211 347 c 0
EndSplineSet
Validated: 19457
EndChar

StartChar: P
Encoding: 80 80 48
Width: 643
VWidth: 0
Flags: W
HStem: 0 29<47 98 235 286> 293 33<287.222 415.223> 664 29<47 98 235 394.35>
VStem: 98 137<29 664> 472 150<409.567 582.013>
AnchorPoint: "Bottom" 168 0 basechar 0
LayerCount: 2
Fore
SplineSet
47 0 m 1
 47 29 l 1
 98 29 l 1
 98 664 l 1
 47 664 l 1
 47 693 l 1
 307 693 l 2
 533 693 622 608 622 501 c 0
 622 369 513 293 366 293 c 0
 321 293 254 314 254 336 c 0
 254 344 258 351 265 351 c 0
 269 351 277 348 286 343 c 0
 301 334 333 326 350 326 c 0
 433 326 472 373 472 500 c 0
 472 595 441 664 322 664 c 2
 235 664 l 1
 235 29 l 1
 286 29 l 1
 286 0 l 1
 47 0 l 1
EndSplineSet
Validated: 19457
EndChar

StartChar: Q
Encoding: 81 81 49
Width: 810
VWidth: 0
Flags: W
HStem: -207 45<611.346 694.326> 682 29<332.415 477.652>
VStem: 55 156<217.071 475.038> 600 156<218.331 475.038>
AnchorPoint: "Bottom" 215 0 basechar 0
LayerCount: 2
Fore
SplineSet
55 347 m 0
 55 560 212 711 405 711 c 0
 598 711 756 560 756 347 c 0
 756 161 636 31 505 -2 c 1
 551 -126 613 -151 670 -162 c 0
 684 -165 698 -168 698 -175 c 0
 698 -194 662 -207 633 -207 c 0
 516 -207 423 -151 363 -14 c 1
 189 6 55 150 55 347 c 0
211 347 m 0
 211 179 242 51 351 20 c 1
 377 36 438 62 467 62 c 0
 472 62 484 55 491 33 c 1
 569 74 600 188 600 347 c 0
 600 540 558 682 405 682 c 0
 252 682 211 540 211 347 c 0
EndSplineSet
Validated: 19457
EndChar

StartChar: R
Encoding: 82 82 50
Width: 719
VWidth: 0
Flags: W
HStem: -20 46<633.626 710.665> 0 29<47 98 235 286> 338 29<235 289> 664 29<47 98 235 371.051>
VStem: 98 137<29 338 367 664> 449 139<420.706 590.106>
DStem2: 432 343 289 338 0.515132 -0.857111<0 311.067>
AnchorPoint: "TopCap" 306 762 basechar 0
AnchorPoint: "Bottom" 398 0 basechar 0
LayerCount: 2
Fore
SplineSet
47 0 m 1x7c
 47 29 l 1
 98 29 l 1x7c
 98 664 l 1
 47 664 l 1
 47 693 l 1
 326 693 l 2
 493 693 588 623 588 506 c 0
 588 402 524 363 432 347 c 1
 432 343 l 1
 545 154 l 2
 603 57 634 38 686 26 c 0
 700 23 714 19 714 12 c 0
 714 -7 680 -20 651 -20 c 0xbc
 524 -20 472 33 408 140 c 2
 289 338 l 1
 235 338 l 1
 235 29 l 1
 286 29 l 1
 286 0 l 1
 47 0 l 1x7c
235 367 m 1
 302 367 l 2
 396 367 449 406 449 508 c 0
 449 607 412 664 293 664 c 2
 235 664 l 1
 235 367 l 1
EndSplineSet
Validated: 19457
EndChar

StartChar: S
Encoding: 83 83 51
Width: 605
VWidth: 0
Flags: W
HStem: -16 29<247.957 376.711> 682 29<255.336 367.705>
VStem: 89 121<503.666 621.084> 438 124<83.8613 203.243>
AnchorPoint: "TopCap" 316 762 basechar 0
AnchorPoint: "Bottom" 306 0 basechar 0
LayerCount: 2
Fore
SplineSet
65 68 m 0
 65 72 66 86 66 94 c 2
 73 223 l 2
 73 234 80 239 87 239 c 0
 105 239 115 221 121 204 c 0
 158 102 213 13 308 13 c 0
 398 13 438 65 438 129 c 0
 438 214 377 257 274 311 c 0
 172 364 89 415 89 538 c 0
 89 634 160 711 316 711 c 0
 366 711 426 699 466 681 c 0
 511 661 520 651 520 628 c 0
 520 620 519 605 513 572 c 0
 508 548 500 511 490 511 c 0
 478 511 471 522 462 543 c 0
 434 607 388 682 316 682 c 0
 240 682 210 638 210 577 c 0
 210 494 269 454 349 412 c 0
 480 343 562 289 562 171 c 0
 562 44 460 -16 308 -16 c 0
 249 -16 171 0 116 23 c 0
 71 42 65 45 65 68 c 0
EndSplineSet
Validated: 19457
EndChar

StartChar: T
Encoding: 84 84 52
Width: 761
VWidth: 0
Flags: W
HStem: 0 29<253 304 441 492> 470 21G<24 35.5 672 684> 664 29<186.615 304 441 573.817>
VStem: 304 137<29 664> 658 41<470.005 571.293>
AnchorPoint: "TopCap" 376 762 basechar 0
AnchorPoint: "Bottom" 372 0 basechar 0
LayerCount: 2
Fore
SplineSet
12 485 m 0
 12 492 14 505 15 513 c 10
 42 693 l 9
 733 693 l 2
 741 693 744 691 744 687 c 0
 744 683 742 673 741 669 c 0
 724 623 705 534 699 484 c 0
 698 476 690 470 678 470 c 0
 666 470 659 477 658 485 c 0
 654 513 646 566 622 604 c 0
 599 640 568 664 509 664 c 10
 441 664 l 1
 441 29 l 9
 492 29 l 25
 492 0 l 25
 253 0 l 25
 253 29 l 25
 304 29 l 25
 304 664 l 1
 256 664 l 2
 200 664 156 641 117 599 c 0
 91 571 70 526 52 487 c 0
 47 476 42 470 29 470 c 0
 19 470 12 476 12 485 c 0
EndSplineSet
Validated: 19457
EndChar

StartChar: U
Encoding: 85 85 53
Width: 708
VWidth: 0
Flags: W
HStem: -17 30<307.348 449.257> 664 29<43 94 231 282 479 540.228 626.72 682>
VStem: 94 137<113.908 664> 562 34<120.711 638.368>
AnchorPoint: "Bottom" 372 0 basechar 0
AnchorPoint: "TopCap" 377 762 basechar 0
LayerCount: 2
Fore
SplineSet
43 664 m 25
 43 693 l 25
 282 693 l 25
 282 664 l 25
 231 664 l 25
 231 176 l 18
 231 60 299 13 368 13 c 0
 500 13 562 99 562 206 c 18
 562 600 l 2
 562 650 528 664 479 664 c 1
 479 693 l 1
 682 693 l 1
 682 664 l 1
 645 664 596 645 596 599 c 2
 596 192 l 18
 596 78 512 -17 370 -17 c 0
 199 -17 94 48 94 243 c 10
 94 664 l 25
 43 664 l 25
EndSplineSet
Validated: 19457
EndChar

StartChar: V
Encoding: 86 86 54
Width: 683
VWidth: 0
Flags: W
HStem: 664 29<12 59 205 259 516 559.77 634.03 678>
DStem2: 205 664 59 664 0.36592 -0.930646<0 532.955> 400 168 378 15 0.354313 0.935127<0 489.241>
AnchorPoint: "Bottom" 345 0 basechar 0
LayerCount: 2
Fore
SplineSet
12 664 m 1
 12 693 l 1
 259 693 l 1
 259 664 l 1
 205 664 l 1
 400 168 l 1
 560 594 l 2
 564 604 568 618 568 628 c 0
 568 645 556 664 516 664 c 1
 516 693 l 1
 678 693 l 1
 678 664 l 1
 631 664 611 629 597 593 c 2
 378 15 l 2
 373 0 363 -14 346 -14 c 0
 329 -14 320 0 313 18 c 2
 59 664 l 1
 12 664 l 1
EndSplineSet
Validated: 19457
EndChar

StartChar: W
Encoding: 87 87 55
Width: 1034
VWidth: 0
Flags: W
HStem: 664 29<12 59 203 253 435 482 625 676 873 918.274 990.787 1028>
DStem2: 203 664 59 664 0.318428 -0.947947<0 505.015> 363 185 344 15 0.308289 0.951293<0 400.071> 625 664 501 608 0.318428 -0.947947<0 13.6 69.5729 505.334> 786 185 767 15 0.307101 0.951677<0 466.464>
AnchorPoint: "Bottom" 533 0 basechar 0
AnchorPoint: "TopCap" 563 762 basechar 0
LayerCount: 2
Fore
SplineSet
12 664 m 1
 12 693 l 1
 253 693 l 1
 253 664 l 1
 203 664 l 1
 363 185 l 1
 501 608 l 1
 482 664 l 1
 435 664 l 1
 435 693 l 1
 676 693 l 1
 676 664 l 1
 625 664 l 1
 786 185 l 1
 917 589 l 2
 920 600 925 616 925 631 c 0
 925 648 912 664 873 664 c 1
 873 693 l 1
 1028 693 l 1
 1028 664 l 1
 990 664 966 630 949 579 c 2
 767 15 l 1
 762 0 750 -14 733 -14 c 0
 716 -14 706 0 699 18 c 1
 519 555 l 1
 344 15 l 2
 339 0 327 -14 310 -14 c 0
 293 -14 283 0 276 18 c 1
 59 664 l 1
 12 664 l 1
EndSplineSet
Validated: 19457
EndChar

StartChar: X
Encoding: 88 88 56
Width: 687
VWidth: 0
Flags: W
HStem: 0 29<27 71.0156 152.33 194 415 463 605 656> 664 29<47 98 240 292 478 522.205 598.45 645>
DStem2: 240 664 98 664 0.498343 -0.86698<0 271.017 308.228 323.418 359.264 661.663> 125 100 162 93 0.60633 0.795213<-18.4336 265.269 413.208 670.055>
AnchorPoint: "Bottom" 330 0 basechar 0
LayerCount: 2
Fore
SplineSet
27 0 m 1
 27 29 l 1
 71 29 101 68 125 100 c 2
 294 322 l 1
 98 664 l 1
 47 664 l 1
 47 693 l 1
 292 693 l 1
 292 664 l 1
 240 664 l 1
 375 429 l 1
 507 601 l 2
 514 611 524 626 524 639 c 0
 524 653 518 665 478 665 c 1
 478 694 l 1
 645 694 l 1
 645 665 l 1
 602 665 567 625 543 594 c 2
 394 397 l 1
 605 29 l 1
 656 29 l 1
 656 0 l 1
 415 0 l 1
 415 29 l 1
 463 29 l 1
 312 291 l 1
 162 93 l 2
 154 82 149 69 149 58 c 0
 149 44 154 29 194 29 c 1
 194 0 l 1
 27 0 l 1
EndSplineSet
Validated: 19457
EndChar

StartChar: Y
Encoding: 89 89 57
Width: 693
VWidth: 0
Flags: W
HStem: 0 29<239 290 428 479> 664 29<14 61 214 268 517 560.77 641.92 688>
VStem: 290 138<29 273>
DStem2: 214 664 61 664 0.50538 -0.862897<0 375.802> 407 335 428 298 0.49264 0.870233<0 334.373>
AnchorPoint: "Bottom" 358 0 basechar 0
AnchorPoint: "TopCap" 379 762 basechar 0
LayerCount: 2
Fore
SplineSet
14 664 m 1
 14 693 l 1
 268 693 l 1
 268 664 l 1
 214 664 l 1
 407 335 l 1
 556 594 l 2
 561 604 569 618 569 628 c 0
 569 645 557 664 517 664 c 1
 517 693 l 1
 688 693 l 1
 688 664 l 1
 641 664 616 628 595 593 c 2
 428 298 l 1
 428 29 l 1
 479 29 l 1
 479 0 l 1
 239 0 l 1
 239 29 l 1
 290 29 l 1
 290 273 l 1
 61 664 l 1
 14 664 l 1
EndSplineSet
Validated: 19457
EndChar

StartChar: Z
Encoding: 90 90 58
Width: 661
VWidth: 0
Flags: W
HStem: 0 29<200 424.542> 664 29<235.109 466>
DStem2: 47 29 200 29 0.551665 0.834065<84.4048 760.779>
AnchorPoint: "Bottom" 343 0 basechar 0
AnchorPoint: "TopCap" 363 762 basechar 0
LayerCount: 2
Fore
SplineSet
47 0 m 1
 47 29 l 1
 466 664 l 1
 308 664 l 2
 252 664 217 648 181 604 c 0
 157 574 140 543 124 509 c 0
 119 498 114 492 101 492 c 0
 91 492 83 498 83 507 c 0
 83 514 85 527 86 535 c 10
 107 693 l 9
 620 693 l 25
 620 664 l 25
 200 29 l 1
 348 29 l 18
 404 29 464 52 506 95 c 0
 534 123 564 178 582 220 c 0
 586 231 591 238 604 238 c 0
 614 238 622 231 622 222 c 0
 622 215 620 203 619 195 c 10
 579 0 l 9
 47 0 l 1
EndSplineSet
Validated: 19457
EndChar

StartChar: bracketleft
Encoding: 91 91 59
Width: 395
VWidth: 1014
Flags: W
HStem: -169 29<190.215 362.395> 664 29<190.215 362.395>
VStem: 93 97<-140 664>
LayerCount: 2
Fore
SplineSet
93 -146 m 2
 93 670 l 2
 93 686 98 693 114 693 c 2
 358 693 l 2
 359 693 364 691 364 687 c 0
 364 679 358 664 351 664 c 2
 208 664 l 2
 196 664 190 658 190 646 c 2
 190 -122 l 2
 190 -134 196 -140 208 -140 c 2
 358 -140 l 2
 359 -140 364 -142 364 -146 c 0
 364 -154 358 -169 351 -169 c 2
 114 -169 l 2
 98 -169 93 -162 93 -146 c 2
EndSplineSet
Validated: 19457
EndChar

StartChar: backslash
Encoding: 92 92 60
Width: 484
VWidth: 1014
Flags: W
DStem2: 449 -58 399 -99 0.434282 -0.900777<-836.225 13.277>
LayerCount: 2
Fore
SplineSet
31 669 m 0
 31 677 35 688 61 703 c 0
 65 705 70 708 72 708 c 0
 77 708 82 703 85 697 c 2
 449 -58 l 2
 451 -62 453 -67 453 -71 c 0
 453 -79 449 -90 423 -105 c 0
 419 -107 414 -109 412 -109 c 0
 407 -109 402 -105 399 -99 c 2
 35 656 l 2
 33 660 31 665 31 669 c 0
EndSplineSet
Validated: 19457
EndChar

StartChar: bracketright
Encoding: 93 93 61
Width: 395
VWidth: 1014
Flags: W
HStem: -169 29<32.8372 204.818> 664 29<32.8372 204.818>
VStem: 205 98<-139.996 663.996>
LayerCount: 2
Fore
SplineSet
31 -146 m 0
 31 -142 36 -140 37 -140 c 2
 188 -140 l 2
 200 -140 205 -134 205 -122 c 2
 205 646 l 2
 205 658 200 664 188 664 c 2
 45 664 l 2
 38 664 31 679 31 687 c 0
 31 691 36 693 37 693 c 2
 281 693 l 2
 297 693 303 686 303 670 c 2
 303 -146 l 2
 303 -162 297 -169 281 -169 c 2
 45 -169 l 2
 38 -169 31 -154 31 -146 c 0
EndSplineSet
Validated: 19457
EndChar

StartChar: asciicircum
Encoding: 94 94 62
Width: 640
VWidth: 1014
Flags: W
DStem2: 74 345 319 623 0.535233 0.844704<-11.2741 365.96> 356 678 321 623 0.533419 -0.845851<27.8521 404.966>
LayerCount: 2
Fore
SplineSet
70 334 m 0
 70 338 72 341 74 345 c 2
 285 678 l 2
 294 693 304 707 320 707 c 0
 336 707 347 693 356 678 c 2
 566 345 l 2
 568 341 570 338 570 334 c 0
 570 329 565 325 545 313 c 0
 541 310 532 307 528 307 c 0
 521 307 517 312 514 317 c 2
 321 623 l 25
 319 623 l 25
 126 317 l 2
 123 312 119 307 112 307 c 0
 108 307 99 310 95 313 c 0
 75 325 70 329 70 334 c 0
EndSplineSet
Validated: 19457
EndChar

StartChar: underscore
Encoding: 95 95 63
Width: 500
VWidth: 1014
Flags: W
HStem: -185 60<-12.3524 512.035>
LayerCount: 2
Fore
SplineSet
-21 -173 m 0
 -21 -167 -19 -161 -13 -148 c 0
 -6 -132 -2 -125 5 -125 c 2
 504 -125 l 2
 511 -125 521 -130 521 -136 c 0
 521 -142 519 -148 513 -161 c 0
 506 -177 502 -185 495 -185 c 2
 -4 -185 l 2
 -11 -185 -21 -179 -21 -173 c 0
EndSplineSet
Validated: 19457
EndChar

StartChar: grave
Encoding: 96 96 64
Width: 429
VWidth: 0
Flags: W
HStem: 536 257
VStem: 86 173
LayerCount: 2
Fore
SplineSet
86 760 m 0
 86 774 101 793 121 793 c 0
 142 793 200 769 207 744 c 10
 257 566 l 18
 258 563 259 557 259 555 c 0
 259 544 251 536 240 536 c 0
 228 536 222 544 215 554 c 26
 98 725 l 26
 90 737 86 751 86 760 c 0
EndSplineSet
Validated: 19457
EndChar

StartChar: a
Encoding: 97 97 65
Width: 544
VWidth: 0
Flags: W
HStem: -18 62<127 234.383 399.5 480.242> 234 27<256.901 310> 408 66<175.868 279.553>
VStem: 43 109<59.1112 146.983> 310 112<82.8929 234 256.841 376.67>
AnchorPoint: "Bottom" 242 0 basechar 0
AnchorPoint: "Acute" 260 557 basechar 0
AnchorPoint: "Grave" 260 547 basechar 0
AnchorPoint: "Top" 260 537 basechar 0
LayerCount: 2
Fore
SplineSet
43 79 m 0
 43 143 90 181 127 202 c 0
 184 234 240 246 310 261 c 1
 310 328 l 2
 310 385 252 408 213 408 c 0
 192 408 156 389 126 365 c 0
 113 355 88 334 74 334 c 0
 63 334 57 342 57 353 c 0
 57 386 184 474 250 474 c 0
 341 474 422 429 422 348 c 2
 422 107 l 2
 422 70 443 44 467 44 c 0
 479 44 490 52 501 64 c 0
 509 73 518 81 525 81 c 0
 531 81 539 74 539 63 c 0
 539 47 471 -18 419 -18 c 0
 380 -18 339 13 325 55 c 1
 322 55 l 1
 278 19 195 -20 149 -20 c 0
 105 -20 43 6 43 79 c 0
152 108 m 0
 152 64 185 44 218 44 c 0
 252 44 286 55 317 82 c 1
 313 101 310 123 310 155 c 2
 310 234 l 1
 270 226 231 216 197 195 c 0
 163 174 152 137 152 108 c 0
EndSplineSet
Validated: 19457
EndChar

StartChar: b
Encoding: 98 98 66
Width: 600
VWidth: 0
Flags: W
HStem: -12 43<234.927 378.478> 412 58<279.574 429> 713 30<9.01468 72.4302> 733 20G<172 190.5>
VStem: 90 112<61.2089 384.459 407 702.717> 437 117<153.489 324.891>
AnchorPoint: "Bottom" 296 0 basechar 0
LayerCount: 2
Fore
SplineSet
9 727 m 0xec
 9 739 12 743 25 743 c 0xec
 39 743 80 746 105 748 c 0
 137 751 164 753 180 753 c 0xdc
 201 753 202 739 202 725 c 2
 202 407 l 1
 205 405 l 1
 242 431 304 470 375 470 c 0
 483 470 554 387 554 259 c 0
 554 94 409 -12 296 -12 c 0
 261 -12 227 -1 195 10 c 0
 174 17 143 23 120 26 c 0
 95 29 69 34 69 41 c 0
 69 49 72 58 77 77 c 0
 83 98 90 140 90 159 c 2
 90 668 l 2
 90 689 85 697 73 703 c 0
 61 709 39 712 25 713 c 0
 14 714 9 714 9 727 c 0xec
202 112 m 2
 202 51 268 31 317 31 c 0
 393 31 437 110 437 205 c 0
 437 298 403 412 298 412 c 0
 269 412 229 392 202 369 c 1
 202 112 l 2
EndSplineSet
Validated: 19457
EndChar

StartChar: c
Encoding: 99 99 67
Width: 474
VWidth: 0
Flags: W
HStem: -12 74<242.28 340.429> 444 34<217.734 305.234>
VStem: 39 118<161.396 332.073> 340 103<367.544 412.602>
AnchorPoint: "Bottom" 248 0 basechar 0
AnchorPoint: "Acute" 270 557 basechar 0
AnchorPoint: "Grave" 270 547 basechar 0
AnchorPoint: "Top" 270 537 basechar 0
LayerCount: 2
Fore
SplineSet
39 228 m 0
 39 358 135 478 276 478 c 0
 322 478 357 468 390 451 c 0
 419 436 443 415 443 399 c 0
 443 383 395 338 376 338 c 0
 361 338 351 349 340 374 c 0
 326 406 304 444 264 444 c 0
 212 444 157 386 157 274 c 0
 157 154 217 62 318 62 c 0
 345 62 377 78 391 88 c 0
 411 103 420 109 431 109 c 0
 441 109 447 102 447 94 c 0
 447 60 332 -12 247 -12 c 0
 132 -12 39 89 39 228 c 0
EndSplineSet
Validated: 19457
EndChar

StartChar: d
Encoding: 100 100 68
Width: 614
VWidth: 0
Flags: W
HStem: -10 61<171 324.51> 427 43<224.858 361.726> 713 30<317.018 380.431> 733 20G<481 499.5>
VStem: 47 117<133.109 304.511> 398 113<73.5414 394.739 446 702.717>
AnchorPoint: "Bottom" 311 0 basechar 0
LayerCount: 2
Fore
SplineSet
47 199 m 0xdc
 47 364 191 470 304 470 c 0
 337 470 375 457 396 443 c 9
 398 446 l 1
 398 668 l 2
 398 689 393 697 381 703 c 0
 369 709 348 712 334 713 c 0
 323 714 317 714 317 727 c 0
 317 739 320 743 333 743 c 0xec
 347 743 389 746 414 748 c 0
 446 751 473 753 489 753 c 0
 510 753 511 739 511 725 c 2
 511 76 l 2
 511 59 519 51 534 51 c 0
 540 51 553 52 563 54 c 0
 576 56 586 58 593 58 c 0
 599 58 603 52 603 46 c 0
 603 38 593 29 571 23 c 0
 543 15 519 6 498 -2 c 0
 486 -7 468 -10 453 -10 c 0
 430 -10 409 26 402 53 c 1
 399 56 l 1
 361 29 298 -12 225 -12 c 0
 117 -12 47 71 47 199 c 0xdc
164 253 m 0
 164 160 197 46 302 46 c 0
 331 46 371 66 398 89 c 1
 398 343 l 2
 398 404 333 427 284 427 c 0
 208 427 164 348 164 253 c 0
EndSplineSet
Validated: 19457
EndChar

StartChar: e
Encoding: 101 101 69
Width: 494
VWidth: 0
Flags: W
HStem: -12 72<243.22 343.72> 444 34<211.334 310.771>
VStem: 39 113<198.275 336.055> 351 114<292.187 396.072>
DStem2: 155 238 160 209 0.959921 0.280269<0 203.045>
AnchorPoint: "Bottom" 264 0 basechar 0
AnchorPoint: "Acute" 271 557 basechar 0
AnchorPoint: "Grave" 271 547 basechar 0
AnchorPoint: "Top" 271 537 basechar 0
LayerCount: 2
Fore
SplineSet
39 232 m 0
 39 373 143 478 271 478 c 0
 414 478 465 383 465 328 c 0
 465 306 453 294 434 289 c 2
 160 209 l 1
 176 117 240 60 318 60 c 0
 355 60 382 79 398 91 c 0
 415 104 423 110 434 110 c 0
 444 110 449 103 449 95 c 0
 449 61 337 -12 252 -12 c 0
 113 -12 39 111 39 232 c 0
152 277 m 0
 152 265 153 251 155 238 c 1
 313 284 l 2
 338 291 351 304 351 336 c 0
 351 384 329 444 257 444 c 0
 205 444 152 385 152 277 c 0
EndSplineSet
Validated: 19457
EndChar

StartChar: f
Encoding: 102 102 70
Width: 406
VWidth: 0
Flags: W
HStem: -6 29<35.0118 112.608 232.485 309.985> 433 29<37.4073 116 229 360.016> 720 39<224.199 330>
VStem: 116 113<26.295 433 462 655.418>
AnchorPoint: "Bottom" 173 0 basechar 0
LayerCount: 2
Fore
SplineSet
35 8 m 0
 35 17 39 23 49 23 c 2
 91 26 l 2
 104 27 116 31 116 50 c 2
 116 433 l 1
 43 433 l 2
 39 433 35 435 35 439 c 0
 35 446 43 462 54 462 c 2
 116 462 l 1
 116 544 l 2
 116 719 225 759 313 759 c 0
 347 759 395 749 395 738 c 0
 395 707 367 643 344 643 c 0
 332 643 321 656 312 675 c 0
 302 696 287 720 260 720 c 0
 235 720 212 698 212 656 c 0
 212 644 216 605 219 585 c 0
 224 556 229 510 229 491 c 2
 229 462 l 1
 354 462 l 2
 358 462 362 459 362 455 c 0
 362 448 354 433 343 433 c 2
 229 433 l 1
 229 50 l 2
 229 31 241 27 254 26 c 2
 296 23 l 2
 306 23 310 17 310 8 c 0
 310 -2 305 -6 299 -6 c 0
 286 -6 259 -4 239 -2 c 0
 216 0 191 2 172 2 c 0
 153 2 128 0 105 -2 c 0
 85 -4 58 -6 45 -6 c 0
 39 -6 35 -2 35 8 c 0
EndSplineSet
Validated: 19457
EndChar

StartChar: g
Encoding: 103 103 71
Width: 535
VWidth: -4
Flags: W
HStem: -268 38<233.806 386.72> 141 35<243.149 344.088> 439 36<209.243 312.662>
VStem: 54 105<-10.5 101> 74 99<248.044 372.203> 382 98<242.875 367.302> 422 76<-182.925 -106.876> 436 99<502.156 579.103>
AnchorPoint: "Top" 277 537 basechar 0
AnchorPoint: "Grave" 277 547 basechar 0
AnchorPoint: "Acute" 277 537 basechar 0
AnchorPoint: "HighMark" 277 605 basechar 0
LayerCount: 2
Fore
SplineSet
31 -145 m 0xf2
 31 -119 81 -72 108 -72 c 0
 123 -72 129 -83 141 -107 c 0
 179 -185 230 -230 316 -230 c 0
 371 -230 422 -205 422 -153 c 0
 422 -105 374 -67 228 -49 c 0
 147 -39 54 -24 54 3 c 0xf2
 54 52 97 118 178 149 c 1
 178 151 l 1
 115 172 74 224 74 288 c 0
 74 419 199 475 305 475 c 0
 314 475 340 473 353 471 c 0
 366 469 385 468 392 468 c 0
 428 468 436 488 436 520 c 0
 436 537 429 557 420 575 c 1
 441 585 478 586 496 586 c 0
 526 586 535 573 535 562 c 0xe9
 535 507 484 458 415 448 c 1
 415 445 l 1
 450 423 480 382 480 327 c 0xe4
 480 196 356 141 250 141 c 0
 220 141 200 136 185 128 c 0
 167 118 159 106 159 96 c 0
 159 81 181 72 248 63 c 0
 430 39 498 -32 498 -116 c 0
 498 -194 415 -268 280 -268 c 0
 138 -268 31 -199 31 -145 c 0xf2
173 331 m 0xec
 173 247 235 176 295 176 c 0
 352 176 382 227 382 284 c 0
 382 368 320 439 260 439 c 0
 203 439 173 388 173 331 c 0xec
EndSplineSet
Validated: 19457
EndChar

StartChar: h
Encoding: 104 104 72
Width: 624
VWidth: 0
Flags: W
HStem: -6 29<21.0145 99.6082 218.392 295.988 328.012 405.608 524.392 602.985> 418 55<314.987 446.5> 713 30<21.0175 84.431> 733 20G<185 203.5>
VStem: 103 112<26.4515 376.451 401 702.717> 409 112<26.4515 404.311>
AnchorPoint: "HighMark" 311 791 basechar 0
AnchorPoint: "Bottom" 311 0 basechar 0
LayerCount: 2
Fore
SplineSet
21 8 m 0xdc
 21 17 25 23 35 23 c 2
 77 26 l 2
 90 27 103 31 103 50 c 2
 103 668 l 2
 103 689 97 697 85 703 c 0
 73 709 52 712 38 713 c 0
 27 714 21 714 21 727 c 0
 21 739 25 743 38 743 c 0xec
 52 743 93 746 118 748 c 0
 150 751 177 753 193 753 c 0
 214 753 215 739 215 725 c 2
 215 401 l 1
 218 398 l 1
 275 433 342 473 399 473 c 0
 494 473 521 422 521 340 c 2
 521 50 l 2
 521 31 534 27 547 26 c 2
 589 23 l 2
 599 23 603 17 603 8 c 0
 603 -2 598 -6 592 -6 c 0
 579 -6 552 -4 532 -2 c 0
 509 0 484 2 465 2 c 0
 446 2 421 0 398 -2 c 0
 378 -4 351 -6 338 -6 c 0
 332 -6 328 -2 328 8 c 0
 328 17 332 23 342 23 c 2
 384 26 l 2
 397 27 409 31 409 50 c 2
 409 353 l 2
 409 380 398 418 346 418 c 0
 300 418 252 387 215 362 c 1
 215 50 l 2
 215 31 227 27 240 26 c 2
 282 23 l 2
 292 23 296 17 296 8 c 0
 296 -2 292 -6 286 -6 c 0
 273 -6 246 -4 226 -2 c 0
 203 0 178 2 159 2 c 0
 140 2 115 0 92 -2 c 0
 72 -4 45 -6 32 -6 c 0
 26 -6 21 -2 21 8 c 0xdc
EndSplineSet
Validated: 19457
EndChar

StartChar: k
Encoding: 107 107 75
Width: 619
VWidth: 0
Flags: W
HStem: -16 51<522.125 584.706> -6 29<21.0145 99.6082 218.392 295.988> 439 30<335.033 383.597 488.818 547.967> 713 30<21.0175 84.431> 733 20G<185 203.5>
VStem: 103 112<26.4515 220 259 702.717> 386 162<402.5 460>
DStem2: 215 259 251 248 0.792748 0.60955<0 21.8339 125.85 226.733> 333 312 251 248 0.57728 -0.816547<4.92207 325.855>
AnchorPoint: "Bottom" 337 0 basechar 0
LayerCount: 2
Fore
SplineSet
21 8 m 0x66
 21 17 25 23 35 23 c 2
 77 26 l 2
 90 27 103 31 103 50 c 2
 103 668 l 2
 103 689 97 697 85 703 c 0
 73 709 52 712 38 713 c 0
 27 714 21 714 21 727 c 0
 21 739 25 743 38 743 c 0x76
 52 743 93 746 118 748 c 0
 150 751 177 753 193 753 c 0
 214 753 215 739 215 725 c 2
 215 259 l 1
 341 357 l 2
 355 368 386 392 386 413 c 0
 386 429 375 437 349 439 c 0
 339 439 335 446 335 455 c 0
 335 465 340 469 346 469 c 0
 353 469 371 467 391 465 c 0
 414 462 428 461 441 461 c 0
 454 461 469 462 492 465 c 0
 512 467 530 469 537 469 c 0
 543 469 548 465 548 455 c 0
 548 446 544 442 534 440 c 0
 506 434 474 419 453 403 c 2
 333 312 l 1
 485 97 l 2
 511 60 533 44 570 35 c 0
 581 32 594 29 594 21 c 0
 594 3 554 -16 523 -16 c 0xae
 467 -16 425 2 376 71 c 2
 251 248 l 1
 215 220 l 1
 215 50 l 2
 215 31 227 27 240 26 c 2
 282 23 l 2
 292 23 296 17 296 8 c 0
 296 -2 292 -6 286 -6 c 0
 273 -6 246 -4 226 -2 c 0
 203 0 178 2 159 2 c 0
 140 2 115 0 92 -2 c 0
 72 -4 45 -6 32 -6 c 0
 26 -6 21 -2 21 8 c 0x66
EndSplineSet
Validated: 19457
EndChar

StartChar: l
Encoding: 108 108 76
Width: 317
VWidth: 0
Flags: W
HStem: -6 29<21.0145 99.6082 218.392 295.988> 713 30<21.0175 84.431> 733 20G<185 203.5>
VStem: 103 112<26.4515 702.717>
AnchorPoint: "HighMark" 153 791 basechar 0
AnchorPoint: "Bottom" 159 0 basechar 0
LayerCount: 2
Fore
SplineSet
21 8 m 0xb0
 21 17 25 23 35 23 c 10
 77 26 l 18
 90 27 103 31 103 50 c 10
 103 668 l 18
 103 689 97 697 85 703 c 0
 73 709 52 712 38 713 c 0
 27 714 21 714 21 727 c 0
 21 739 25 743 38 743 c 0xd0
 52 743 93 746 118 748 c 0
 150 751 177 753 193 753 c 0
 214 753 215 739 215 725 c 10
 215 50 l 18
 215 31 227 27 240 26 c 10
 282 23 l 18
 292 23 296 17 296 8 c 0
 296 -2 292 -6 286 -6 c 0
 273 -6 246 -4 226 -2 c 0
 203 0 178 2 159 2 c 0
 140 2 115 0 92 -2 c 0
 72 -4 45 -6 32 -6 c 0
 26 -6 21 -2 21 8 c 0xb0
EndSplineSet
Validated: 19457
EndChar

StartChar: m
Encoding: 109 109 77
Width: 924
VWidth: 0
Flags: W
HStem: -6 29<31.0145 108.49 228.485 296.988 338.015 407.608 526.392 595.988 637.012 706.608 825.392 902.988> 418 55<328.112 441.389 625.733 751.389> 428 30<31.0175 94.431>
VStem: 112 113<26.295 373.192 397 417.717> 411 112<26.4515 371.688> 710 112<26.4515 407.183>
AnchorPoint: "Bottom" 467 0 basechar 0
LayerCount: 2
Fore
SplineSet
31 8 m 0xdc
 31 17 35 23 45 23 c 2
 87 26 l 2
 100 27 112 31 112 50 c 2
 112 383 l 2
 112 404 107 412 95 418 c 0xdc
 83 424 62 427 48 428 c 0
 37 429 31 429 31 442 c 0
 31 454 34 458 47 458 c 0xbc
 61 458 102 460 127 462 c 0
 159 465 187 468 203 468 c 0
 224 468 225 454 225 440 c 2
 225 397 l 1
 228 394 l 1
 285 430 352 473 409 473 c 0
 481 473 510 442 519 392 c 1
 522 391 l 1
 580 431 655 473 707 473 c 0
 802 473 822 422 822 340 c 2
 822 50 l 2
 822 31 835 27 848 26 c 2
 890 23 l 2
 900 23 903 17 903 8 c 0
 903 -2 899 -6 893 -6 c 0
 880 -6 853 -4 833 -2 c 0
 810 0 785 2 766 2 c 0
 747 2 722 0 699 -2 c 0
 679 -4 657 -6 647 -6 c 0
 641 -6 637 -2 637 8 c 0
 637 17 641 23 651 23 c 2
 685 26 l 2
 698 27 710 31 710 50 c 2
 710 353 l 2
 710 380 706 418 654 418 c 0
 612 418 563 385 523 357 c 1
 523 50 l 2
 523 31 536 27 549 26 c 2
 583 23 l 2
 593 23 596 17 596 8 c 0
 596 -2 592 -6 586 -6 c 0
 576 -6 554 -4 534 -2 c 0
 511 0 486 2 467 2 c 0
 448 2 423 0 400 -2 c 0
 380 -4 359 -6 349 -6 c 0
 343 -6 338 -2 338 8 c 0
 338 17 342 23 352 23 c 2
 386 26 l 2
 399 27 411 31 411 50 c 2
 411 353 l 2
 411 380 407 418 355 418 c 0
 309 418 261 384 225 358 c 1
 225 50 l 2
 225 31 237 27 250 26 c 2
 284 23 l 2
 294 23 297 17 297 8 c 0
 297 -2 293 -6 287 -6 c 0
 277 -6 255 -4 235 -2 c 0
 212 0 187 2 168 2 c 0
 149 2 125 0 102 -2 c 0
 82 -4 55 -6 42 -6 c 0
 36 -6 31 -2 31 8 c 0xdc
EndSplineSet
Validated: 19457
EndChar

StartChar: n
Encoding: 110 110 78
Width: 633
VWidth: 0
Flags: W
HStem: -6 29<31.0145 108.49 228.485 305.985 338.012 415.608 534.392 611.988> 418 55<324.548 456.5> 428 30<31.0175 94.431>
VStem: 112 113<26.295 376.451 401 417.717> 419 112<26.4515 404.311>
AnchorPoint: "Acute" 320 557 basechar 0
AnchorPoint: "Grave" 320 547 basechar 0
AnchorPoint: "Top" 320 537 basechar 0
AnchorPoint: "Bottom" 320 0 basechar 0
LayerCount: 2
Fore
SplineSet
31 8 m 0xd8
 31 17 35 23 45 23 c 2
 87 26 l 2
 100 27 112 31 112 50 c 2
 112 383 l 2
 112 404 107 412 95 418 c 0xd8
 83 424 62 427 48 428 c 0
 37 429 31 429 31 442 c 0
 31 454 34 458 47 458 c 0xb8
 61 458 102 460 127 462 c 0
 159 465 187 468 203 468 c 0
 224 468 225 454 225 440 c 2
 225 401 l 1
 228 398 l 1
 285 433 352 473 409 473 c 0
 504 473 531 422 531 340 c 2
 531 50 l 2
 531 31 544 27 557 26 c 2
 599 23 l 2
 609 23 612 17 612 8 c 0
 612 -2 608 -6 602 -6 c 0
 589 -6 562 -4 542 -2 c 0
 519 0 494 2 475 2 c 0
 456 2 431 0 408 -2 c 0
 388 -4 361 -6 348 -6 c 0
 342 -6 338 -2 338 8 c 0
 338 17 342 23 352 23 c 2
 394 26 l 2
 407 27 419 31 419 50 c 2
 419 353 l 2
 419 380 407 418 355 418 c 0
 309 418 262 387 225 362 c 1
 225 50 l 2
 225 31 237 27 250 26 c 2
 292 23 l 2
 302 23 306 17 306 8 c 0
 306 -2 301 -6 295 -6 c 0
 282 -6 255 -4 235 -2 c 0
 212 0 187 2 168 2 c 0
 149 2 125 0 102 -2 c 0
 82 -4 55 -6 42 -6 c 0
 36 -6 31 -2 31 8 c 0xd8
EndSplineSet
Validated: 19457
EndChar

StartChar: o
Encoding: 111 111 79
Width: 572
VWidth: 0
Flags: W
HStem: -14 31<245.035 346.513> 445 31<225.488 326.965>
VStem: 35 125<124.996 335.527> 412 125<126.473 337.004>
AnchorPoint: "Grave" 286 547 basechar 0
AnchorPoint: "Acute" 286 557 basechar 0
AnchorPoint: "Bottom" 286 0 basechar 0
AnchorPoint: "Top" 286 537 basechar 0
LayerCount: 2
Fore
SplineSet
35 231 m 0
 35 376 140 476 286 476 c 0
 432 476 537 376 537 231 c 0
 537 86 432 -14 286 -14 c 0
 140 -14 35 86 35 231 c 0
160 268 m 0
 160 121 209 17 295 17 c 0
 371 17 412 91 412 194 c 0
 412 341 363 445 277 445 c 0
 201 445 160 371 160 268 c 0
EndSplineSet
Validated: 19457
EndChar

StartChar: p
Encoding: 112 112 80
Width: 613
VWidth: 0
Flags: W
HStem: -292 29<21.0145 99.6082 218.392 295.988> -12 43<248.451 391.293> 412 58<292.574 442> 428 30<21.0175 84.431>
VStem: 103 112<-259.549 5 61.1452 384.459 407 417.717> 449 117<153.489 324.891>
AnchorPoint: "Bottom" 437 0 basechar 0
LayerCount: 2
Fore
SplineSet
21 -278 m 0xec
 21 -269 25 -263 35 -263 c 10
 77 -260 l 18
 90 -259 103 -255 103 -236 c 10
 103 383 l 18
 103 404 97 412 85 418 c 0
 73 424 52 427 38 428 c 0
 27 429 21 429 21 442 c 0
 21 454 25 458 38 458 c 0xdc
 52 458 93 460 118 462 c 0
 150 465 177 468 193 468 c 0
 214 468 215 454 215 440 c 2
 215 407 l 1
 218 405 l 1
 255 431 317 470 388 470 c 0
 496 470 566 387 566 259 c 0
 566 94 422 -12 309 -12 c 0
 273 -12 244 -3 219 9 c 9
 215 5 l 9
 215 -236 l 18
 215 -255 227 -259 240 -260 c 10
 282 -263 l 18
 292 -263 296 -269 296 -278 c 0
 296 -288 292 -292 286 -292 c 0
 273 -292 246 -290 226 -288 c 0
 203 -286 178 -284 159 -284 c 0
 140 -284 115 -286 92 -288 c 0
 72 -290 45 -292 32 -292 c 0
 26 -292 21 -288 21 -278 c 0xec
215 112 m 2
 215 51 281 31 330 31 c 0
 406 31 449 110 449 205 c 0
 449 298 416 412 311 412 c 0xec
 282 412 242 392 215 369 c 1
 215 112 l 2
EndSplineSet
Validated: 19457
EndChar

StartChar: q
Encoding: 113 113 81
Width: 591
VWidth: 0
Flags: W
HStem: -292 29<317.015 394.515 536 591.988> -12 58<171 320.248> 427 43<224.858 362.074>
VStem: 47 117<133.109 304.511> 398 113<-259.705 53 73.5414 394.739>
AnchorPoint: "Bottom" 208 0 basechar 0
LayerCount: 2
Fore
SplineSet
47 199 m 0
 47 364 191 470 304 470 c 0
 327 470 356 462 372 455 c 0
 383 450 397 443 407 443 c 0
 423 443 440 451 457 461 c 0
 472 470 484 475 493 475 c 0
 507 475 511 463 511 442 c 2
 511 -236 l 18
 511 -255 523 -259 536 -260 c 10
 578 -263 l 18
 588 -263 592 -269 592 -278 c 0
 592 -288 588 -292 582 -292 c 0
 569 -292 541 -290 521 -288 c 0
 498 -286 474 -284 455 -284 c 0
 436 -284 411 -286 388 -288 c 0
 368 -290 341 -292 328 -292 c 0
 322 -292 317 -288 317 -278 c 0
 317 -269 321 -263 331 -263 c 10
 373 -260 l 18
 386 -259 398 -255 398 -236 c 10
 398 53 l 17
 397 54 l 1
 362 29 298 -12 225 -12 c 0
 117 -12 47 71 47 199 c 0
164 253 m 0
 164 160 197 46 302 46 c 0
 331 46 371 66 398 89 c 1
 398 343 l 2
 398 404 333 427 284 427 c 0
 208 427 164 348 164 253 c 0
EndSplineSet
Validated: 19457
EndChar

StartChar: r
Encoding: 114 114 82
Width: 524
VWidth: 0
Flags: W
HStem: -6 29<40.0118 117.608 236.392 313.988> 399 74<319 439.5> 428 30<40.0175 103.431>
VStem: 121 112<26.4515 348.785 377 417.717>
AnchorPoint: "Acute" 289 557 basechar 0
AnchorPoint: "Grave" 289 547 basechar 0
AnchorPoint: "Top" 289 537 basechar 0
AnchorPoint: "Bottom" 188 0 basechar 0
LayerCount: 2
Fore
SplineSet
40 8 m 0xd0
 40 17 44 23 54 23 c 2
 96 26 l 2
 109 27 121 31 121 50 c 2
 121 383 l 2
 121 404 116 412 104 418 c 0
 92 424 71 427 57 428 c 0
 46 429 40 429 40 442 c 0
 40 454 43 458 56 458 c 0xb0
 70 458 111 460 136 462 c 0
 168 465 195 468 211 468 c 0
 232 468 233 454 233 440 c 2
 233 377 l 1
 237 374 l 1
 288 424 351 473 408 473 c 0
 471 473 501 427 501 409 c 0
 501 401 485 385 466 368 c 0
 445 349 422 332 413 332 c 0
 402 332 397 340 388 355 c 0
 374 378 358 399 333 399 c 0
 305 399 267 366 233 325 c 1
 233 50 l 2
 233 31 246 27 259 26 c 2
 301 23 l 2
 311 23 314 17 314 8 c 0
 314 -2 310 -6 304 -6 c 0
 291 -6 264 -4 244 -2 c 0
 221 0 196 2 177 2 c 0
 158 2 133 0 110 -2 c 0
 90 -4 63 -6 50 -6 c 0
 44 -6 40 -2 40 8 c 0xd0
EndSplineSet
Validated: 19457
EndChar

StartChar: s
Encoding: 115 115 83
Width: 440
VWidth: 0
Flags: W
HStem: -12 30<170.849 287.149> 445 30<170.731 274.786>
VStem: 62 86<332.796 416.595> 319 90<52.6384 137.965>
AnchorPoint: "Acute" 230 557 basechar 0
AnchorPoint: "Grave" 230 547 basechar 0
AnchorPoint: "Top" 230 537 basechar 0
AnchorPoint: "Bottom" 231 0 basechar 0
LayerCount: 2
Fore
SplineSet
47 156 m 0
 47 163 53 167 58 167 c 0
 72 167 78 155 83 144 c 0
 110 80 157 18 228 18 c 0
 295 18 319 53 319 89 c 0
 319 137 280 156 205 189 c 0
 129 223 62 256 62 349 c 0
 62 417 115 475 230 475 c 0
 268 475 309 466 340 454 c 0
 375 440 381 434 381 418 c 0
 381 414 380 402 376 380 c 0
 372 358 366 328 361 328 c 0
 352 328 347 334 340 348 c 0
 319 389 283 445 229 445 c 0
 172 445 148 422 148 382 c 0
 148 336 191 311 248 285 c 0
 344 241 409 204 409 128 c 0
 409 39 343 -12 226 -12 c 0
 194 -12 124 0 89 11 c 0
 54 22 51 23 50 39 c 0
 48 77 47 135 47 156 c 0
EndSplineSet
Validated: 19457
EndChar

StartChar: t
Encoding: 116 116 84
Width: 419
VWidth: 0
Flags: W
HStem: -12 63<220.989 314.196> 433 29<207 387.016>
VStem: 95 112<65.4446 433> 168 47<565.85 631.941>
AnchorPoint: "Bottom" 234 0 basechar 0
LayerCount: 2
Fore
SplineSet
14 439 m 0xe0
 14 452 19 455 30 459 c 0
 63 472 93 495 120 526 c 0
 139 548 159 584 168 620 c 0
 171 631 181 632 194 632 c 0
 205 632 215 629 215 614 c 0xd0
 215 606 214 600 213 581 c 0
 211 554 207 489 207 462 c 1
 381 462 l 2
 385 462 389 459 389 455 c 0
 389 448 381 433 370 433 c 2
 207 433 l 9
 207 116 l 18
 207 85 218 51 273 51 c 0
 303 51 333 71 349 84 c 0
 357 90 363 96 369 96 c 0
 377 96 392 80 392 75 c 0
 392 56 310 -12 231 -12 c 0
 140 -12 95 29 95 104 c 10
 95 433 l 17
 21 433 l 2
 17 433 14 435 14 439 c 0xe0
EndSplineSet
Validated: 19457
EndChar

StartChar: u
Encoding: 117 117 85
Width: 625
VWidth: 0
Flags: W
HStem: -11 55<177.5 309.013> 428 30<21.0175 84.431 328.018 391.431> 448 20G<185 203.5 492 510.5>
VStem: 103 112<57.6886 417.717> 409 112<85.5486 417.717>
AnchorPoint: "Bottom" 311 0 basechar 0
AnchorPoint: "Acute" 301 557 basechar 0
AnchorPoint: "Grave" 301 547 basechar 0
AnchorPoint: "Top" 301 537 basechar 0
LayerCount: 2
Fore
SplineSet
21 442 m 0xd8
 21 454 25 458 38 458 c 0xd8
 52 458 93 460 118 462 c 0
 150 465 177 468 193 468 c 0xb8
 214 468 215 454 215 440 c 2
 215 109 l 2
 215 82 226 44 278 44 c 0
 324 44 372 75 409 100 c 1
 409 383 l 2
 409 404 404 412 392 418 c 0
 380 424 359 427 345 428 c 0
 334 429 328 429 328 442 c 0
 328 454 331 458 344 458 c 0xd8
 358 458 399 460 424 462 c 0
 456 465 484 468 500 468 c 0xb8
 521 468 521 454 521 440 c 2
 521 76 l 2
 521 59 529 51 544 51 c 0
 550 51 564 52 574 54 c 0
 587 56 597 58 604 58 c 0
 610 58 613 52 613 46 c 0
 613 38 604 29 582 23 c 0
 554 15 529 6 508 -2 c 0
 496 -7 478 -10 463 -10 c 0
 438 -10 418 31 410 62 c 1
 406 64 l 1
 349 29 282 -11 225 -11 c 0
 130 -11 103 40 103 122 c 2
 103 383 l 2
 103 404 97 412 85 418 c 0
 73 424 52 427 38 428 c 0
 27 429 21 429 21 442 c 0xd8
EndSplineSet
Validated: 19457
EndChar

StartChar: v
Encoding: 118 118 86
Width: 576
VWidth: 0
Flags: W
HStem: 439 30<8.02616 72.1619 215.85 273.973 367.033 424.086 513.275 571.935>
VStem: 434 138<397 461>
DStem2: 319 132 92 397 0.368879 -0.929478<-297.643 7.75486>
AnchorPoint: "Bottom" 276 0 basechar 0
LayerCount: 2
Fore
SplineSet
8 455 m 0
 8 465 12 469 18 469 c 0
 28 469 50 467 70 465 c 0
 93 463 118 461 137 461 c 0
 156 461 181 463 204 465 c 0
 224 467 251 469 264 469 c 0
 270 469 274 465 274 455 c 0
 274 446 270 440 260 439 c 0
 236 437 212 436 212 410 c 0
 212 405 215 395 217 390 c 2
 319 132 l 2
 321 127 323 126 325 126 c 0
 327 126 331 128 333 132 c 0
 368 204 400 277 424 350 c 0
 429 367 434 392 434 402 c 0
 434 427 407 437 381 439 c 0
 371 439 367 446 367 455 c 0
 367 465 372 469 378 469 c 0
 385 469 397 467 417 465 c 0
 440 462 454 461 467 461 c 0
 480 461 494 462 517 465 c 0
 537 467 549 469 556 469 c 0
 562 469 572 467 572 455 c 0
 572 446 562 441 552 439 c 0
 507 431 481 406 458 344 c 0
 415 227 354 107 306 14 c 0
 300 3 290 -10 276 -10 c 0
 261 -10 249 0 244 14 c 2
 92 397 l 2
 80 428 55 437 21 439 c 0
 11 439 8 446 8 455 c 0
EndSplineSet
Validated: 19457
EndChar

StartChar: w
Encoding: 119 119 87
Width: 819
VWidth: 0
Flags: W
HStem: 439 30<8.02008 64.5913 204.19 255.968 611.033 667.234 756.307 815.929>
VStem: 678 138<380.5 460>
DStem2: 206 390 82 397 0.33898 -0.940793<-20.2861 268.927> 490 417 404 316 0.350444 -0.936584<64.4568 301.009>
AnchorPoint: "Bottom" 405 0 basechar 0
AnchorPoint: "HighMark" 440 557 basechar 0
AnchorPoint: "Grave" 440 547 basechar 0
AnchorPoint: "Top" 440 537 basechar 0
LayerCount: 2
Fore
SplineSet
8 455 m 0
 8 465 13 469 18 469 c 0
 28 469 46 467 65 465 c 0
 86 463 110 461 128 461 c 0
 146 461 169 463 190 465 c 0
 209 467 234 469 246 469 c 0
 251 469 256 465 256 455 c 0
 256 446 252 440 243 439 c 0
 222 437 201 436 201 410 c 0
 201 405 204 395 206 390 c 2
 295 145 l 2
 297 140 299 138 300 138 c 0
 303 138 305 141 307 145 c 0
 337 223 381 348 402 417 c 0
 407 434 420 467 444 467 c 0
 469 467 484 434 490 417 c 2
 590 143 l 2
 592 138 597 136 598 136 c 0
 601 136 604 140 606 144 c 0
 631 208 649 254 668 325 c 0
 673 344 678 368 678 393 c 0
 678 430 651 437 625 439 c 0
 615 439 611 446 611 455 c 0
 611 465 616 469 622 469 c 0
 629 469 640 467 660 465 c 0
 683 462 697 461 710 461 c 0
 723 461 738 462 761 465 c 0
 781 467 792 469 799 469 c 0
 805 469 816 465 816 455 c 0
 816 446 806 442 796 440 c 0
 751 432 727 407 706 343 c 0
 667 221 628 102 579 14 c 0
 573 3 562 -10 549 -10 c 0
 534 -10 523 0 517 14 c 1
 404 316 l 1
 398 316 l 1
 362 210 320 100 279 14 c 0
 274 3 263 -10 250 -10 c 0
 235 -10 226 0 220 14 c 1
 82 397 l 2
 71 428 50 437 20 439 c 0
 11 439 8 446 8 455 c 0
EndSplineSet
Validated: 19457
EndChar

StartChar: x
Encoding: 120 120 88
Width: 635
VWidth: 0
Flags: W
HStem: -6 29<31.0145 77.2094 206.586 247.985 326.012 379.722 542.102 600.985> 439 30<49.0262 108.354 266.72 322.974 381.033 422.516 538.006 593.967>
VStem: 31 172<3 68.5> 426 168<392.5 460>
DStem2: 348 292 269 211 0.600389 -0.799708<-147.17 0 47.946 214.516>
AnchorPoint: "Bottom" 303 0 basechar 0
LayerCount: 2
Fore
SplineSet
31 8 m 0
 31 17 35 19 45 22 c 0
 97 42 135 74 168 105 c 0
 200 135 238 177 269 211 c 1
 131 397 l 2
 107 430 102 435 62 439 c 0
 52 440 49 446 49 455 c 0
 49 465 53 469 59 469 c 0
 72 469 99 467 119 465 c 0
 142 463 167 461 186 461 c 0
 205 461 230 463 253 465 c 0
 273 467 300 469 313 469 c 0
 319 469 323 465 323 455 c 0
 323 446 320 440 310 439 c 2
 281 437 l 2
 272 437 265 426 265 414 c 0
 265 408 267 401 272 394 c 2
 348 292 l 1
 387 331 426 375 426 410 c 0
 426 428 415 437 395 439 c 0
 385 440 381 446 381 455 c 0
 381 465 386 469 392 469 c 0
 399 469 417 467 437 465 c 0
 460 462 474 461 487 461 c 0
 500 461 515 462 538 465 c 0
 558 467 576 469 583 469 c 0
 589 469 594 465 594 455 c 0
 594 446 590 442 580 440 c 0
 536 429 507 408 474 377 c 0
 438 344 397 304 365 269 c 1
 519 65 l 2
 543 33 547 27 587 23 c 0
 597 22 601 17 601 8 c 0
 601 -2 596 -6 590 -6 c 0
 577 -6 550 -4 530 -2 c 0
 507 0 482 2 463 2 c 0
 444 2 419 0 396 -2 c 0
 376 -4 349 -6 336 -6 c 0
 330 -6 326 -2 326 8 c 0
 326 17 330 22 340 23 c 2
 366 26 l 2
 375 26 382 37 382 49 c 0
 382 55 380 62 375 69 c 2
 288 187 l 1
 249 144 203 85 203 52 c 0
 203 32 214 27 234 23 c 0
 244 21 248 17 248 8 c 0
 248 -2 243 -6 237 -6 c 0
 230 -6 210 -4 190 -2 c 0
 167 1 153 2 140 2 c 0
 127 2 110 1 87 -2 c 0
 67 -4 49 -6 42 -6 c 0
 36 -6 31 -2 31 8 c 0
EndSplineSet
Validated: 19457
EndChar

StartChar: y
Encoding: 121 121 89
Width: 572
VWidth: 0
Flags: W
HStem: -288 21G<162 199> 439 30<6.02657 68.144 213.85 271.973 361.033 411.899 511.492 569.935>
VStem: 424 146<378.5 461>
DStem2: 217 382 87 397 0.400012 -0.91651<-26.7222 291.11> 333 115 456 344 0.360302 0.932836<-253.054 -162.127 0 290.846>
AnchorPoint: "Bottom" 436 0 basechar 0
AnchorPoint: "Acute" 300 557 basechar 0
AnchorPoint: "Grave" 300 547 basechar 0
AnchorPoint: "Top" 300 537 basechar 0
LayerCount: 2
Fore
SplineSet
6 455 m 0
 6 465 10 469 16 469 c 0
 26 469 48 467 68 465 c 0
 91 463 116 461 135 461 c 0
 154 461 179 463 202 465 c 0
 222 467 249 469 262 469 c 0
 268 469 272 465 272 455 c 0
 272 446 268 440 258 439 c 0
 234 437 209 434 209 408 c 0
 209 401 215 387 217 382 c 2
 333 115 l 1
 403 298 l 2
 417 335 424 364 424 393 c 0
 424 420 406 437 375 439 c 0
 365 440 361 446 361 455 c 0
 361 465 366 469 372 469 c 0
 379 469 391 467 411 465 c 0
 434 462 450 461 463 461 c 0
 476 461 492 462 515 465 c 0
 535 467 547 469 554 469 c 0
 560 469 570 467 570 455 c 0
 570 446 560 441 550 439 c 0
 505 431 480 405 456 344 c 2
 237 -223 l 26
 225 -253 211 -288 187 -288 c 0
 137 -288 93 -272 93 -255 c 0
 93 -249 104 -239 117 -229 c 0
 178 -179 230 -121 265 -58 c 0
 269 -50 272 -40 272 -35 c 0
 272 -31 272 -26 269 -20 c 2
 87 397 l 2
 74 428 54 437 20 439 c 0
 10 439 6 446 6 455 c 0
EndSplineSet
Validated: 19457
EndChar

StartChar: z
Encoding: 122 122 90
Width: 519
VWidth: 0
Flags: W
HStem: 0 29<191 324.934> 433 29<181.907 317>
VStem: 50 29<317.1 338.186> 447 31<130.168 151.809>
DStem2: 57 28 191 29 0.540232 0.841516<73.2327 481.274>
AnchorPoint: "Bottom" 260 0 basechar 0
AnchorPoint: "HighMark" 269 557 basechar 0
AnchorPoint: "Grave" 269 547 basechar 0
AnchorPoint: "Top" 269 537 basechar 0
LayerCount: 2
Fore
SplineSet
47 317 m 0
 47 319 49 329 50 336 c 10
 72 453 l 2
 75 470 86 479 100 479 c 0
 111 479 123 474 136 469 c 0
 151 463 163 462 174 462 c 2
 447 462 l 2
 456 462 460 457 460 453 c 0
 460 447 456 440 451 432 c 10
 191 29 l 1
 298 29 335 38 385 79 c 0
 405 95 430 125 447 152 c 0
 451 159 455 165 466 165 c 0
 472 165 480 161 480 152 c 0
 480 148 479 139 478 133 c 10
 444 0 l 9
 63 0 l 18
 52 0 50 5 50 8 c 0
 50 14 54 23 57 28 c 2
 317 433 l 1
 243 433 l 2
 201 433 163 413 134 387 c 0
 113 369 93 339 79 317 c 0
 75 310 71 305 61 305 c 0
 51 305 47 311 47 317 c 0
EndSplineSet
Validated: 19457
EndChar

StartChar: braceleft
Encoding: 123 123 91
Width: 395
VWidth: 1014
Flags: W
HStem: -187 33<289.884 361.239> 679 32<293.653 361.05>
VStem: 170 88<-108.135 139.226 384.774 632.174> 191 88<-63.2498 185.331 338.669 587.25>
LayerCount: 2
Fore
SplineSet
70 262 m 0xd0
 70 272 82 277 93 280 c 0
 140 292 191 316 191 363 c 0xd0
 191 388 185 426 180 464 c 0
 175 502 170 540 170 564 c 0
 170 668 290 711 352 711 c 0
 353 711 363 710 363 705 c 0
 363 697 361 685 337 679 c 0
 303 671 258 658 258 613 c 0xe0
 258 584 263 547 268 509 c 0
 273 471 279 433 279 404 c 0
 279 330 213 288 127 263 c 1
 127 261 l 1
 213 236 279 194 279 120 c 0xd0
 279 91 273 53 268 15 c 0
 263 -23 258 -60 258 -89 c 0
 258 -134 303 -146 337 -154 c 0
 361 -160 363 -172 363 -180 c 0
 363 -185 353 -187 352 -187 c 0
 290 -187 170 -144 170 -40 c 0xe0
 170 -16 175 22 180 60 c 0
 185 98 191 136 191 161 c 0
 191 208 140 232 93 244 c 0
 82 247 70 252 70 262 c 0xd0
EndSplineSet
Validated: 19457
EndChar

StartChar: bar
Encoding: 124 124 92
Width: 195
VWidth: 1014
Flags: W
VStem: 66 63<-171.336 698.611>
LayerCount: 2
Fore
SplineSet
66 -155 m 2
 66 690 l 2
 66 697 73 707 79 707 c 0
 85 707 90 705 104 700 c 0
 120 694 129 689 129 682 c 2
 129 -164 l 2
 129 -171 123 -181 117 -181 c 0
 111 -181 106 -178 92 -173 c 0
 76 -167 66 -162 66 -155 c 2
EndSplineSet
Validated: 19457
EndChar

StartChar: braceright
Encoding: 125 125 93
Width: 395
VWidth: 1014
Flags: W
HStem: -187 33<33.9978 106.116> 679 32<34.2148 102.347>
VStem: 117 88<-63.2498 185.331 338.669 587.25> 138 88<-108.135 139.226 384.774 632.174> 269 56<254.822 269.178>
LayerCount: 2
Fore
SplineSet
32 -180 m 0xd8
 32 -172 35 -160 59 -154 c 0
 93 -146 138 -134 138 -89 c 0xd8
 138 -60 132 -23 127 15 c 0
 122 53 117 91 117 120 c 0
 117 194 183 236 269 261 c 1
 269 263 l 1
 183 288 117 330 117 404 c 0xe8
 117 433 122 471 127 509 c 0
 132 547 138 584 138 613 c 0
 138 658 93 671 59 679 c 0
 35 685 32 697 32 705 c 0
 32 710 43 711 44 711 c 0
 106 711 226 668 226 564 c 0xd8
 226 540 220 502 215 464 c 0
 210 426 205 388 205 363 c 0
 205 316 256 292 303 280 c 0
 314 277 325 272 325 262 c 0
 325 252 314 247 303 244 c 0
 256 232 205 208 205 161 c 0xe8
 205 136 210 98 215 60 c 0
 220 22 226 -16 226 -40 c 0
 226 -144 106 -187 44 -187 c 0
 43 -187 32 -185 32 -180 c 0xd8
EndSplineSet
Validated: 19457
EndChar

StartChar: asciitilde
Encoding: 126 126 94
Width: 615
VWidth: 0
Flags: W
HStem: 152 86<359.522 456.984> 212 86<158.122 255.478>
LayerCount: 2
Fore
SplineSet
55 177 m 0x40
 55 201 157 298 224 298 c 0x40
 271 298 307 283 340 268 c 0
 374 253 410 238 455 238 c 0
 481 238 499 255 514 271 c 0
 523 281 532 288 540 288 c 0
 550 288 561 283 561 273 c 0
 561 249 458 152 391 152 c 0x80
 344 152 308 167 275 182 c 0
 241 197 205 212 160 212 c 0
 134 212 116 196 101 180 c 0
 92 170 83 162 75 162 c 0
 65 162 55 167 55 177 c 0x40
EndSplineSet
Validated: 19457
EndChar

StartChar: exclamdown
Encoding: 161 161 96
Width: 257
VWidth: 1014
Flags: W
HStem: 551 156<75.2149 182.785>
VStem: 38 173<58.5315 190.438> 51 156<575.215 682.785>
LayerCount: 2
Fore
SplineSet
38 9 m 0xc0
 38 31 47 101 50 125 c 2
 102 474 l 2
 104 486 115 496 129 496 c 0
 143 496 153 492 156 474 c 2
 199 196 l 2
 203 170 211 111 211 101 c 0
 211 77 182 47 152 25 c 0
 121 2 85 -18 69 -18 c 0
 44 -18 38 -1 38 9 c 0xc0
51 629 m 0xa0
 51 672 86 707 129 707 c 0
 172 707 207 672 207 629 c 0
 207 586 172 551 129 551 c 0
 86 551 51 586 51 629 c 0xa0
EndSplineSet
Validated: 19457
EndChar

StartChar: cent
Encoding: 162 162 97
Width: 472
VWidth: 0
Flags: W
HStem: -12 73<230 333.13> 444 34<211.298 299.542>
VStem: 39 116<166.582 333.434> 87 35<-181.423 -171> 377 35<645 654.423>
DStem2: 88 -150 122 -171 0.341648 0.939828<-4.05597 172.259 305.262 599.584 663.675 841.835>
LayerCount: 2
Fore
SplineSet
39 228 m 0xe8
 39 358 133 478 274 478 c 0
 289 478 302 475 315 473 c 1
 377 645 l 2
 379 651 386 658 389 658 c 0
 392 658 396 653 402 646 c 0
 408 639 412 633 412 628 c 0
 412 627 411 625 411 624 c 2
 352 462 l 1
 365 457 377 450 389 442 c 0
 416 424 441 403 441 387 c 0
 441 371 399 334 385 334 c 0
 372 334 360 352 346 375 c 0
 340 385 335 393 330 400 c 1
 221 101 l 1
 246 76 278 61 317 61 c 0
 335 61 375 77 388 88 c 0
 404 102 414 109 425 109 c 0
 435 109 440 102 440 94 c 0
 440 60 325 -12 240 -12 c 0
 220 -12 201 -9 183 -3 c 1
 122 -171 l 2
 120 -177 113 -185 110 -185 c 0
 107 -185 103 -180 97 -173 c 0
 91 -166 87 -159 87 -154 c 0xd8
 87 -153 88 -151 88 -150 c 2
 147 13 l 1
 82 51 39 130 39 228 c 0xe8
155 277 m 0xe8
 155 226 168 177 192 137 c 1
 300 433 l 1
 288 441 276 444 258 444 c 0
 206 444 155 389 155 277 c 0xe8
EndSplineSet
Validated: 19457
EndChar

StartChar: sterling
Encoding: 163 163 98
Width: 654
VWidth: 0
Flags: W
HStem: -12 92<361.542 529.931> 101 31<183.282 217.453> 346 35<67.1912 206 322 530.809> 648 61<334.751 439.413>
VStem: 194 110<383.415 590.5> 231 93<200.084 344.357>
LayerCount: 2
Fore
SplineSet
54 74 m 0xf4
 54 84 61 105 76 113 c 0
 100 125 146 132 183 132 c 0
 215 132 231 152 231 208 c 0xf4
 231 245 221 298 212 346 c 1
 73 346 l 2
 69 346 65 349 65 354 c 0
 65 362 73 381 84 381 c 2
 206 381 l 1
 200 418 194 456 194 492 c 0
 194 572 294 709 419 709 c 0
 505 709 601 667 601 649 c 0
 601 625 554 583 535 583 c 0
 507 583 492 593 453 618 c 0
 415 643 395 648 364 648 c 0
 329 648 304 608 304 573 c 0xf8
 304 515 311 447 319 381 c 1
 525 381 l 2
 529 381 533 378 533 373 c 0
 533 365 525 346 514 346 c 2
 322 346 l 1
 323 324 324 301 324 279 c 0
 324 224 293 166 238 130 c 1
 238 127 l 1
 274 118 296 113 329 103 c 0
 388 86 435 80 477 80 c 0
 519 80 554 94 576 121 c 0
 583 130 589 137 595 137 c 0
 606 137 611 126 611 119 c 0
 611 82 548 -12 455 -12 c 0
 372 -12 319 33 282 66 c 0
 259 87 235 101 219 101 c 0
 202 101 175 82 145 56 c 0
 124 38 105 23 92 23 c 0
 76 23 54 57 54 74 c 0xf4
EndSplineSet
Validated: 19457
EndChar

StartChar: currency
Encoding: 164 164 99
Width: 722
VWidth: 1014
Flags: W
HStem: 66 59<266.394 455.856> 578 59<266.394 455.856>
VStem: 76 59<257.057 446.606> 587 60<257.057 446.606>
DStem2: 183 574 139 530 0.707698 -0.706515<-141.325 2.75581 564.268 708.372> 139 173 183 129 0.707698 0.706515<-141.32 2.83138 564.344 708.471>
LayerCount: 2
Fore
SplineSet
32 646 m 0
 32 654 42 659 57 665 c 0
 67 669 75 672 81 672 c 0
 84 672 85 671 87 669 c 2
 183 574 l 1
 232 614 293 637 361 637 c 0
 429 637 491 614 540 574 c 1
 641 675 l 2
 644 678 650 681 655 681 c 0
 663 681 668 671 674 656 c 0
 678 646 682 638 682 632 c 0
 682 629 681 627 679 625 c 2
 584 530 l 1
 624 481 647 420 647 352 c 0
 647 284 624 222 584 173 c 1
 685 72 l 2
 688 69 690 63 690 58 c 0
 690 50 681 45 666 39 c 0
 656 35 648 31 642 31 c 0
 639 31 637 32 635 34 c 2
 540 129 l 1
 491 89 429 66 361 66 c 0
 293 66 232 89 183 129 c 1
 82 28 l 2
 79 25 72 22 67 22 c 0
 59 22 54 32 48 47 c 0
 44 57 41 65 41 71 c 0
 41 74 41 76 43 78 c 2
 139 173 l 1
 99 222 76 284 76 352 c 0
 76 420 99 481 139 530 c 1
 38 631 l 2
 35 634 32 641 32 646 c 0
135 352 m 0
 135 227 236 125 361 125 c 0
 486 125 587 227 587 352 c 0
 587 477 486 578 361 578 c 0
 236 578 135 477 135 352 c 0
EndSplineSet
Validated: 19457
EndChar

StartChar: yen
Encoding: 165 165 100
Width: 693
VWidth: 0
Flags: W
HStem: -6 29<203.012 280.608 421 476.988> 185 35<70.5 284 396 610.038> 301 35<70.1912 260 422 610.038> 670 29<23.0576 83.8634 232.969 289.942 468.473 508.655 634.097 680.565>
VStem: 284 112<26.4515 185 220 287> 527 154<613 685>
DStem2: 383 336 260 336 0.466072 -0.884747<-341.412 -57.3269 -17.5054 -7.21227> 383 336 422 336 0.479053 0.877786<18.6831 319.287>
LayerCount: 2
Fore
SplineSet
23 686 m 0
 23 696 28 699 34 699 c 0
 44 699 65 697 85 695 c 0
 108 693 133 691 152 691 c 0
 171 691 196 693 219 695 c 0
 239 697 266 699 279 699 c 0
 285 699 290 696 290 686 c 0
 290 677 286 671 276 670 c 0
 252 668 229 666 229 641 c 0
 229 636 231 626 234 620 c 2
 383 336 l 1
 509 567 l 2
 519 586 527 604 527 622 c 0
 527 648 507 662 481 664 c 0
 471 664 468 671 468 680 c 0
 468 690 473 693 479 693 c 0
 486 693 504 691 524 689 c 0
 547 686 561 686 574 686 c 0
 587 686 602 686 625 689 c 0
 645 691 663 693 670 693 c 0
 676 693 681 690 681 680 c 0
 681 671 677 667 667 665 c 0
 634 658 592 646 563 593 c 2
 422 336 l 1
 604 336 l 2
 608 336 612 333 612 328 c 0
 612 320 605 301 594 301 c 2
 404 301 l 1
 396 287 l 1
 396 220 l 1
 604 220 l 2
 608 220 612 217 612 212 c 0
 612 204 605 185 594 185 c 2
 396 185 l 1
 396 50 l 2
 396 31 408 27 421 26 c 2
 463 23 l 2
 473 23 477 17 477 8 c 0
 477 -2 473 -6 467 -6 c 0
 454 -6 427 -4 407 -2 c 0
 384 0 359 2 340 2 c 0
 321 2 296 0 273 -2 c 0
 253 -4 226 -6 213 -6 c 0
 207 -6 203 -2 203 8 c 0
 203 17 206 23 216 23 c 2
 258 26 l 2
 271 27 284 31 284 50 c 2
 284 185 l 1
 76 185 l 2
 72 185 68 187 68 192 c 0
 68 200 76 220 87 220 c 2
 284 220 l 1
 284 292 l 1
 279 301 l 1
 76 301 l 2
 72 301 68 304 68 309 c 0
 68 317 76 336 87 336 c 2
 260 336 l 1
 107 628 l 2
 91 657 71 668 37 670 c 0
 27 670 23 677 23 686 c 0
EndSplineSet
Validated: 19457
EndChar

StartChar: brokenbar
Encoding: 166 166 101
Width: 195
VWidth: 1014
Flags: W
VStem: 66 63<-171.336 175.611 350.664 698.611>
LayerCount: 2
Fore
SplineSet
66 -155 m 2
 66 167 l 2
 66 174 73 185 79 185 c 0
 85 185 90 182 104 177 c 0
 120 171 129 166 129 159 c 2
 129 -164 l 2
 129 -171 123 -181 117 -181 c 0
 111 -181 106 -178 92 -173 c 0
 76 -167 66 -162 66 -155 c 2
66 367 m 2
 66 690 l 2
 66 697 73 707 79 707 c 0
 85 707 90 705 104 700 c 0
 120 694 129 689 129 682 c 2
 129 359 l 2
 129 352 123 342 117 342 c 0
 111 342 106 344 92 349 c 0
 76 355 66 360 66 367 c 2
EndSplineSet
Validated: 19457
EndChar

StartChar: section
Encoding: 167 167 102
Width: 1000
VWidth: 0
Flags: W
HStem: -182 34<338.511 412.909> 677 33<470.091 544.088>
VStem: 218 86<370.405 531.755> 227 93<-129.302 -40.9578> 366 87<516.062 629.155> 430 87<-101.512 12.3115> 563 93<569.481 657.302> 579 86<-4.71818 158.095>
LayerCount: 2
Fore
SplineSet
218 420 m 0xe4
 218 611 381 710 492 710 c 0
 571 710 656 674 656 604 c 0
 656 581 622 554 599 554 c 0
 577 554 570 576 563 611 c 0xe6
 556 646 546 677 511 677 c 0
 468 677 453 646 453 603 c 0
 453 536 503 455 555 376 c 0
 609 293 665 193 665 108 c 0
 665 -83 502 -182 391 -182 c 0
 312 -182 227 -146 227 -76 c 0
 227 -53 261 -25 284 -25 c 0
 306 -25 313 -48 320 -83 c 0xd9
 327 -118 337 -148 372 -148 c 0
 415 -148 430 -117 430 -74 c 0
 430 -7 380 73 328 152 c 0
 274 235 218 335 218 420 c 0xe4
304 479 m 0
 304 391 350 308 402 226 c 0
 459 136 517 45 517 -42 c 0xe4
 517 -55 515 -81 509 -102 c 1
 510 -103 l 1
 563 -70 579 -16 579 50 c 0
 579 138 532 221 480 303 c 0
 423 393 366 483 366 570 c 0xc9
 366 583 368 609 374 630 c 1
 373 631 l 1
 320 598 304 545 304 479 c 0
EndSplineSet
Validated: 19457
EndChar

StartChar: dieresis
Encoding: 168 168 103
Width: 429
VWidth: 0
Flags: W
HStem: 556 134<68.6596 143.77 285.66 360.77>
VStem: 39 135<587.028 658.972> 256 135<587.028 658.972>
LayerCount: 2
Fore
SplineSet
39 623 m 0
 39 644 85 690 106 690 c 0
 127 690 174 644 174 623 c 0
 174 602 127 556 106 556 c 0
 85 556 39 602 39 623 c 0
256 623 m 0
 256 644 302 690 323 690 c 0
 344 690 391 644 391 623 c 0
 391 602 344 556 323 556 c 0
 302 556 256 602 256 623 c 0
EndSplineSet
Validated: 19457
EndChar

StartChar: copyright
Encoding: 169 169 104
Width: 859
VWidth: 0
Flags: W
HStem: 21 47<318.413 541.526> 188 24<397.646 490.01> 572 24<397.646 490.01> 716 47<318.413 541.526>
VStem: 55 49<280.735 503.265> 217 113<298.001 485.999> 563 26<293.214 344.406 439.594 490.786> 755 50<280.735 503.265>
LayerCount: 2
Fore
SplineSet
55 392 m 0
 55 599 224 763 430 763 c 0
 636 763 805 599 805 392 c 0
 805 185 636 21 430 21 c 0
 224 21 55 185 55 392 c 0
104 392 m 0
 104 213 250 68 430 68 c 0
 610 68 755 213 755 392 c 0
 755 571 610 716 430 716 c 0
 250 716 104 571 104 392 c 0
217 392 m 0
 217 527 327 596 443 596 c 0
 493 596 530 585 561 571 c 0
 587 559 594 555 594 542 c 0
 594 522 592 478 589 447 c 0
 589 442 586 438 582 438 c 0
 573 438 567 447 563 459 c 0
 550 498 520 572 443 572 c 0
 351 572 330 469 330 392 c 0
 330 315 351 212 443 212 c 0
 520 212 550 286 563 325 c 0
 567 337 573 346 582 346 c 0
 586 346 589 342 589 337 c 0
 592 306 594 263 594 243 c 0
 594 230 587 225 561 213 c 0
 530 199 493 188 443 188 c 0
 327 188 217 257 217 392 c 0
EndSplineSet
Validated: 19457
EndChar

StartChar: ordfeminine
Encoding: 170 170 105
Width: 312
VWidth: 0
Flags: W
HStem: 465 37<79 148.4 227.5 279.407> 591 13<148.375 178> 672 37<93.6349 170.202>
VStem: 33 66<503.51 557.97> 178 67<520.423 591 600.046 663.732>
LayerCount: 2
Fore
SplineSet
33 513 m 0
 33 545 59 564 79 574 c 0
 110 590 141 598 178 604 c 1
 178 634 l 2
 178 660 146 672 125 672 c 0
 113 672 95 663 79 652 c 0
 72 647 59 638 51 638 c 0
 45 638 42 641 42 647 c 0
 42 664 112 709 149 709 c 0
 199 709 245 689 245 650 c 2
 245 533 l 2
 245 515 256 502 268 502 c 0
 274 502 280 507 285 512 c 0
 289 516 294 520 297 520 c 0
 300 520 304 516 304 510 c 0
 304 501 266 466 238 466 c 0
 217 466 195 483 187 507 c 1
 185 507 l 1
 161 486 116 465 91 465 c 0
 67 465 33 477 33 513 c 0
99 532 m 0
 99 511 115 502 132 502 c 0
 149 502 166 507 182 520 c 1
 180 529 178 539 178 554 c 2
 178 591 l 1
 158 588 138 583 121 573 c 0
 104 563 99 546 99 532 c 0
EndSplineSet
Validated: 19457
EndChar

StartChar: guillemotleft
Encoding: 171 171 106
Width: 424
VWidth: 0
Flags: W
VStem: 45 100<191.322 270.868> 219 79<189.722 272.557>
LayerCount: 2
Fore
SplineSet
45 231 m 0
 45 273 224 445 256 445 c 0
 262 445 276 429 276 423 c 0
 276 417 263 400 246 383 c 0
 199 335 145 254 145 231 c 0
 145 208 199 128 246 80 c 0
 263 63 276 46 276 40 c 0
 276 34 262 18 256 18 c 0
 224 18 45 189 45 231 c 0
219 231 m 0
 219 265 335 381 355 381 c 0
 361 381 372 372 372 366 c 0
 372 360 366 352 358 341 c 0
 335 310 298 254 298 231 c 0
 298 208 335 153 358 122 c 0
 366 111 372 103 372 97 c 0
 372 91 361 82 355 82 c 0
 335 82 219 197 219 231 c 0
EndSplineSet
Validated: 19457
EndChar

StartChar: logicalnot
Encoding: 172 172 107
Width: 640
VWidth: 1014
Flags: W
HStem: 293 60<77.1873 498>
VStem: 498 63<144.389 293>
LayerCount: 2
Fore
SplineSet
68 304 m 0
 68 310 70 316 76 329 c 0
 83 345 87 353 94 353 c 2
 544 353 l 2
 551 353 561 347 561 341 c 2
 561 153 l 2
 561 146 554 136 548 136 c 0
 542 136 537 138 523 143 c 0
 507 149 498 154 498 161 c 2
 498 293 l 1
 84 293 l 2
 77 293 68 298 68 304 c 0
EndSplineSet
Validated: 19457
EndChar

StartChar: registered
Encoding: 174 174 109
Width: 859
VWidth: 0
Flags: W
HStem: 21 47<318.413 541.526> 193 33<612.738 661.087> 204 24<229 261 359 392> 389 24<359 401> 568 24<229 261 359 462.752> 716 47<318.413 541.526>
VStem: 55 49<280.735 503.265> 261 98<228 389 413 568> 503 99<433.463 542.164> 755 50<280.735 503.265>
DStem2: 501 393 401 389 0.567925 -0.82308<0 184.801>
LayerCount: 2
Fore
SplineSet
55 392 m 0x9fc0
 55 599 224 763 430 763 c 0
 636 763 805 599 805 392 c 0
 805 185 636 21 430 21 c 0
 224 21 55 185 55 392 c 0x9fc0
104 392 m 0
 104 213 250 68 430 68 c 0
 610 68 755 213 755 392 c 0
 755 571 610 716 430 716 c 0
 250 716 104 571 104 392 c 0
229 204 m 1xbfc0
 229 228 l 1
 261 228 l 1xbfc0
 261 568 l 1
 229 568 l 1
 229 592 l 1
 422 592 l 2
 537 592 602 552 602 485 c 0
 602 426 560 405 501 396 c 1
 501 393 l 1
 570 293 l 2
 605 243 615 232 646 226 c 0
 654 224 663 221 663 216 c 0
 663 202 640 193 620 193 c 0xdfc0
 541 193 512 227 469 289 c 2
 401 389 l 1
 359 389 l 1
 359 228 l 1
 392 228 l 1
 392 204 l 1
 229 204 l 1xbfc0
359 413 m 1
 404 413 l 2
 467 413 503 434 503 487 c 0
 503 538 478 568 398 568 c 2
 359 568 l 1
 359 413 l 1
EndSplineSet
Validated: 19457
EndChar

StartChar: macron
Encoding: 175 175 110
Width: 429
VWidth: 1014
Flags: W
HStem: 561 62<67.8125 361.612>
VStem: 60 310<561.216 622.773>
LayerCount: 2
Fore
SplineSet
60 571 m 0
 60 576 62 585 65 594 c 0
 68 603 77 623 83 623 c 2
 361 623 l 2
 365 623 370 616 370 612 c 0
 370 607 367 598 364 589 c 0
 361 580 353 561 347 561 c 2
 68 561 l 2
 64 561 60 567 60 571 c 0
EndSplineSet
Validated: 19457
EndChar

StartChar: degree
Encoding: 176 176 111
Width: 386
VWidth: 0
Flags: W
HStem: 508 47<139.1 246.9> 717 47<139.1 246.9>
VStem: 62 50<582.389 689.611> 274 50<582.389 689.611>
LayerCount: 2
Fore
SplineSet
62 636 m 0
 62 702 127 764 193 764 c 0
 259 764 324 702 324 636 c 0
 324 570 259 508 193 508 c 0
 127 508 62 570 62 636 c 0
112 636 m 0
 112 593 150 555 193 555 c 0
 236 555 274 593 274 636 c 0
 274 679 236 717 193 717 c 0
 150 717 112 679 112 636 c 0
EndSplineSet
Validated: 19457
EndChar

StartChar: plusminus
Encoding: 177 177 112
Width: 640
VWidth: 1067
Flags: W
HStem: 0 60<83.1873 558.352> 323 60<83.1873 289 352 557.811>
VStem: 289 63<114.389 323 383 591.336>
LayerCount: 2
Fore
SplineSet
74 11 m 0
 74 17 76 23 82 36 c 0
 89 52 93 60 100 60 c 2
 550 60 l 2
 557 60 566 54 566 48 c 0
 566 42 565 36 559 23 c 0
 552 7 548 0 541 0 c 2
 90 0 l 2
 83 0 74 5 74 11 c 0
74 334 m 0
 74 340 76 346 82 359 c 0
 89 375 93 383 100 383 c 2
 289 383 l 1
 289 583 l 2
 289 590 295 601 301 601 c 0
 307 601 312 598 326 593 c 0
 342 587 352 582 352 575 c 2
 352 383 l 1
 550 383 l 2
 557 383 566 378 566 372 c 0
 566 366 565 360 559 347 c 0
 552 331 548 323 541 323 c 2
 352 323 l 1
 352 123 l 2
 352 116 345 105 339 105 c 0
 333 105 328 108 314 113 c 0
 298 119 289 124 289 131 c 2
 289 323 l 1
 90 323 l 2
 83 323 74 328 74 334 c 0
EndSplineSet
Validated: 19457
EndChar

StartChar: twosuperior
Encoding: 178 178 113
Width: 371
VWidth: 0
Flags: W
HStem: 311 76<127 308> 645 62<104.484 202.162>
VStem: 220 98<543.967 626.219>
LayerCount: 2
Fore
SplineSet
14 315 m 0
 14 320 17 325 19 326 c 0
 140 423 220 492 220 581 c 0
 220 615 193 645 139 645 c 0
 109 645 73 630 46 604 c 0
 41 599 37 596 32 596 c 0
 24 596 21 599 21 606 c 0
 21 622 95 707 180 707 c 0
 261 707 318 672 318 612 c 0
 318 545 264 497 194 445 c 0
 169 426 146 407 126 389 c 1
 127 387 l 9
 276 387 l 18
 299 387 306 396 316 413 c 0
 320 419 329 428 337 428 c 0
 343 428 347 425 347 420 c 0
 347 417 344 409 342 403 c 2
 308 311 l 9
 19 311 l 18
 16 311 14 313 14 315 c 0
EndSplineSet
Validated: 19457
EndChar

StartChar: threesuperior
Encoding: 179 179 114
Width: 332
VWidth: 0
Flags: W
HStem: 302 31<20.3738 130.401> 645 62<99.6572 194.773>
VStem: 200 78<594.403 637.832> 208 99<386.527 472.617>
LayerCount: 2
Fore
SplineSet
19 323 m 0xd0
 19 330 24 333 31 333 c 0
 123 333 208 361 208 437 c 0xd0
 208 481 143 492 92 492 c 0
 87 492 81 495 81 498 c 0
 81 506 88 510 109 520 c 0
 152 541 200 566 200 605 c 0
 200 630 183 645 140 645 c 0
 106 645 75 628 48 606 c 0
 45 604 39 600 35 600 c 0
 30 600 26 602 26 608 c 0
 26 630 96 707 175 707 c 0
 225 707 278 683 278 635 c 0xe0
 278 610 250 585 223 569 c 0
 207 560 198 554 184 544 c 1
 184 542 l 1
 248 534 307 501 307 450 c 0
 307 363 199 302 73 302 c 0
 43 302 19 308 19 323 c 0xd0
EndSplineSet
Validated: 19457
EndChar

StartChar: acute
Encoding: 180 180 115
Width: 429
VWidth: 0
Flags: W
HStem: 536 257
VStem: 171 173
LayerCount: 2
Fore
SplineSet
171 555 m 0
 171 557 172 563 173 566 c 10
 223 744 l 18
 230 769 288 793 309 793 c 0
 329 793 344 774 344 760 c 0
 344 751 340 737 332 725 c 26
 215 554 l 26
 208 544 202 536 190 536 c 0
 179 536 171 544 171 555 c 0
EndSplineSet
Validated: 19457
EndChar

StartChar: mu1
Encoding: 181 181 116
Width: 625
VWidth: 0
Flags: W
HStem: -285 21G<145 160> -11 55<209 309.013> 428 30<21.0175 84.431 328.018 391.431> 448 20G<185 203.5 492 510.5>
VStem: 103 129<-249.453 -164.311> 103 112<56.4489 417.717> 409 112<85.5486 417.717>
LayerCount: 2
Fore
SplineSet
21 442 m 0xe6
 21 454 25 458 38 458 c 0xe6
 52 458 93 460 118 462 c 0
 150 465 177 468 193 468 c 0xd6
 214 468 215 454 215 440 c 2
 215 109 l 2
 215 82 226 44 278 44 c 0
 324 44 372 75 409 100 c 1
 409 383 l 2
 409 404 404 412 392 418 c 0
 380 424 359 427 345 428 c 0
 334 429 328 429 328 442 c 0
 328 454 331 458 344 458 c 0xe6
 358 458 399 460 424 462 c 0
 456 465 484 468 500 468 c 0
 521 468 521 454 521 440 c 2
 521 76 l 2
 521 59 529 51 544 51 c 0
 550 51 564 52 574 54 c 0
 587 56 597 58 604 58 c 0
 610 58 613 52 613 46 c 0
 613 38 604 29 582 23 c 0
 554 15 529 6 508 -2 c 0
 496 -7 478 -10 463 -10 c 0
 438 -10 418 31 410 62 c 1
 406 64 l 1
 349 29 282 -11 225 -11 c 0
 193 -11 162 1 144 13 c 1
 142 12 l 1
 159 -56 188 -124 217 -177 c 0
 226 -193 232 -207 232 -215 c 0xda
 232 -243 169 -285 151 -285 c 0
 139 -285 103 -262 103 -250 c 2
 103 383 l 2
 103 404 97 412 85 418 c 0
 73 424 52 427 38 428 c 0
 27 429 21 429 21 442 c 0xe6
EndSplineSet
Validated: 19457
EndChar

StartChar: paragraph
Encoding: 182 182 117
Width: 595
VWidth: 1014
Flags: W
HStem: -186 43<284.593 378.319> 674 28<460.031 528.997>
VStem: 37 258<379.31 567.884> 157 111<-128.446 -47.5682> 404 43<-117.063 223 258 649.867>
LayerCount: 2
Fore
SplineSet
37 489 m 0xe8
 37 665 181 702 293 702 c 0
 300 702 345 700 365 698 c 0
 390 696 410 694 423 694 c 0
 436 694 450 695 473 698 c 0
 493 700 512 702 519 702 c 0
 525 702 529 698 529 688 c 0
 529 679 525 676 515 674 c 0
 470 666 447 661 447 643 c 2
 447 258 l 1
 479 261 508 270 530 277 c 0
 543 281 556 285 562 285 c 0
 570 285 574 278 574 273 c 0
 574 253 508 233 447 225 c 1
 447 -25 l 2
 447 -89 427 -186 309 -186 c 0
 239 -186 157 -147 157 -83 c 0
 157 -50 210 -24 244 -24 c 0
 262 -24 265 -42 268 -69 c 0xd8
 274 -119 288 -143 327 -143 c 0
 382 -143 404 -98 404 -49 c 2
 404 223 l 1
 151 226 37 324 37 489 c 0xe8
295 449 m 0xe8
 295 324 342 260 404 256 c 1
 404 650 l 1
 347 637 295 574 295 449 c 0xe8
EndSplineSet
Validated: 19457
EndChar

StartChar: cedilla
Encoding: 184 184 119
Width: 429
VWidth: 0
Flags: W
HStem: -221 30<143.819 227.328>
VStem: 153 63<-99 -47.9175> 229 63<-190.204 -141.091>
LayerCount: 2
Fore
SplineSet
117 -195 m 0
 117 -179 124 -173 133 -173 c 0
 137 -173 149 -178 159 -182 c 0
 169 -186 192 -191 199 -191 c 0
 220 -191 229 -184 229 -170 c 0
 229 -155 215 -145 194 -132 c 0
 173 -120 153 -107 153 -91 c 0
 153 -56 234 15 241 15 c 0
 246 15 255 5 255 1 c 0
 255 -2 252 -5 245 -12 c 0
 230 -26 216 -41 216 -52 c 0
 216 -63 227 -72 247 -84 c 0
 278 -103 292 -119 292 -148 c 0
 292 -184 268 -221 196 -221 c 0
 175 -221 117 -204 117 -195 c 0
EndSplineSet
Validated: 19457
EndChar

StartChar: onesuperior
Encoding: 185 185 120
Width: 244
VWidth: 0
Flags: W
HStem: 310 23<23.0088 85.209 174.791 235.991> 640 24<23.1244 79.3899>
VStem: 86 88<336.375 637.532>
LayerCount: 2
Fore
SplineSet
23 321 m 0
 23 328 26 333 32 333 c 2
 70 337 l 2
 78 338 86 339 86 349 c 2
 86 607 l 2
 86 634 71 640 37 640 c 0
 29 640 23 642 23 650 c 0
 23 660 30 663 36 664 c 0
 86 670 124 683 151 700 c 0
 154 702 160 704 164 704 c 0
 172 704 174 699 174 695 c 10
 174 349 l 18
 174 339 182 338 190 337 c 2
 228 333 l 2
 234 333 236 328 236 321 c 0
 236 313 233 310 229 310 c 0
 221 310 197 312 183 313 c 0
 167 315 143 316 130 316 c 0
 117 316 93 315 77 313 c 0
 63 312 38 310 30 310 c 0
 26 310 23 313 23 321 c 0
236 321 m 1024
EndSplineSet
Validated: 19457
EndChar

StartChar: ordmasculine
Encoding: 186 186 121
Width: 312
VWidth: 0
Flags: W
HStem: 464 25<127.836 193.961> 685 24<119.264 183.014>
VStem: 19 75<517.926 656.511> 219 75<515.914 654.303>
LayerCount: 2
Fore
SplineSet
19 586 m 0
 19 658 75 709 156 709 c 0
 237 709 294 658 294 586 c 0
 294 514 238 464 157 464 c 0
 76 464 19 514 19 586 c 0
94 604 m 0
 94 537 118 489 161 489 c 0
 199 489 219 523 219 570 c 0
 219 637 194 685 151 685 c 0
 113 685 94 651 94 604 c 0
EndSplineSet
Validated: 19457
EndChar

StartChar: guillemotright
Encoding: 187 187 122
Width: 424
VWidth: 0
Flags: W
VStem: 127 79<189.722 272.557> 280 100<191.322 270.868>
LayerCount: 2
Fore
SplineSet
53 97 m 0
 53 103 59 111 67 122 c 0
 90 153 127 208 127 231 c 0
 127 254 90 310 67 341 c 0
 59 352 53 360 53 366 c 0
 53 372 63 381 69 381 c 0
 89 381 206 265 206 231 c 0
 206 197 89 82 69 82 c 0
 63 82 53 91 53 97 c 0
149 40 m 0
 149 46 162 63 179 80 c 0
 226 128 280 208 280 231 c 0
 280 254 226 335 179 383 c 0
 162 400 149 417 149 423 c 0
 149 429 163 445 169 445 c 0
 201 445 380 273 380 231 c 0
 380 189 201 18 169 18 c 0
 163 18 149 34 149 40 c 0
EndSplineSet
Validated: 19457
EndChar

StartChar: questiondown
Encoding: 191 191 126
Width: 437
VWidth: 1014
Flags: W
HStem: -18 100<132.555 271.101> 551 156<192.215 299.785>
VStem: 41 41<108.105 203.944> 168 156<575.215 682.785> 256 52<401.964 475.407>
LayerCount: 2
Fore
SplineSet
41 167 m 0xe8
 41 223 58 280 76 303 c 0
 97 331 148 355 194 377 c 0
 246 402 256 422 256 436 c 0
 256 445 253 453 248 459 c 0
 244 464 238 471 238 479 c 0
 238 488 244 496 258 496 c 0
 286 496 308 436 308 407 c 0
 308 320 239 286 180 258 c 0
 126 232 82 206 82 145 c 0
 82 111 124 82 193 82 c 0
 244 82 308 120 339 148 c 0
 358 166 375 181 384 181 c 0
 390 181 400 175 400 170 c 0
 400 152 381 60 370 48 c 0
 345 22 291 -18 216 -18 c 0
 94 -18 41 97 41 167 c 0xe8
168 629 m 0xf0
 168 672 203 707 246 707 c 0
 289 707 324 672 324 629 c 0
 324 586 289 551 246 551 c 0
 203 551 168 586 168 629 c 0xf0
EndSplineSet
Validated: 19457
EndChar

StartChar: AE
Encoding: 198 198 133
Width: 942
VWidth: 0
GlyphClass: 3
Flags: W
HStem: 0 29<6 51.6224 131.45 174 382 449 589 756.005> 199 30<193 419> 345 29<542 678.507> 664 29<315.378 351.68 490 693.31>
VStem: 738 32<231.004 287.17 428.004 481.985>
DStem2: 96 100 131 100 0.432731 0.901523<-18.666 125.167 158.271 551.876> 490 664 363 584 0.154045 -0.988064<59.4814 293.625 323.203 418.871 449.129 621.105>
AnchorPoint: "Bottom" 494 0 basechar 0
AnchorPoint: "TopCap" 475 762 basechar 0
LayerCount: 2
Fore
SplineSet
6 0 m 1
 6 29 l 1
 53 29 77 64 96 100 c 2
 348 625 l 2
 351 632 352 638 352 646 c 0
 352 656 345 663 335 665 c 0
 326 667 315 673 315 681 c 0
 315 689 326 693 332 693 c 2
 822 693 l 2
 830 693 833 690 833 686 c 0
 833 681 830 673 828 669 c 0
 809 632 790 581 780 537 c 0
 779 531 772 526 764 526 c 0
 758 526 749 530 748 537 c 0
 743 561 735 596 720 617 c 0
 697 652 685 664 638 664 c 2
 490 664 l 1
 536 374 l 1
 604 374 l 2
 645 374 686 385 707 408 c 0
 722 424 733 445 738 469 c 0
 740 477 745 482 753 482 c 0
 764 482 770 477 770 469 c 2
 770 245 l 2
 770 237 764 231 754 231 c 0
 746 231 740 236 738 244 c 0
 734 264 723 290 709 308 c 0
 687 336 645 345 604 345 c 2
 542 345 l 1
 589 29 l 1
 662 29 l 2
 727 29 775 38 822 91 c 0
 844 116 860 141 875 174 c 0
 880 185 884 191 897 191 c 0
 907 191 915 183 915 174 c 0
 915 167 913 149 911 133 c 2
 894 0 l 1
 382 0 l 1
 382 29 l 1
 449 29 l 1
 423 199 l 1
 179 199 l 1
 131 100 l 2
 126 88 123 73 123 66 c 0
 123 49 134 29 174 29 c 1
 174 0 l 1
 6 0 l 1
193 229 m 1
 419 229 l 1
 363 584 l 1
 193 229 l 1
EndSplineSet
Validated: 19457
Ligature2: "'dlig' Discretionary Ligatures for Latin-1" A E
Ligature2: "'dlig' Discretionary Ligatures for Latin-1" A e
EndChar

StartChar: Ccedilla
Encoding: 199 199 134
Width: 731
VWidth: 0
GlyphClass: 2
LigCaretCntFixed: 1
Flags: W
HStem: -230 29<326.96 406.92> -16 29<341.214 387 407.575 474.06> 682 29<343.339 478.272>
VStem: 55 156<211.411 480.331> 333 67<-97 -47.9144> 410 67<-199.996 -140.246>
LayerCount: 2
Fore
SplineSet
55 347 m 0
 55 588 221 711 405 711 c 0
 484 711 550 693 604 664 c 0
 647 641 658 630 658 607 c 0
 658 603 657 588 656 582 c 2
 648 487 l 2
 647 478 644 472 637 472 c 0
 622 472 614 490 605 511 c 0
 576 583 534 682 405 682 c 0
 252 682 211 491 211 347 c 0
 211 203 252 13 405 13 c 0
 512 13 582 103 609 170 c 0
 618 191 627 215 642 215 c 0
 649 215 653 209 654 200 c 2
 660 98 l 2
 660 92 661 76 661 72 c 0
 661 51 650 43 607 21 c 0
 560 -3 501 -13 431 -16 c 0
 417 -16 400 -35 400 -49 c 0
 400 -64 416 -75 432 -86 c 0
 460 -106 477 -122 477 -152 c 0
 477 -191 446 -230 371 -230 c 0
 350 -230 297 -214 297 -205 c 0
 297 -189 304 -183 313 -183 c 0
 317 -183 328 -187 338 -191 c 0
 348 -195 371 -201 378 -201 c 0
 401 -201 410 -190 410 -177 c 0
 410 -161 404 -149 376 -132 c 0
 355 -120 333 -104 333 -90 c 0
 333 -69 361 -36 388 -19 c 1
 387 -16 l 1
 211 -8 55 114 55 347 c 0
EndSplineSet
Validated: 19457
Ligature2: "'ccmp' Simple Glyph Composition-1" C uni0327
EndChar

StartChar: Eth
Encoding: 208 208 143
Width: 759
VWidth: 0
Flags: W
HStem: 0 29<47 98 235 400.118> 344 41<20 98 235 396> 664 29<47 98 235 400.118>
VStem: 98 137<29 344 385 664> 553 156<215.269 478.546>
AnchorPoint: "Bottom" 312 0 basechar 0
LayerCount: 2
Fore
SplineSet
20 344 m 1
 20 385 l 1
 98 385 l 1
 98 664 l 1
 47 664 l 1
 47 693 l 1
 345 693 l 2
 590 693 709 544 709 347 c 0
 709 150 590 0 345 0 c 2
 47 0 l 1
 47 29 l 1
 98 29 l 1
 98 344 l 1
 20 344 l 1
235 29 m 1
 322 29 l 2
 519 29 553 211 553 347 c 0
 553 483 519 664 322 664 c 2
 235 664 l 1
 235 385 l 1
 396 385 l 1
 396 344 l 1
 235 344 l 1
 235 29 l 1
EndSplineSet
Validated: 19457
EndChar

StartChar: multiply
Encoding: 215 215 150
Width: 640
VWidth: 1014
Flags: W
DStem2: 276 251 320 207 0.707957 0.706255<-265.063 0 63.0082 327.364> 320 296 276 251 0.705405 -0.708804<-264.352 0 63.6394 328.849>
LayerCount: 2
Fore
SplineSet
82 454 m 0
 82 463 91 468 106 474 c 0
 116 478 125 481 131 481 c 0
 134 481 136 481 138 479 c 2
 320 296 l 1
 509 484 l 2
 512 487 517 489 522 489 c 0
 531 489 536 480 542 465 c 0
 546 455 550 446 550 440 c 0
 550 437 549 436 547 434 c 2
 365 251 l 1
 553 62 l 2
 556 59 559 54 559 49 c 0
 559 40 549 35 534 29 c 0
 524 25 516 21 510 21 c 0
 507 21 505 22 503 24 c 2
 320 207 l 1
 131 19 l 2
 128 16 122 14 117 14 c 0
 108 14 104 23 98 38 c 0
 94 48 90 56 90 62 c 0
 90 65 91 67 93 69 c 2
 276 251 l 1
 87 440 l 2
 84 443 82 449 82 454 c 0
EndSplineSet
Validated: 19457
EndChar

StartChar: Oslash
Encoding: 216 216 151
Width: 810
VWidth: 0
Flags: W
HStem: -17 30<330.303 477.652> 682 29<332.415 477.89> 738 20G<733.832 773.379>
VStem: 55 156<214.866 475.038> 600 156<219.031 478.365>
DStem2: 27 -35 59 -63 0.674755 0.738042<0.926973 178.301 294.431 780.96 896.34 1073.98>
AnchorPoint: "Bottom" 405 0 basechar 0
AnchorPoint: "TopCap" 405 762 basechar 0
LayerCount: 2
Fore
SplineSet
27 -35 m 1
 147 96 l 1
 89 159 55 246 55 347 c 0
 55 560 212 711 405 711 c 0
 492 711 571 680 633 627 c 1
 752 758 l 1
 783 729 l 1
 663 598 l 1
 721 535 756 448 756 347 c 0
 756 134 598 -17 405 -17 c 0
 318 -17 240 14 178 67 c 1
 59 -63 l 1
 27 -35 l 1
211 347 m 0
 211 285 215 230 226 182 c 1
 571 560 l 1
 543 636 492 682 405 682 c 0
 252 682 211 540 211 347 c 0
239 134 m 1
 267 58 318 13 405 13 c 0
 558 13 600 154 600 347 c 0
 600 409 596 465 585 513 c 1
 239 134 l 1
EndSplineSet
Validated: 19457
EndChar

StartChar: Thorn
Encoding: 222 222 157
Width: 643
VWidth: 0
Flags: W
HStem: 0 29<47 98 235 286> 187 29<265.113 407.953> 557 29<235 394.35> 664 29<47 98 235 286>
VStem: 98 137<29 208 233.433 557 586 664> 472 150<308.171 475.013>
AnchorPoint: "Bottom" 168 0 basechar 0
LayerCount: 2
Fore
SplineSet
47 0 m 1
 47 29 l 1
 98 29 l 1
 98 664 l 1
 47 664 l 1
 47 693 l 1
 286 693 l 1
 286 664 l 1
 235 664 l 1
 235 586 l 1
 307 586 l 2
 533 586 622 501 622 394 c 0
 622 257 493 187 346 187 c 0
 309 187 268 195 237 210 c 1
 235 208 l 1
 235 29 l 1
 286 29 l 1
 286 0 l 1
 47 0 l 1
235 245 m 1
 267 225 305 216 346 216 c 0
 429 216 472 266 472 393 c 0
 472 488 441 557 322 557 c 2
 235 557 l 1
 235 245 l 1
EndSplineSet
Validated: 19457
EndChar

StartChar: germandbls
Encoding: 223 223 158
Width: 635
VWidth: 0
Flags: W
HStem: -12 30<384.544 484.683> -6 29<35.0118 112.608> 433 29<37.4073 116> 700 58<296.441 397.508>
VStem: 116 113<26.295 433 462 564.569> 301 79<342 441.262> 432 89<595.16 667.05> 514 90<65.8244 159.108>
LayerCount: 2
Fore
SplineSet
35 8 m 0x7e
 35 17 39 23 49 23 c 2
 91 26 l 2
 104 27 116 31 116 50 c 2
 116 433 l 1
 43 433 l 2
 39 433 35 435 35 439 c 0
 35 446 43 462 54 462 c 2
 116 462 l 1
 116 611 248 758 387 758 c 0
 491 758 521 685 521 643 c 0x7e
 521 613 481 570 452 542 c 0
 418 510 380 471 380 438 c 0
 380 386 431 350 480 316 c 0
 539 275 604 226 604 143 c 0
 604 59 537 -12 435 -12 c 0
 407 -12 353 -3 318 9 c 0
 283 21 283 23 282 39 c 0
 280 77 279 135 279 156 c 0
 279 163 285 167 290 167 c 0
 304 167 311 155 315 144 c 0
 339 80 366 18 436 18 c 0
 488 18 514 52 514 100 c 0xbd
 514 158 460 197 411 230 c 0
 360 264 301 306 301 378 c 0
 301 422 334 460 364 493 c 0
 391 522 432 567 432 604 c 0
 432 658 395 700 330 700 c 0
 289 700 229 655 229 590 c 2
 229 -3 l 17
 229 -3 191 2 172 2 c 0
 153 2 128 0 105 -2 c 0
 85 -4 58 -6 45 -6 c 0
 39 -6 35 -2 35 8 c 0x7e
EndSplineSet
Validated: 19457
EndChar

StartChar: ae
Encoding: 230 230 165
Width: 753
VWidth: 0
GlyphClass: 3
Flags: W
HStem: -20 64<129.5 235.051> -12 73<505.06 608.994> 233 29<253.54 306> 408 66<175.981 293.273> 444 34<477.756 569.541>
VStem: 43 109<59.1112 145.832> 309 113<158.424 214.834 257.743 345.363> 611 114<287.73 386.139>
DStem2: 423 241 428 213 0.965932 0.258797<0 194.235>
AnchorPoint: "Bottom" 359 1 basechar 0
AnchorPoint: "Top" 406 537 basechar 0
AnchorPoint: "Acute" 406 557 basechar 0
AnchorPoint: "Grave" 406 547 basechar 0
LayerCount: 2
Fore
SplineSet
43 79 m 0xa7
 43 143 92 178 129 199 c 0
 186 231 239 247 309 262 c 1
 310 282 313 312 326 347 c 1
 307 388 271 408 213 408 c 0
 192 408 153 388 124 363 c 0
 112 352 90 334 76 334 c 0
 65 334 57 342 57 353 c 0
 57 386 184 474 250 474 c 0xb7
 316 474 357 454 386 422 c 1
 392 422 l 1
 431 456 482 478 541 478 c 0
 665 478 725 369 725 324 c 0
 725 302 713 289 693 284 c 2
 428 213 l 1
 445 114 503 61 585 61 c 0
 603 61 640 75 655 88 c 0
 671 102 681 109 692 109 c 0
 702 109 707 102 707 94 c 0
 707 60 604 -12 519 -12 c 0x6f
 451 -12 391 23 356 68 c 1
 353 68 l 1
 309 32 203 -20 157 -20 c 0
 102 -20 43 6 43 79 c 0xa7
152 108 m 0
 152 64 185 44 218 44 c 0
 252 44 310 65 344 89 c 1
 312 139 306 194 306 233 c 1
 266 225 233 213 199 192 c 0
 165 171 152 137 152 108 c 0
422 277 m 0
 422 260 422 253 423 241 c 1
 574 282 l 2
 599 289 611 297 611 329 c 0
 611 371 587 444 524 444 c 0x2f
 472 444 422 389 422 277 c 0
EndSplineSet
Validated: 19457
LCarets2: 1 393
EndChar

StartChar: ccedilla
Encoding: 231 231 166
Width: 472
VWidth: 0
GlyphClass: 2
LigCaretCntFixed: 1
Flags: W
HStem: -221 30<178.819 264.128> 444 34<217.734 305.234>
VStem: 39 118<161.682 332.073> 188 63<-99 -48.7247> 265 62<-190.155 -141.373> 340 103<367.544 412.602>
AnchorPoint: "Acute" 270 557 basechar 0
AnchorPoint: "Grave" 270 547 basechar 0
AnchorPoint: "Top" 270 537 basechar 0
LayerCount: 2
Fore
SplineSet
39 228 m 0
 39 358 135 478 276 478 c 0
 322 478 357 468 390 451 c 0
 419 436 443 415 443 399 c 0
 443 383 395 338 376 338 c 0
 361 338 351 349 340 374 c 0
 326 406 304 444 264 444 c 0
 212 444 157 386 157 274 c 0
 157 154 217 62 318 62 c 0
 345 62 377 78 391 88 c 0
 411 103 420 109 431 109 c 0
 441 109 447 102 447 94 c 0
 447 75 412 44 366 21 c 0
 344 10 323 2 294 -6 c 0
 274 -12 251 -40 251 -52 c 0
 251 -63 262 -72 282 -84 c 0
 313 -103 327 -119 327 -148 c 0
 327 -184 303 -221 231 -221 c 0
 210 -221 152 -204 152 -195 c 0
 152 -179 159 -173 168 -173 c 0
 172 -173 184 -178 194 -182 c 0
 204 -186 227 -191 234 -191 c 0
 255 -191 265 -184 265 -170 c 0
 265 -155 250 -145 229 -132 c 0
 208 -120 188 -107 188 -91 c 0
 188 -70 218 -37 243 -13 c 1
 242 -12 l 1
 130 -9 39 90 39 228 c 0
EndSplineSet
Validated: 19457
Ligature2: "'ccmp' Simple Glyph Composition-1" c uni0327
EndChar

StartChar: eth
Encoding: 240 240 175
Width: 546
VWidth: 0
Flags: W
HStem: -14 43<236.324 354.577> 736 20G<69 87 352 357>
VStem: 39 121<132.933 290.876> 411 101<137.111 304.917>
DStem2: 169 605 82 488 0.771373 0.636383<-142.873 0 95.6889 229.981>
AnchorPoint: "Bottom" 271 0 basechar 0
LayerCount: 2
Fore
SplineSet
39 204 m 0
 39 333 169 434 301 453 c 1
 304 459 l 1
 272 503 237 540 194 581 c 1
 82 488 l 2
 80 486 77 485 75 485 c 0
 67 485 62 500 62 510 c 0
 62 514 63 519 66 521 c 2
 169 605 l 1
 152 621 135 636 117 650 c 0
 75 684 46 708 46 725 c 0
 46 738 62 756 76 756 c 0
 98 756 169 714 237 661 c 1
 346 751 l 2
 348 753 351 754 353 754 c 0
 361 754 365 739 365 729 c 0
 365 725 365 721 362 719 c 2
 265 639 l 1
 304 607 342 572 369 542 c 0
 472 426 512 350 512 245 c 0
 512 88 396 -14 250 -14 c 0
 128 -14 39 78 39 204 c 0
160 270 m 0
 160 123 219 29 290 29 c 0
 360 29 411 87 411 169 c 0
 411 223 404 297 356 376 c 0
 341 401 327 422 312 422 c 0
 252 422 160 369 160 270 c 0
EndSplineSet
Validated: 19457
EndChar

StartChar: divide
Encoding: 247 247 182
Width: 640
VWidth: 1014
Flags: W
HStem: 6 135<284.028 356.379> 212 59<82.6476 558.352> 343 135<284.028 356.379>
VStem: 253 135<37.0276 109.379 374.028 446.379>
LayerCount: 2
Fore
SplineSet
74 223 m 0
 74 229 76 235 82 248 c 0
 89 264 93 271 100 271 c 2
 550 271 l 2
 557 271 566 266 566 260 c 0
 566 254 565 248 559 235 c 0
 552 219 548 212 541 212 c 2
 90 212 l 2
 83 212 74 217 74 223 c 0
253 73 m 0
 253 94 299 141 320 141 c 0
 341 141 388 94 388 73 c 0
 388 52 341 6 320 6 c 0
 299 6 253 52 253 73 c 0
253 410 m 0
 253 431 299 478 320 478 c 0
 341 478 388 431 388 410 c 0
 388 389 341 343 320 343 c 0
 299 343 253 389 253 410 c 0
EndSplineSet
Validated: 19457
EndChar

StartChar: oslash
Encoding: 248 248 183
Width: 572
VWidth: 0
Flags: W
HStem: -14 31<242.728 346.513> 445 31<225.488 329.272>
VStem: 35 125<142.209 335.527> 412 125<126.473 319.791>
DStem2: 23 -18 40 -52 0.692023 0.721875<-9.91067 110.837 219.966 503.532 612.661 734.1>
AnchorPoint: "Bottom" 286 0 basechar 0
AnchorPoint: "Top" 286 537 basechar 0
AnchorPoint: "Acute" 286 557 basechar 0
AnchorPoint: "Grave" 286 547 basechar 0
LayerCount: 2
Fore
SplineSet
21 -30 m 0
 21 -26 21 -21 23 -18 c 2
 99 61 l 1
 58 103 35 163 35 231 c 0
 35 376 140 476 286 476 c 0
 349 476 405 457 447 424 c 1
 533 514 l 2
 535 516 537 517 539 517 c 0
 547 517 552 502 552 492 c 0
 552 488 551 482 549 479 c 2
 473 401 l 1
 514 359 537 299 537 231 c 0
 537 86 432 -14 286 -14 c 0
 223 -14 167 5 125 38 c 1
 40 -52 l 2
 38 -54 36 -55 34 -55 c 0
 26 -55 21 -40 21 -30 c 0
160 268 m 0
 160 221 165 178 175 141 c 1
 384 359 l 1
 361 413 325 445 277 445 c 0
 201 445 160 371 160 268 c 0
188 103 m 1
 211 49 247 17 295 17 c 0
 371 17 412 91 412 194 c 0
 412 241 407 284 397 321 c 1
 188 103 l 1
EndSplineSet
Validated: 19457
EndChar

StartChar: thorn
Encoding: 254 254 189
Width: 613
VWidth: 0
Flags: W
HStem: -292 29<21.0145 99.6082 218.392 295.988> -12 43<248.451 391.293> 412 58<292.574 442> 713 30<21.0175 84.431> 733 20G<185 203.5>
VStem: 103 112<-259.549 5 61.1452 384.459 407 702.717> 449 117<153.489 324.891>
AnchorPoint: "Bottom" 437 0 basechar 0
LayerCount: 2
Fore
SplineSet
21 -278 m 0xee
 21 -269 25 -263 35 -263 c 10
 77 -260 l 18
 90 -259 103 -255 103 -236 c 10
 103 668 l 18
 103 689 97 697 85 703 c 0
 73 709 52 712 38 713 c 0
 27 714 21 714 21 727 c 0
 21 739 25 743 38 743 c 0xf6
 52 743 93 746 118 748 c 0
 150 751 177 753 193 753 c 0
 214 753 215 739 215 725 c 2
 215 407 l 1
 218 405 l 1
 255 431 317 470 388 470 c 0
 496 470 566 387 566 259 c 0
 566 94 422 -12 309 -12 c 0
 273 -12 244 -3 219 9 c 9
 215 5 l 9
 215 -236 l 18
 215 -255 227 -259 240 -260 c 10
 282 -263 l 18
 292 -263 296 -269 296 -278 c 0
 296 -288 292 -292 286 -292 c 0
 273 -292 246 -290 226 -288 c 0
 203 -286 178 -284 159 -284 c 0
 140 -284 115 -286 92 -288 c 0
 72 -290 45 -292 32 -292 c 0
 26 -292 21 -288 21 -278 c 0xee
215 112 m 2
 215 51 281 31 330 31 c 0
 406 31 449 110 449 205 c 0
 449 298 416 412 311 412 c 0
 282 412 242 392 215 369 c 1
 215 112 l 2
EndSplineSet
Validated: 19457
EndChar

StartChar: Aogonek
Encoding: 260 260 195
Width: 672
VWidth: 0
GlyphClass: 2
LigCaretCntFixed: 1
Flags: W
HStem: -246 103<426.809 482.66> 0 29<6 50.5281 122.88 166 614 661> 199 30<166 405> 655 29<229.213 265.092>
VStem: 350 68<-180.5 -74.7934>
DStem2: 87 100 120 96 0.321179 0.947019<-23.2106 115.916 147.539 530.811> 410 670 289 592 0.303265 -0.952906<37.6316 418.715 450.335 611.405>
AnchorPoint: "TopCap" 336 762 basechar 0
LayerCount: 2
Fore
SplineSet
6 0 m 1
 6 29 l 1
 53 29 75 63 87 100 c 2
 262 616 l 2
 264 624 266 629 266 637 c 0
 266 647 260 653 250 655 c 0
 241 657 229 663 229 671 c 0
 229 679 240 684 246 684 c 0
 298 684 342 690 361 704 c 0
 367 708 380 711 385 711 c 0
 396 711 402 695 410 670 c 2
 614 29 l 1
 661 29 l 1
 661 0 l 1
 522 0 l 2
 441 0 418 -64 418 -91 c 0
 418 -116 427 -133 452 -143 c 0
 482 -155 504 -164 504 -184 c 0
 504 -203 471 -246 451 -246 c 0
 405 -246 350 -209 350 -152 c 0
 350 -99 378 -55 427 -6 c 0
 452 19 458 40 458 43 c 0
 458 57 456 68 451 83 c 2
 415 199 l 1
 156 199 l 1
 120 96 l 2
 117 87 114 73 114 66 c 0
 114 49 126 29 166 29 c 1
 166 0 l 1
 6 0 l 1
166 229 m 1
 405 229 l 1
 289 592 l 1
 166 229 l 1
EndSplineSet
Validated: 19457
Ligature2: "'ccmp' Simple Glyph Composition-1" A uni0328
EndChar

StartChar: aogonek
Encoding: 261 261 196
Width: 544
VWidth: 0
GlyphClass: 2
LigCaretCntFixed: 1
Flags: W
HStem: -232 98<432.918 487.498> -20 64<127 230.497> 234 27<256.901 310> 408 66<175.868 279.553>
VStem: 43 109<59.1112 146.983> 310 112<82.8929 234 256.841 376.67> 363 60<-151.438 -68.6584>
AnchorPoint: "Top" 260 537 basechar 0
AnchorPoint: "Grave" 260 547 basechar 0
AnchorPoint: "Acute" 260 557 basechar 0
LayerCount: 2
Fore
SplineSet
43 79 m 0xfc
 43 143 90 181 127 202 c 0
 184 234 240 246 310 261 c 1
 310 328 l 2
 310 385 252 408 213 408 c 0
 192 408 156 389 126 365 c 0
 113 355 88 334 74 334 c 0
 63 334 57 342 57 353 c 0
 57 386 184 474 250 474 c 0
 341 474 422 429 422 348 c 2
 422 107 l 2xfc
 422 70 443 44 467 44 c 0
 479 44 490 52 501 64 c 0
 509 73 518 81 525 81 c 0
 531 81 539 74 539 63 c 0
 539 54 522 34 491 12 c 0
 450 -18 423 -53 423 -83 c 0
 423 -110 437 -126 463 -134 c 0
 496 -145 510 -150 510 -170 c 0
 510 -189 475 -232 455 -232 c 0
 400 -232 363 -177 363 -135 c 0xfa
 363 -97 386 -59 422 -19 c 1
 421 -18 l 17
 379 -18 339 13 325 55 c 1
 322 55 l 1
 278 19 195 -20 149 -20 c 0
 105 -20 43 6 43 79 c 0xfc
152 108 m 0
 152 64 185 44 218 44 c 0
 252 44 286 55 317 82 c 1
 313 101 310 123 310 155 c 2
 310 234 l 1
 270 226 231 216 197 195 c 0
 163 174 152 137 152 108 c 0
EndSplineSet
Validated: 19457
Ligature2: "'ccmp' Simple Glyph Composition-1" a uni0328
EndChar

StartChar: dcroat
Encoding: 273 273 208
Width: 614
VWidth: 0
Flags: W
HStem: -10 61<171 324.51> 427 43<224.858 361.726> 561 33<170.678 398 511 615.809> 713 30<317.018 380.431> 733 20G<481 499.5>
VStem: 47 117<133.109 304.511> 398 113<73.5414 394.739 446 561 594 702.717>
LayerCount: 2
Fore
SplineSet
47 199 m 0xee
 47 364 191 470 304 470 c 0
 337 470 375 457 396 443 c 1
 398 446 l 1
 398 561 l 1
 177 561 l 2
 173 561 168 563 168 568 c 0
 168 575 177 594 188 594 c 2
 398 594 l 1
 398 668 l 2
 398 689 393 697 381 703 c 0
 369 709 348 712 334 713 c 0
 323 714 317 714 317 727 c 0
 317 739 320 743 333 743 c 0xf6
 347 743 389 746 414 748 c 0
 446 751 473 753 489 753 c 0
 510 753 511 739 511 725 c 2
 511 594 l 1
 609 594 l 2
 613 594 618 591 618 586 c 0
 618 579 610 561 599 561 c 2
 511 561 l 1
 511 76 l 2
 511 59 519 51 534 51 c 0
 540 51 553 52 563 54 c 0
 576 56 586 58 593 58 c 0
 599 58 603 52 603 46 c 0
 603 38 593 29 571 23 c 0
 543 15 519 6 498 -2 c 0
 486 -7 468 -10 453 -10 c 0
 430 -10 409 26 402 53 c 1
 399 56 l 1
 361 29 298 -12 225 -12 c 0
 117 -12 47 71 47 199 c 0xee
164 253 m 0
 164 160 197 46 302 46 c 0
 331 46 371 66 398 89 c 1
 398 343 l 2
 398 404 333 427 284 427 c 0
 208 427 164 348 164 253 c 0
EndSplineSet
Validated: 19457
EndChar

StartChar: Eogonek
Encoding: 280 280 215
Width: 611
VWidth: 0
GlyphClass: 2
LigCaretCntFixed: 1
Flags: W
HStem: -246 103<406.284 466.66> 0 29<47 98 235 412.301> 345 29<235 353.507> 664 29<47 98 235 423.625>
VStem: 98 137<29 345 374 664> 333 63<-178.5 -77.4803> 414 31<231.017 285.113 429.841 481.996> 495 32<526.004 587.203> 543 41<134.857 190.891>
AnchorPoint: "TopCap" 304 762 basechar 0
LayerCount: 2
Fore
SplineSet
47 0 m 1
 47 29 l 1
 98 29 l 1
 98 664 l 1
 47 664 l 1
 47 693 l 1
 545 693 l 2
 553 693 557 691 557 687 c 0
 557 683 554 673 553 669 c 0
 539 626 530 582 527 537 c 0
 527 531 519 526 511 526 c 0
 505 526 496 530 495 537 c 0
 491 563 481 589 466 610 c 0
 442 645 411 664 364 664 c 2
 235 664 l 1
 235 374 l 1
 279 374 l 2
 320 374 361 385 382 408 c 0
 397 424 409 445 414 469 c 0
 416 477 421 482 429 482 c 0
 440 482 445 477 445 469 c 2
 445 245 l 2
 445 237 439 231 429 231 c 0
 421 231 416 236 414 244 c 0
 410 264 398 290 384 308 c 0
 362 336 320 345 279 345 c 2
 235 345 l 1
 235 29 l 1
 330 29 l 2
 395 29 444 38 491 91 c 0
 513 116 528 141 543 174 c 0
 548 185 553 191 566 191 c 0
 576 191 584 183 584 174 c 0
 584 167 581 153 578 133 c 2
 555 0 l 1
 483 0 l 2
 438 0 396 -60 396 -87 c 0
 396 -117 411 -133 436 -143 c 0
 466 -155 488 -164 488 -184 c 0
 488 -203 455 -246 435 -246 c 0
 389 -246 333 -207 333 -150 c 0
 333 -103 359 -60 414 -2 c 1
 413 0 l 1
 47 0 l 1
EndSplineSet
Validated: 19457
Ligature2: "'ccmp' Simple Glyph Composition-1" E uni0328
EndChar

StartChar: eogonek
Encoding: 281 281 216
Width: 487
VWidth: 0
GlyphClass: 2
LigCaretCntFixed: 1
Flags: W
HStem: -232 98<317.61 374.286> -12 72<240.21 344.722> 444 34<211.334 310.771>
VStem: 39 113<197.347 336.055> 250 60<-156 -70.3751> 351 114<292.187 396.072>
DStem2: 155 238 160 209 0.959921 0.280269<0 203.045>
AnchorPoint: "Acute" 274 557 basechar 0
AnchorPoint: "Grave" 274 547 basechar 0
AnchorPoint: "Top" 274 537 basechar 0
LayerCount: 2
Fore
SplineSet
39 232 m 0
 39 373 143 478 271 478 c 0
 414 478 465 383 465 328 c 0
 465 306 453 294 434 289 c 2
 160 209 l 1
 176 117 240 60 318 60 c 0
 355 60 382 79 398 91 c 0
 415 104 423 110 434 110 c 0
 444 110 449 103 449 95 c 0
 449 80 429 61 402 41 c 0
 358 10 310 -44 310 -86 c 0
 310 -113 324 -126 350 -134 c 0
 383 -145 396 -150 396 -170 c 0
 396 -189 362 -232 342 -232 c 0
 287 -232 250 -177 250 -135 c 0
 250 -92 284 -47 328 1 c 1
 326 3 l 1
 301 -6 279 -12 252 -12 c 0
 117 -12 39 106 39 232 c 0
152 277 m 0
 152 265 153 251 155 238 c 1
 313 284 l 2
 338 291 351 304 351 336 c 0
 351 384 329 444 257 444 c 0
 205 444 152 385 152 277 c 0
EndSplineSet
Validated: 19457
Ligature2: "'ccmp' Simple Glyph Composition-1" e uni0328
EndChar

StartChar: Hbar
Encoding: 294 294 229
Width: 781
VWidth: 0
Flags: W
HStem: 0 29<47 98 235 286 495 546 684 734> 351 29<235 546> 498 41<21 98 235 546 684 760> 664 29<47 98 235 286 495 546 684 734>
VStem: 98 137<29 351 380 498 539 664> 546 138<29 351 380 498 539 664>
LayerCount: 2
Fore
SplineSet
21 498 m 1
 21 539 l 1
 98 539 l 1
 98 664 l 1
 47 664 l 1
 47 693 l 1
 286 693 l 1
 286 664 l 1
 235 664 l 1
 235 539 l 1
 546 539 l 1
 546 664 l 1
 495 664 l 1
 495 693 l 1
 734 693 l 1
 734 664 l 1
 684 664 l 1
 684 539 l 1
 760 539 l 1
 760 498 l 1
 684 498 l 1
 684 29 l 1
 734 29 l 1
 734 0 l 1
 495 0 l 1
 495 29 l 1
 546 29 l 1
 546 351 l 1
 235 351 l 1
 235 29 l 1
 286 29 l 1
 286 0 l 1
 47 0 l 1
 47 29 l 1
 98 29 l 1
 98 498 l 1
 21 498 l 1
235 380 m 1
 546 380 l 1
 546 498 l 1
 235 498 l 1
 235 380 l 1
EndSplineSet
Validated: 19457
EndChar

StartChar: hbar
Encoding: 295 295 230
Width: 624
VWidth: 0
Flags: W
HStem: -6 29<21.0145 99.6082 218.392 295.988 328.012 405.608 547 602.985> 418 55<314.987 446.5> 566 34<0.423096 103 215 434.577> 713 30<21.0175 84.431> 733 20G<185 203.5>
VStem: 103 112<26.4515 376.451 401 566 600 702.717> 409 112<26.4515 404.311>
LayerCount: 2
Fore
SplineSet
-2 574 m 0xee
 -2 581 7 600 18 600 c 2
 103 600 l 1
 103 668 l 2
 103 689 97 697 85 703 c 0
 73 709 52 712 38 713 c 0
 27 714 21 714 21 727 c 0
 21 739 25 743 38 743 c 0xf6
 52 743 93 746 118 748 c 0
 150 751 177 753 193 753 c 0
 214 753 215 739 215 725 c 2
 215 600 l 1
 428 600 l 2
 432 600 437 597 437 592 c 0
 437 585 428 566 417 566 c 2
 215 566 l 1
 215 401 l 1
 218 398 l 1
 275 433 342 473 399 473 c 0
 494 473 521 422 521 340 c 2
 521 50 l 2
 521 31 534 27 547 26 c 2
 589 23 l 2
 599 23 603 17 603 8 c 0
 603 -2 598 -6 592 -6 c 0
 579 -6 552 -4 532 -2 c 0
 509 0 484 2 465 2 c 0
 446 2 421 0 398 -2 c 0
 378 -4 351 -6 338 -6 c 0
 332 -6 328 -2 328 8 c 0
 328 17 332 23 342 23 c 2
 384 26 l 2
 397 27 409 31 409 50 c 2
 409 353 l 2
 409 380 398 418 346 418 c 0
 300 418 252 387 215 362 c 1
 215 50 l 2
 215 31 227 27 240 26 c 2
 282 23 l 2
 292 23 296 17 296 8 c 0
 296 -2 292 -6 286 -6 c 0
 273 -6 246 -4 226 -2 c 0
 203 0 178 2 159 2 c 0
 140 2 115 0 92 -2 c 0
 72 -4 45 -6 32 -6 c 0
 26 -6 21 -2 21 8 c 0
 21 17 25 23 35 23 c 2
 77 26 l 2
 90 27 103 31 103 50 c 2
 103 566 l 1
 7 566 l 2
 3 566 -2 569 -2 574 c 0xee
EndSplineSet
Validated: 19457
EndChar

StartChar: Iogonek
Encoding: 302 302 237
Width: 333
VWidth: 0
GlyphClass: 2
LigCaretCntFixed: 1
Flags: W
HStem: -246 103<212.809 269.41> 0 29<47 98 243.841 286> 664 29<47 98 235 286>
VStem: 98 137<29 664> 136 67<-180.5 -85.8948>
AnchorPoint: "TopCap" 167 762 basechar 0
LayerCount: 2
Fore
SplineSet
47 0 m 1xe8
 47 29 l 1
 98 29 l 1
 98 664 l 1
 47 664 l 1
 47 693 l 1
 286 693 l 1
 286 664 l 1
 235 664 l 1
 235 29 l 1xf0
 286 29 l 1
 286 0 l 1
 264 0 250 -5 233 -25 c 0
 212 -48 203 -74 203 -89 c 0
 203 -116 214 -133 239 -143 c 0
 269 -155 291 -164 291 -184 c 0
 291 -203 257 -246 237 -246 c 0
 191 -246 136 -209 136 -152 c 0
 136 -113 164 -66 220 -3 c 1
 217 0 l 1
 47 0 l 1xe8
EndSplineSet
Validated: 19457
Ligature2: "'ccmp' Simple Glyph Composition-1" I uni0328
EndChar

StartChar: dotlessi
Encoding: 305 305 240
Width: 334
VWidth: 0
Flags: W
HStem: -6 29<35.0118 112.608 232.485 309.985> 428 30<35.0175 98.431> 448 20G<199 217.5>
VStem: 116 113<26.295 417.717>
AnchorPoint: "Acute" 167 557 basechar 0
AnchorPoint: "Grave" 167 547 basechar 0
AnchorPoint: "Top" 167 537 basechar 0
AnchorPoint: "Bottom" 172 0 basechar 0
LayerCount: 2
Fore
SplineSet
35 8 m 0xb0
 35 17 39 23 49 23 c 10
 91 26 l 18
 104 27 116 31 116 50 c 10
 116 383 l 18
 116 404 111 412 99 418 c 0
 87 424 66 427 52 428 c 0
 41 429 35 429 35 442 c 0
 35 454 38 458 51 458 c 0xd0
 65 458 106 460 131 462 c 0
 163 465 191 468 207 468 c 0
 228 468 229 454 229 440 c 10
 229 50 l 18
 229 31 241 27 254 26 c 10
 296 23 l 18
 306 23 310 17 310 8 c 0
 310 -2 305 -6 299 -6 c 0
 286 -6 259 -4 239 -2 c 0
 216 0 191 2 172 2 c 0
 153 2 128 0 105 -2 c 0
 85 -4 58 -6 45 -6 c 0
 39 -6 35 -2 35 8 c 0xb0
EndSplineSet
Validated: 19457
EndChar

StartChar: kgreenlandic
Encoding: 312 312 247
Width: 619
VWidth: 0
Flags: W
HStem: -16 51<522.125 584.706> -6 29<21.0145 99.6082 218.392 295.988> 428 30<21.0175 84.431> 439 30<335.033 383.597 488.818 547.967>
VStem: 103 112<26.4515 220 259 417.717> 386 162<402.5 460>
DStem2: 215 259 251 248 0.792748 0.60955<0 21.8339 125.85 226.733> 333 312 251 248 0.57728 -0.816547<4.92207 325.855>
LayerCount: 2
Fore
SplineSet
21 8 m 0x4c
 21 17 25 23 35 23 c 2
 77 26 l 2
 90 27 103 31 103 50 c 2
 103 383 l 2
 103 404 97 412 85 418 c 0
 73 424 52 427 38 428 c 0
 27 429 21 429 21 442 c 0
 21 454 25 458 38 458 c 0x6c
 52 458 93 460 118 462 c 0
 150 465 177 468 193 468 c 0
 214 468 215 454 215 440 c 2
 215 259 l 1
 341 357 l 2
 355 368 386 392 386 413 c 0
 386 429 375 437 349 439 c 0
 339 439 335 446 335 455 c 0
 335 465 340 469 346 469 c 0
 353 469 371 467 391 465 c 0
 414 462 428 461 441 461 c 0
 454 461 469 462 492 465 c 0
 512 467 530 469 537 469 c 0
 543 469 548 465 548 455 c 0
 548 446 544 442 534 440 c 0
 506 434 474 419 453 403 c 2
 333 312 l 1
 485 97 l 2
 511 60 533 44 570 35 c 0
 581 32 594 29 594 21 c 0
 594 3 554 -16 523 -16 c 0x9c
 467 -16 425 2 376 71 c 2
 251 248 l 1
 215 220 l 1
 215 50 l 2
 215 31 227 27 240 26 c 2
 282 23 l 2
 292 23 296 17 296 8 c 0
 296 -2 292 -6 286 -6 c 0
 273 -6 246 -4 226 -2 c 0
 203 0 178 2 159 2 c 0
 140 2 115 0 92 -2 c 0
 72 -4 45 -6 32 -6 c 0
 26 -6 21 -2 21 8 c 0x4c
EndSplineSet
Validated: 19457
EndChar

StartChar: Lslash
Encoding: 321 321 256
Width: 687
VWidth: 0
Flags: W
HStem: 0 29<121 172 310 486.881> 215 89<26.656 83.3958> 664 29<121 172 310 360>
VStem: 172 138<29 294 380 664>
DStem2: 310 380 310 337 0.952758 0.303731<0 153.871>
LayerCount: 2
Fore
SplineSet
12 270 m 0
 12 284 29 290 71 304 c 2
 172 337 l 1
 172 664 l 1
 121 664 l 1
 121 693 l 1
 360 693 l 1
 360 664 l 1
 310 664 l 1
 310 380 l 1
 369 399 l 2
 406 411 435 429 453 449 c 0
 472 469 482 479 491 479 c 0
 507 479 532 441 532 424 c 0
 532 410 516 403 474 390 c 2
 310 337 l 1
 310 29 l 1
 399 29 l 2
 464 29 532 49 578 103 c 0
 602 131 620 158 635 191 c 0
 640 202 645 208 658 208 c 0
 668 208 676 200 676 191 c 0
 676 184 674 170 670 150 c 2
 639 0 l 1
 121 0 l 1
 121 29 l 1
 172 29 l 1
 172 294 l 1
 132 280 114 267 93 246 c 0
 75 228 62 215 53 215 c 0
 37 215 12 253 12 270 c 0
EndSplineSet
Validated: 19457
EndChar

StartChar: lslash
Encoding: 322 322 257
Width: 410
VWidth: 0
Flags: W
HStem: -6 29<70.0145 147.515 289 344.985> 713 30<70.0175 133.431> 733 20G<234 252.5>
VStem: 151 113<26.295 360 395 420 454 702.717>
DStem2: 151 395 106 336 0.883637 0.468173<-142.268 -16.386 127.473 255.002>
LayerCount: 2
Fore
SplineSet
14 312 m 0xb0
 14 319 17 324 24 328 c 2
 151 395 l 1
 151 668 l 2
 151 689 146 697 134 703 c 0
 122 709 101 712 87 713 c 0
 76 714 70 714 70 727 c 0
 70 739 73 743 86 743 c 0xd0
 100 743 142 746 167 748 c 0
 199 751 226 753 242 753 c 0
 263 753 264 739 264 725 c 2
 264 454 l 1
 309 479 l 2
 330 490 348 504 368 526 c 0
 372 531 376 536 378 536 c 0
 388 536 401 513 401 502 c 0
 401 495 398 491 391 487 c 2
 264 420 l 1
 264 50 l 2
 264 31 276 27 289 26 c 2
 331 23 l 2
 341 23 345 17 345 8 c 0
 345 -2 340 -6 334 -6 c 0
 321 -6 294 -4 274 -2 c 0
 251 0 227 2 208 2 c 0
 189 2 164 0 141 -2 c 0
 121 -4 94 -6 81 -6 c 0
 75 -6 70 -2 70 8 c 0
 70 17 74 23 84 23 c 2
 126 26 l 2
 139 27 151 31 151 50 c 2
 151 360 l 1
 106 336 l 2
 85 325 67 310 47 288 c 0
 43 283 39 279 37 279 c 0
 27 279 14 301 14 312 c 0xb0
EndSplineSet
Validated: 19457
EndChar

StartChar: Eng
Encoding: 330 330 265
Width: 803
VWidth: 0
Flags: W
HStem: -8 31<447.893 532.725> 0 29<81 132> 663 38<377.008 503.235> 664 29<81 132>
VStem: 132 138<29 596.602 620 664> 313 90<68.8984 108.945> 597 152<202.42 513.794>
LayerCount: 2
Fore
SplineSet
81 0 m 1x6e
 81 29 l 1
 132 29 l 1
 132 664 l 1
 81 664 l 1
 81 693 l 1
 270 693 l 1x5e
 270 620 l 1
 272 618 l 1
 323 660 385 701 483 701 c 0
 662 701 749 572 749 350 c 0
 749 150 648 -8 491 -8 c 0
 397 -8 313 29 313 58 c 0
 313 70 361 171 381 171 c 0
 392 171 398 151 403 130 c 0
 418 68 442 23 488 23 c 0xae
 564 23 597 116 597 339 c 0
 597 502 567 663 442 663 c 0
 373 663 315 621 270 579 c 1
 270 0 l 1
 81 0 l 1x6e
EndSplineSet
Validated: 19457
EndChar

StartChar: eng
Encoding: 331 331 266
Width: 618
VWidth: 0
Flags: W
HStem: -292 29<338.169 400.473> -6 29<31.0145 108.49 228.485 305.985> 418 55<324.548 456.5> 428 30<31.0175 94.431>
VStem: 112 113<26.295 376.451 401 417.717> 230 83<-245.219 -185.155> 419 112<-177.529 404.311>
LayerCount: 2
Fore
SplineSet
31 8 m 0xee
 31 17 35 23 45 23 c 2
 87 26 l 2
 100 27 112 31 112 50 c 2
 112 383 l 2
 112 404 107 412 95 418 c 0xee
 83 424 62 427 48 428 c 0
 37 429 31 429 31 442 c 0
 31 454 34 458 47 458 c 0xde
 61 458 102 460 127 462 c 0
 159 465 187 468 203 468 c 0
 224 468 225 454 225 440 c 2
 225 401 l 1
 228 398 l 1
 285 433 352 473 409 473 c 0
 504 473 531 422 531 340 c 2
 531 -42 l 2
 531 -217 452 -292 364 -292 c 0
 284 -292 230 -260 230 -234 c 0
 230 -209 272 -147 295 -147 c 0
 303 -147 306 -157 313 -188 c 0
 321 -226 332 -263 371 -263 c 0
 408 -263 419 -220 419 -163 c 2
 419 353 l 2
 419 380 407 418 355 418 c 0
 309 418 262 387 225 362 c 1
 225 50 l 2
 225 31 237 27 250 26 c 2
 292 23 l 2
 302 23 306 17 306 8 c 0
 306 -2 301 -6 295 -6 c 0
 282 -6 255 -4 235 -2 c 0
 212 0 187 2 168 2 c 0
 149 2 125 0 102 -2 c 0
 82 -4 55 -6 42 -6 c 0
 36 -6 31 -2 31 8 c 0xee
EndSplineSet
Validated: 19457
EndChar

StartChar: OE
Encoding: 338 338 273
Width: 1041
VWidth: 0
Flags: W
HStem: -17 30<327.489 465.818> 1 28<665 854.575> 345 29<665 783.507> 664 29<665 853.125> 682 29<327.489 463.65>
VStem: 55 156<215.221 478.857> 527 138<58.6318 345 374 636.368> 843 32<231.004 287.17 428.004 481.985> 925 32<526.004 587.203> 973 41<134.857 190.891>
AnchorPoint: "Bottom" 597 0 basechar 0
AnchorPoint: "TopCap" 597 762 basechar 0
LayerCount: 2
Fore
SplineSet
55 347 m 0xa7c0
 55 560 199 711 392 711 c 0xafc0
 410 711 440 708 463 703 c 0
 493 697 514 693 538 693 c 2
 975 693 l 2
 983 693 986 691 986 687 c 0
 986 683 984 673 983 669 c 0
 969 626 960 582 957 537 c 0
 957 531 949 526 941 526 c 0
 935 526 926 530 925 537 c 0
 921 563 911 589 896 610 c 0
 872 645 840 664 793 664 c 2
 665 664 l 1
 665 374 l 1
 709 374 l 2
 750 374 791 385 812 408 c 0
 827 424 838 445 843 469 c 0
 845 477 850 482 858 482 c 0
 869 482 875 477 875 469 c 2
 875 245 l 2
 875 237 869 231 859 231 c 0
 851 231 845 236 843 244 c 0
 839 264 828 290 814 308 c 0
 792 336 750 345 709 345 c 2
 665 345 l 1
 665 29 l 1
 760 29 l 2
 825 29 874 38 921 91 c 0
 943 116 958 141 973 174 c 0
 978 185 983 191 996 191 c 0
 1006 191 1014 183 1014 174 c 0
 1014 167 1011 153 1008 133 c 2
 985 0 l 1
 538 1 l 2x77c0
 514 1 493 -2 463 -8 c 0
 440 -13 410 -17 392 -17 c 0
 199 -17 55 134 55 347 c 0xa7c0
211 347 m 0
 211 154 255 13 392 13 c 0
 488 13 527 70 527 114 c 2
 527 581 l 2
 527 625 488 682 392 682 c 0
 255 682 211 540 211 347 c 0
EndSplineSet
Validated: 19457
LCarets2: 1 596
Ligature2: "'dlig' Discretionary Ligatures for Latin-1" O e
Ligature2: "'dlig' Discretionary Ligatures for Latin-1" O E
EndChar

StartChar: oe
Encoding: 339 339 274
Width: 820
VWidth: 0
Flags: W
HStem: -14 31<229.706 317.844> -12 72<573.547 676.72> 445 31<216.261 301.732 547.916 641.732>
VStem: 35 125<122.27 340.275> 372 113<238.61 352.503> 684 114<292.187 396.072>
DStem2: 488 238 493 209 0.959921 0.280269<0 203.045>
AnchorPoint: "Bottom" 436 0 basechar 0
AnchorPoint: "Top" 436 537 basechar 0
AnchorPoint: "Acute" 436 557 basechar 0
AnchorPoint: "Grave" 436 547 basechar 0
LayerCount: 2
Fore
SplineSet
35 231 m 0xbc
 35 376 132 476 267 476 c 0
 337 476 392 451 433 404 c 1
 436 404 l 1
 482 452 540 478 604 478 c 0
 747 478 798 383 798 328 c 0
 798 306 786 294 767 289 c 2
 493 209 l 1
 509 117 573 60 651 60 c 0
 688 60 715 79 731 91 c 0
 748 104 756 110 767 110 c 0
 777 110 782 103 782 95 c 0
 782 61 670 -12 585 -12 c 0x7c
 521 -12 473 14 436 56 c 1
 433 56 l 1
 392 12 334 -14 266 -14 c 0
 131 -14 35 86 35 231 c 0xbc
485 277 m 0
 485 265 486 251 488 238 c 1
 646 284 l 2
 671 291 684 304 684 336 c 0
 684 384 662 444 590 444 c 0
 538 444 485 385 485 277 c 0
160 268 m 0
 160 121 201 17 273 17 c 0xbc
 337 17 372 91 372 194 c 0
 372 341 331 445 259 445 c 0
 195 445 160 371 160 268 c 0
EndSplineSet
Validated: 19457
LCarets2: 1 434
Ligature2: "'dlig' Discretionary Ligatures for Latin-1" o e
EndChar

StartChar: Scedilla
Encoding: 350 350 285
Width: 605
VWidth: 0
GlyphClass: 2
LigCaretCntFixed: 1
Flags: W
HStem: -230 29<237.291 317.007> -16 29<248.629 297> 682 29<255.336 367.705>
VStem: 89 121<503.666 621.084> 243 67<-97 -51.2744> 320 67<-200.075 -140.246> 438 124<81.259 203.243>
LayerCount: 2
Fore
SplineSet
65 68 m 0
 65 72 66 86 66 94 c 2
 73 223 l 2
 73 234 80 239 87 239 c 0
 105 239 115 221 121 204 c 0
 158 102 213 13 308 13 c 0
 398 13 438 65 438 129 c 0
 438 214 377 257 274 311 c 0
 172 364 89 415 89 538 c 0
 89 634 160 711 316 711 c 0
 366 711 426 699 466 681 c 0
 511 661 520 651 520 628 c 0
 520 620 519 605 513 572 c 0
 508 548 500 511 490 511 c 0
 478 511 471 522 462 543 c 0
 434 607 388 682 316 682 c 0
 240 682 210 638 210 577 c 0
 210 494 269 454 349 412 c 0
 480 343 562 289 562 171 c 0
 562 52 473 -4 356 -14 c 0
 333 -16 310 -34 310 -52 c 0
 310 -64 326 -75 342 -86 c 0
 370 -106 387 -122 387 -152 c 0
 387 -191 356 -230 281 -230 c 0
 260 -230 207 -214 207 -205 c 0
 207 -189 214 -183 223 -183 c 0
 227 -183 239 -187 249 -191 c 0
 259 -195 282 -201 289 -201 c 0
 312 -201 320 -190 320 -177 c 0
 320 -161 314 -149 286 -132 c 0
 265 -120 243 -104 243 -90 c 0
 243 -69 273 -41 299 -19 c 1
 297 -16 l 1
 239 -14 168 2 116 23 c 0
 71 42 65 45 65 68 c 0
EndSplineSet
Validated: 19457
Ligature2: "'ccmp' Simple Glyph Composition-1" S uni0327
Substitution2: "'ss01' Romanian Variant Forms-1" Scommaaccent
EndChar

StartChar: scedilla
Encoding: 351 351 286
Width: 440
VWidth: 0
GlyphClass: 2
LigCaretCntFixed: 1
Flags: W
HStem: -221 30<152.569 236.328> 445 30<170.731 274.786>
VStem: 62 86<332.796 416.595> 162 63<-99 -49.0469> 238 63<-190.204 -141.091> 319 90<52.8475 137.965>
LayerCount: 2
Fore
SplineSet
47 156 m 0
 47 163 53 167 58 167 c 0
 72 167 78 155 83 144 c 0
 110 80 157 18 228 18 c 0
 295 18 319 53 319 89 c 0
 319 137 280 156 205 189 c 0
 129 223 62 256 62 349 c 0
 62 417 115 475 230 475 c 0
 268 475 309 466 340 454 c 0
 375 440 381 434 381 418 c 0
 381 414 380 402 376 380 c 0
 372 358 366 328 361 328 c 0
 352 328 347 334 340 348 c 0
 319 389 283 445 229 445 c 0
 172 445 148 422 148 382 c 0
 148 336 191 311 248 285 c 0
 344 241 409 204 409 128 c 0
 409 46 351 0 267 -10 c 0
 247 -12 225 -39 225 -52 c 0
 225 -63 236 -72 256 -84 c 0
 287 -103 301 -119 301 -148 c 0
 301 -184 277 -221 205 -221 c 0
 184 -221 126 -204 126 -195 c 0
 126 -179 133 -173 142 -173 c 0
 146 -173 157 -178 167 -182 c 0
 177 -186 201 -191 208 -191 c 0
 229 -191 238 -184 238 -170 c 0
 238 -155 224 -145 203 -132 c 0
 182 -120 162 -107 162 -91 c 0
 162 -70 191 -37 218 -14 c 1
 216 -11 l 1
 181 -9 121 1 89 11 c 0
 54 22 51 23 50 39 c 0
 48 77 47 135 47 156 c 0
EndSplineSet
Validated: 19457
Ligature2: "'ccmp' Simple Glyph Composition-1" s uni0327
Substitution2: "'ss01' Romanian Variant Forms-1" scommaaccent
EndChar

StartChar: Tcommaaccent
Encoding: 354 354 289
Width: 761
VWidth: 0
GlyphClass: 2
LigCaretCntFixed: 1
Flags: W
HStem: -230 29<302.46 383.817> 0 29<253 304 441 492> 470 21G<24 35.5 672 684> 664 29<186.615 304 441 573.817>
VStem: 304 137<29 664> 308 67<-91.3854 -48.9021> 386 66<-199.996 -140.246> 658 41<470.005 571.293>
LayerCount: 2
Fore
SplineSet
12 485 m 0xf9
 12 492 14 505 15 513 c 2
 42 693 l 1
 733 693 l 2
 741 693 744 691 744 687 c 0
 744 683 742 673 741 669 c 0
 724 623 705 534 699 484 c 0
 698 476 690 470 678 470 c 0
 666 470 659 477 658 485 c 0
 654 513 646 566 622 604 c 0
 599 640 568 664 509 664 c 2
 441 664 l 1
 441 29 l 1xf9
 492 29 l 1
 492 0 l 1
 435 0 l 2
 420 0 375 -30 375 -52 c 0
 375 -64 391 -75 407 -86 c 0
 435 -106 452 -122 452 -152 c 0
 452 -191 421 -230 346 -230 c 0
 325 -230 272 -214 272 -205 c 0
 272 -189 280 -183 289 -183 c 0
 293 -183 304 -187 314 -191 c 0
 324 -195 347 -201 354 -201 c 0
 377 -201 386 -190 386 -177 c 0
 386 -161 380 -149 352 -132 c 0
 331 -120 308 -104 308 -90 c 0xf7
 308 -61 355 -23 384 -2 c 1
 383 0 l 1
 253 0 l 1
 253 29 l 1
 304 29 l 1
 304 664 l 1
 256 664 l 2
 200 664 156 641 117 599 c 0
 91 571 70 526 52 487 c 0
 47 476 42 470 29 470 c 0
 19 470 12 476 12 485 c 0xf9
EndSplineSet
Validated: 19457
Ligature2: "'ccmp' Simple Glyph Composition-1" T uni0327
Substitution2: "'ss01' Romanian Variant Forms-1" uni021A
EndChar

StartChar: tcommaaccent
Encoding: 355 355 290
Width: 419
VWidth: 0
GlyphClass: 2
LigCaretCntFixed: 1
Flags: W
HStem: -221 30<167.354 252.128> 433 29<207 387.016>
VStem: 95 112<65.4446 433> 168 47<565.85 631.941> 177 62<-99 -47.3527> 253 62<-190.155 -141.091>
LayerCount: 2
Fore
SplineSet
14 439 m 0xe4
 14 452 19 455 30 459 c 0
 63 472 93 495 120 526 c 0
 139 548 159 584 168 620 c 0
 171 631 181 632 194 632 c 0
 205 632 215 629 215 614 c 0xd4
 215 606 214 600 213 581 c 0
 211 554 207 489 207 462 c 1
 381 462 l 2
 385 462 389 459 389 455 c 0
 389 448 381 433 370 433 c 2
 207 433 l 1
 207 116 l 2xe4
 207 85 218 51 273 51 c 0
 303 51 333 71 349 84 c 0
 357 90 363 96 369 96 c 0
 377 96 392 80 392 75 c 0
 392 58 333 13 283 -4 c 0
 263 -10 239 -39 239 -52 c 0
 239 -63 251 -72 271 -84 c 0
 302 -103 315 -119 315 -148 c 0
 315 -184 291 -221 219 -221 c 0
 198 -221 141 -204 141 -195 c 0
 141 -179 148 -173 157 -173 c 0
 161 -173 172 -178 182 -182 c 0
 192 -186 215 -191 222 -191 c 0
 243 -191 253 -184 253 -170 c 0
 253 -155 239 -145 218 -132 c 0
 197 -120 177 -107 177 -91 c 0xcc
 177 -70 205 -36 232 -13 c 1
 231 -12 l 17
 140 -12 95 29 95 104 c 2
 95 433 l 1
 21 433 l 2
 17 433 14 435 14 439 c 0xe4
EndSplineSet
Validated: 19457
Ligature2: "'ccmp' Simple Glyph Composition-1" t uni0327
Substitution2: "'ss01' Romanian Variant Forms-1" uni021B
EndChar

StartChar: Tbar
Encoding: 358 358 293
Width: 761
VWidth: 0
Flags: W
HStem: 0 29<253 304 441 492> 344 41<179 304 441 566> 470 21G<24 35.5 672 684> 664 29<186.615 304 441 573.817>
VStem: 304 137<29 344 385 664> 658 41<470.005 571.293>
LayerCount: 2
Fore
SplineSet
12 485 m 0
 12 492 14 505 15 513 c 2
 42 693 l 1
 733 693 l 2
 741 693 744 691 744 687 c 0
 744 683 742 673 741 669 c 0
 724 623 705 534 699 484 c 0
 698 476 690 470 678 470 c 0
 666 470 659 477 658 485 c 0
 654 513 646 566 622 604 c 0
 599 640 568 664 509 664 c 2
 441 664 l 1
 441 385 l 1
 566 385 l 1
 566 344 l 1
 441 344 l 1
 441 29 l 1
 492 29 l 1
 492 0 l 1
 253 0 l 1
 253 29 l 1
 304 29 l 1
 304 344 l 1
 179 344 l 1
 179 385 l 1
 304 385 l 1
 304 664 l 1
 256 664 l 2
 200 664 156 641 117 599 c 0
 91 571 70 526 52 487 c 0
 47 476 42 470 29 470 c 0
 19 470 12 476 12 485 c 0
EndSplineSet
Validated: 19457
EndChar

StartChar: tbar
Encoding: 359 359 294
Width: 419
VWidth: 0
Flags: W
HStem: -12 63<220.989 314.196> 271 33<16.4073 95 207 386.577> 433 29<207 387.016>
VStem: 95 112<65.4446 271 304 433> 168 47<565.85 631.941>
LayerCount: 2
Fore
SplineSet
14 278 m 0xf0
 14 285 22 304 33 304 c 2
 95 304 l 1
 95 433 l 1xf0
 21 433 l 2
 17 433 14 435 14 439 c 0
 14 452 19 455 30 459 c 0
 63 472 93 495 120 526 c 0
 139 548 159 584 168 620 c 0
 171 631 181 632 194 632 c 0
 205 632 215 629 215 614 c 0xe8
 215 606 214 600 213 581 c 0
 211 554 207 489 207 462 c 1
 381 462 l 2
 385 462 389 459 389 455 c 0
 389 448 381 433 370 433 c 2
 207 433 l 1
 207 304 l 1
 380 304 l 2
 384 304 389 301 389 296 c 0
 389 289 380 271 369 271 c 2
 207 271 l 1
 207 116 l 2
 207 85 218 51 273 51 c 0
 303 51 333 71 349 84 c 0
 357 90 363 96 369 96 c 0
 377 96 392 80 392 75 c 0
 392 56 310 -12 231 -12 c 0
 140 -12 95 29 95 104 c 2
 95 271 l 1
 22 271 l 2
 18 271 14 273 14 278 c 0xf0
EndSplineSet
Validated: 19457
EndChar

StartChar: Uogonek
Encoding: 370 370 305
Width: 708
VWidth: 0
GlyphClass: 2
LigCaretCntFixed: 1
Flags: W
HStem: -246 103<405.505 463.66> -17 30<307.348 397.619> 664 29<43 94 231 282 479 540.228 626.72 682>
VStem: 94 137<113.908 664> 330 67<-180.5 -84.1169> 562 34<117.956 638.368>
AnchorPoint: "TopCap" 377 762 basechar 0
LayerCount: 2
Fore
SplineSet
43 664 m 1
 43 693 l 1
 282 693 l 1
 282 664 l 1
 231 664 l 1
 231 176 l 2
 231 60 299 13 368 13 c 0
 500 13 562 99 562 206 c 2
 562 600 l 2
 562 650 528 664 479 664 c 1
 479 693 l 1
 682 693 l 1
 682 664 l 1
 645 664 596 645 596 599 c 2
 596 192 l 2
 596 87 533 25 455 -5 c 0
 422 -18 397 -69 397 -89 c 0
 397 -116 408 -133 433 -143 c 0
 463 -155 485 -164 485 -184 c 0
 485 -203 452 -246 432 -246 c 0
 386 -246 330 -209 330 -152 c 0
 330 -116 354 -70 399 -17 c 1
 398 -15 l 1
 389 -16 380 -17 370 -17 c 0
 199 -17 94 48 94 243 c 2
 94 664 l 1
 43 664 l 1
EndSplineSet
Validated: 19457
Ligature2: "'ccmp' Simple Glyph Composition-1" U uni0328
EndChar

StartChar: uogonek
Encoding: 371 371 306
Width: 625
VWidth: 0
GlyphClass: 2
LigCaretCntFixed: 1
Flags: W
HStem: -232 98<485.61 542.286> -11 55<177.5 309.013> 428 30<21.0175 84.431 328.018 391.431> 448 20G<185 203.5 492 510.5>
VStem: 103 112<57.6886 417.717> 409 112<85.5486 417.717> 418 60<-156 -70.7692>
AnchorPoint: "Top" 301 537 basechar 0
AnchorPoint: "Grave" 301 547 basechar 0
AnchorPoint: "Acute" 301 557 basechar 0
LayerCount: 2
Fore
SplineSet
21 442 m 0xea
 21 454 25 458 38 458 c 0xea
 52 458 93 460 118 462 c 0
 150 465 177 468 193 468 c 0xda
 214 468 215 454 215 440 c 2
 215 109 l 2
 215 82 226 44 278 44 c 0
 324 44 372 75 409 100 c 1
 409 383 l 2
 409 404 404 412 392 418 c 0
 380 424 359 427 345 428 c 0
 334 429 328 429 328 442 c 0
 328 454 331 458 344 458 c 0xec
 358 458 399 460 424 462 c 0
 456 465 484 468 500 468 c 0
 521 468 521 454 521 440 c 2
 521 76 l 2xdc
 521 59 529 51 544 51 c 0
 550 51 564 52 574 54 c 0
 587 56 597 58 604 58 c 0
 610 58 613 52 613 46 c 0
 613 36 596 27 574 21 c 0
 564 18 558 16 547 11 c 0
 506 -10 478 -60 478 -86 c 0
 478 -113 492 -126 518 -134 c 0
 551 -145 564 -150 564 -170 c 0
 564 -189 530 -232 510 -232 c 0
 455 -232 418 -177 418 -135 c 0
 418 -101 441 -60 483 -11 c 1
 481 -8 l 1
 475 -9 469 -10 463 -10 c 0
 438 -10 418 31 410 62 c 1
 406 64 l 1
 349 29 282 -11 225 -11 c 0
 130 -11 103 40 103 122 c 2
 103 383 l 2
 103 404 97 412 85 418 c 0
 73 424 52 427 38 428 c 0
 27 429 21 429 21 442 c 0xea
EndSplineSet
Validated: 19457
Ligature2: "'ccmp' Simple Glyph Composition-1" u uni0328
EndChar

StartChar: longs
Encoding: 383 383 318
Width: 406
VWidth: 0
Flags: W
HStem: -6 29<35.0118 112.608 232.485 309.985> 433 29<37.4073 116> 720 39<224.199 330>
VStem: 116 113<26.295 433 462 655.418>
LayerCount: 2
Fore
SplineSet
35 8 m 0
 35 17 39 23 49 23 c 2
 91 26 l 2
 104 27 116 31 116 50 c 2
 116 433 l 1
 43 433 l 2
 39 433 35 435 35 439 c 0
 35 446 43 462 54 462 c 2
 116 462 l 1
 116 544 l 2
 116 719 225 759 313 759 c 0
 347 759 395 749 395 738 c 0
 395 707 367 643 344 643 c 0
 332 643 321 656 312 675 c 0
 302 696 287 720 260 720 c 0
 235 720 212 698 212 656 c 0
 212 644 216 605 219 585 c 0
 224 556 229 510 229 491 c 2
 229 50 l 2
 229 31 241 27 254 26 c 2
 296 23 l 2
 306 23 310 17 310 8 c 0
 310 -2 305 -6 299 -6 c 0
 286 -6 259 -4 239 -2 c 0
 216 0 191 2 172 2 c 0
 153 2 128 0 105 -2 c 0
 85 -4 58 -6 45 -6 c 0
 39 -6 35 -2 35 8 c 0
EndSplineSet
Validated: 19457
EndChar

StartChar: florin
Encoding: 402 402 319
Width: 805
VWidth: 0
Flags: W
HStem: -185 56<78.8031 225.087> 427 35<219.962 355 483 647.809> 703 56<567.745 705.697>
DStem2: 293 67 478 427 0.169656 0.985503<99.0381 365.3 421.508 525.568>
LayerCount: 2
Fore
SplineSet
-6 -107 m 0
 -6 -89 37 -59 60 -59 c 0
 80 -59 97 -80 115 -103 c 0
 130 -123 150 -129 173 -129 c 0
 231 -129 267 -83 293 67 c 2
 355 427 l 1
 226 427 l 2
 222 427 218 430 218 435 c 0
 218 443 225 462 236 462 c 2
 361 462 l 1
 394 652 544 759 663 759 c 0
 746 759 790 692 790 681 c 0
 790 663 748 633 725 633 c 0
 705 633 687 654 669 677 c 0
 654 697 634 703 611 703 c 0
 553 703 517 658 506 593 c 2
 483 462 l 1
 642 462 l 2
 646 462 650 459 650 454 c 0
 650 446 642 427 631 427 c 2
 478 427 l 1
 455 285 426 132 402 65 c 0
 345 -91 256 -185 122 -185 c 0
 39 -185 -6 -118 -6 -107 c 0
EndSplineSet
Validated: 19457
EndChar

StartChar: uni0237
Encoding: 567 567 326
Width: 375
VWidth: 0
Flags: W
HStem: -292 29<94.1694 156.499> 430 30<94.0175 157.431> 450 20G<258 276.5>
VStem: -14 83<-245.219 -185.155> 175 113<-177.529 419.717>
AnchorPoint: "Acute" 222 557 basechar 0
AnchorPoint: "Grave" 222 547 basechar 0
AnchorPoint: "Top" 222 542 basechar 0
LayerCount: 2
Fore
SplineSet
-14 -234 m 0xb8
 -14 -209 29 -147 52 -147 c 0
 60 -147 62 -157 69 -188 c 0
 77 -226 88 -263 127 -263 c 0
 164 -263 175 -220 175 -163 c 2
 175 385 l 2
 175 406 170 414 158 420 c 0
 146 426 125 429 111 430 c 0
 100 431 94 431 94 444 c 0
 94 456 97 460 110 460 c 0xd8
 124 460 165 462 190 464 c 0
 222 467 250 470 266 470 c 0
 287 470 288 456 288 442 c 2
 288 -42 l 2
 288 -217 208 -292 120 -292 c 0
 40 -292 -14 -260 -14 -234 c 0xb8
EndSplineSet
Validated: 19457
EndChar

StartChar: uni02BB
Encoding: 699 699 327
Width: 209
VWidth: -4
Flags: W
HStem: 537 289
VStem: 21 79<611.5 729.028>
LayerCount: 2
Fore
SplineSet
21 635 m 0
 21 703 41 734 74 769 c 0
 100 797 142 826 157 826 c 0
 163 826 173 813 173 806 c 0
 173 802 166 796 154 788 c 0
 124 766 100 745 100 702 c 0
 100 677 115 663 138 643 c 0
 161 623 170 614 170 603 c 0
 170 595 163 585 145 577 c 0
 130 571 119 563 109 553 c 0
 98 542 88 537 77 537 c 0
 57 537 21 588 21 635 c 0
EndSplineSet
Validated: 19457
EndChar

StartChar: afii57929
Encoding: 700 700 328
Width: 209
VWidth: -4
Flags: W
HStem: 537 289
VStem: 110 79<633.972 751.5>
LayerCount: 2
Fore
SplineSet
37 557 m 0
 37 561 44 567 56 575 c 0
 86 597 110 618 110 661 c 0
 110 686 95 700 72 720 c 0
 49 740 40 749 40 760 c 0
 40 768 47 778 65 786 c 0
 80 792 91 800 101 810 c 0
 112 821 122 826 133 826 c 0
 153 826 189 775 189 728 c 0
 189 660 169 629 136 594 c 0
 110 566 68 537 53 537 c 0
 47 537 37 550 37 557 c 0
EndSplineSet
Validated: 19457
EndChar

StartChar: afii64937
Encoding: 701 701 329
Width: 209
VWidth: -4
Flags: W
HStem: 710 116<115.088 162.305>
VStem: 37 56<599.434 728>
LayerCount: 2
Fore
SplineSet
37 697 m 0
 37 759 88 826 135 826 c 0
 150 826 159 813 165 799 c 0
 170 786 174 779 183 770 c 0
 194 759 198 750 198 743 c 0
 198 727 183 720 153 710 c 0
 117 698 93 676 93 642 c 0
 93 617 102 595 117 573 c 0
 124 563 128 556 128 552 c 0
 128 545 114 537 108 537 c 0
 93 537 72 570 57 603 c 0
 45 630 37 661 37 697 c 0
EndSplineSet
Validated: 19457
EndChar

StartChar: circumflex
Encoding: 710 710 330
Width: 429
VWidth: 0
Flags: W
HStem: 539 223
VStem: 66 297<546 557>
LayerCount: 2
Fore
SplineSet
66 555 m 0
 66 557 68 563 70 566 c 2
 169 725 l 2
 186 753 202 762 215 762 c 0
 228 762 243 753 260 725 c 2
 359 566 l 2
 361 563 363 557 363 555 c 0
 363 546 357 539 347 539 c 0
 339 539 331 545 322 554 c 2
 216 659 l 1
 214 659 l 1
 107 554 l 2
 98 545 91 539 83 539 c 0
 73 539 66 546 66 555 c 0
EndSplineSet
Validated: 19457
EndChar

StartChar: caron
Encoding: 711 711 331
Width: 429
VWidth: 0
Flags: W
HStem: 539 223
VStem: 66 297<744 755>
LayerCount: 2
Fore
SplineSet
66 746 m 0
 66 755 73 762 83 762 c 0
 91 762 98 756 107 747 c 2
 214 642 l 1
 216 642 l 1
 322 747 l 2
 331 756 339 762 347 762 c 0
 357 762 363 755 363 746 c 0
 363 744 361 738 359 735 c 2
 260 576 l 2
 243 548 228 539 215 539 c 0
 202 539 186 548 169 576 c 2
 70 735 l 2
 68 738 66 744 66 746 c 0
EndSplineSet
Validated: 19457
EndChar

StartChar: breve
Encoding: 728 728 335
Width: 429
VWidth: 0
Flags: W
HStem: 538 79<152.483 277.517>
VStem: 89 40<642.765 718.99> 301 40<642.765 718.959>
LayerCount: 2
Fore
SplineSet
89 682 m 0
 89 705 94 719 109 719 c 0
 122 719 126 706 129 689 c 0
 134 658 150 617 215 617 c 0
 280 617 296 658 301 689 c 0
 304 706 307 719 320 719 c 0
 335 719 341 705 341 682 c 0
 341 603 289 538 215 538 c 0
 141 538 89 603 89 682 c 0
EndSplineSet
Validated: 19457
EndChar

StartChar: dotaccent
Encoding: 729 729 336
Width: 429
VWidth: 0
Flags: W
HStem: 548 156<173.645 256.355>
VStem: 137 156<584.645 667.355>
LayerCount: 2
Fore
SplineSet
137 626 m 0
 137 653 188 704 215 704 c 0
 242 704 293 653 293 626 c 0
 293 599 242 548 215 548 c 0
 188 548 137 599 137 626 c 0
EndSplineSet
Validated: 19457
EndChar

StartChar: ring
Encoding: 730 730 337
Width: 429
VWidth: 0
Flags: W
HStem: 539 47<168.634 261.104> 717 47<168.634 259.912>
VStem: 103 46<606.088 697.472> 280 47<604.896 697.472>
LayerCount: 2
Fore
SplineSet
103 651 m 0
 103 702 164 764 215 764 c 0
 266 764 327 702 327 651 c 0
 327 600 266 539 215 539 c 0
 164 539 103 600 103 651 c 0
149 651 m 0
 149 618 182 586 215 586 c 0
 248 586 280 618 280 651 c 0
 280 684 248 717 215 717 c 0
 182 717 149 684 149 651 c 0
EndSplineSet
Validated: 19457
EndChar

StartChar: ogonek
Encoding: 731 731 338
Width: 429
VWidth: 0
Flags: W
HStem: -232 98<200.61 257.286>
VStem: 133 60<-156 -65.0457>
LayerCount: 2
Fore
SplineSet
133 -135 m 0
 133 -94 159 -45 220 17 c 9
 239 0 l 17
 207 -38 193 -65 193 -86 c 0
 193 -113 207 -126 233 -134 c 0
 266 -145 279 -150 279 -170 c 0
 279 -189 245 -232 225 -232 c 0
 170 -232 133 -177 133 -135 c 0
EndSplineSet
Validated: 19457
EndChar

StartChar: tilde
Encoding: 732 732 339
Width: 429
VWidth: 0
Flags: W
HStem: 567 71<233.862 331.589> 609 71<97.4344 196.464>
LayerCount: 2
Fore
SplineSet
27 582 m 0x80
 27 605 103 680 158 680 c 0x40
 186 680 211 670 235 659 c 0
 260 648 287 638 317 638 c 0x80
 331 638 345 644 356 657 c 0
 364 666 377 680 386 680 c 0x40
 393 680 402 674 402 665 c 0
 402 642 326 567 271 567 c 0x80
 243 567 219 577 195 588 c 0
 170 599 143 609 113 609 c 0x40
 99 609 84 603 73 590 c 0
 65 581 53 567 44 567 c 0
 37 567 27 573 27 582 c 0x80
EndSplineSet
Validated: 19457
EndChar

StartChar: hungarumlaut
Encoding: 733 733 340
Width: 429
VWidth: 0
Flags: W
HStem: 536 257<270 275>
VStem: 117 307
LayerCount: 2
Fore
SplineSet
117 555 m 0
 117 557 118 563 119 566 c 10
 175 744 l 18
 183 769 234 793 255 793 c 0
 275 793 279 775 279 761 c 0
 279 752 272 739 263 723 c 10
 161 554 l 18
 155 544 148 536 136 536 c 0
 125 536 117 544 117 555 c 0
262 555 m 0
 262 557 263 563 264 566 c 10
 320 744 l 18
 328 769 378 793 399 793 c 0
 419 793 424 775 424 761 c 0
 424 752 417 739 408 723 c 10
 306 554 l 18
 300 544 293 536 281 536 c 0
 270 536 262 544 262 555 c 0
EndSplineSet
Validated: 19457
EndChar

StartChar: uni032F
Encoding: 815 815 362
Width: 0
VWidth: 0
Flags: W
HStem: -146 80<-277.517 -152.483>
VStem: -341 40<-246.959 -174.189> -129 40<-246.99 -174.189>
AnchorPoint: "Bottom" -215 0 mark 0
LayerCount: 2
Fore
SplineSet
-341 -210 m 0
 -341 -131 -289 -66 -215 -66 c 0
 -141 -66 -89 -131 -89 -210 c 0
 -89 -233 -94 -247 -109 -247 c 0
 -122 -247 -126 -235 -129 -218 c 0
 -134 -187 -150 -146 -215 -146 c 0
 -280 -146 -296 -187 -301 -218 c 0
 -304 -235 -307 -247 -320 -247 c 0
 -335 -247 -341 -233 -341 -210 c 0
EndSplineSet
Validated: 19457
Colour: ffff00
EndChar

StartChar: uni0360
Encoding: 864 864 364
Width: 0
VWidth: 0
Flags: W
HStem: 645 29<-286.15 247.15>
VStem: -406 115<546.966 643.894> 252 115<675.106 771.761>
AnchorPoint: "DblMark" 0 537 mark 0
LayerCount: 2
Fore
SplineSet
-406 558 m 0
 -406 577 -405 659 -403 667 c 0
 -401 675 -398 682 -385 682 c 0
 -377 682 -341 679 -326 678 c 0
 -299 676 -261 674 -251 674 c 10
 219 674 l 18
 251 674 252 687 252 750 c 0
 252 770 257 776 279 776 c 0
 294 776 367 776 367 761 c 0
 367 742 366 660 364 652 c 0
 362 644 359 637 346 637 c 0
 338 637 302 639 287 640 c 0
 260 642 222 645 212 645 c 10
 -258 645 l 2
 -290 645 -291 632 -291 569 c 0
 -291 549 -296 542 -318 542 c 0
 -333 542 -406 543 -406 558 c 0
EndSplineSet
Validated: 19457
Colour: ffff00
EndChar

StartChar: uni0361
Encoding: 865 865 365
Width: 0
VWidth: 0
Flags: W
HStem: 666 29<-212.407 173.142>
VStem: -406 115<546.966 654.114> 252 115<546.966 654.114>
AnchorPoint: "DblMark" 0 537 mark 0
LayerCount: 2
Fore
SplineSet
-406 558 m 0
 -406 577 -405 659 -403 667 c 0
 -401 675 -398 682 -385 683 c 0
 -253 695 -163 695 -20 695 c 24
 123 695 214 695 346 683 c 0
 359 682 362 675 364 667 c 0
 366 659 367 577 367 558 c 0
 367 543 294 542 279 542 c 0
 257 542 252 549 252 569 c 0
 252 600 250 626 246 639 c 0
 241 655 225 657 209 658 c 0
 121 666 69 666 -20 666 c 0
 -109 666 -160 666 -248 658 c 0
 -264 657 -280 655 -285 639 c 0
 -289 626 -291 600 -291 569 c 0
 -291 549 -296 542 -318 542 c 0
 -333 542 -406 543 -406 558 c 0
EndSplineSet
Validated: 19457
Colour: ffff00
EndChar

StartChar: afii10051
Encoding: 1026 1026 368
Width: 664
VWidth: 0
Flags: W
HStem: -223 35<284.52 408.982> 0 29<81 132 270 320> 440 39<282.744 474> 652 41<47 132 270 538>
VStem: 132 138<29 431.699 458 652 693 835.994> 460 138<-82.0938 390.174>
LayerCount: 2
Fore
SplineSet
47 652 m 1
 47 693 l 1
 132 693 l 1
 132 813 l 2
 132 834 133 836 154 836 c 2
 247 836 l 2
 268 836 270 834 270 813 c 2
 270 693 l 1
 538 693 l 1
 538 652 l 1
 270 652 l 1
 270 458 l 1
 272 456 l 1
 312 471 357 479 413 479 c 0
 535 479 598 417 598 322 c 2
 598 18 l 2
 598 -130 487 -223 341 -223 c 0
 292 -223 224 -194 224 -171 c 0
 224 -159 232 -152 242 -152 c 0
 254 -152 264 -158 280 -168 c 0
 302 -183 330 -188 348 -188 c 0
 438 -188 460 -121 460 -14 c 2
 460 318 l 2
 460 382 420 440 346 440 c 0
 314 440 294 433 270 424 c 1
 270 29 l 1
 320 29 l 1
 320 0 l 1
 81 0 l 1
 81 29 l 1
 132 29 l 1
 132 652 l 1
 47 652 l 1
EndSplineSet
Validated: 19457
EndChar

StartChar: afii10053
Encoding: 1028 1028 370
Width: 657
VWidth: 0
Flags: W
HStem: -17 30<277.303 382.325> 170 29<397 435 581.612 614> 294 29<397 435 581.14 614> 411 43<300.724 404.831> 524 30<397 435 580.909 614> 682 29<272.274 382.815>
VStem: 55 156<205.75 319.278 356 488.25>
AnchorPoint: "TopCap" 346 752 basechar 0
AnchorPoint: "DblMark" 657 762 basechar 0
AnchorPoint: "Yerik" 480 742 basechar 0
AnchorPoint: "CyrTopCap" 346 752 basechar 0
LayerCount: 2
Fore
SplineSet
55 347 m 0
 55 547 166 711 343 711 c 0
 448 711 543 667 585 554 c 9
 614 554 l 25
 614 524 l 25
 397 524 l 25
 397 554 l 25
 435 554 l 17
 435 618 407 682 330 682 c 0
 256 682 211 624 211 543 c 2
 211 356 l 1
 214 355 l 1
 265 433 339 454 389 454 c 0
 493 454 563 402 586 323 c 9
 614 323 l 25
 614 294 l 25
 397 294 l 25
 397 323 l 25
 435 323 l 17
 428 364 411 411 350 411 c 0
 289 411 211 337 211 217 c 2
 211 152 l 2
 211 80 256 13 330 13 c 0
 404 13 435 74 435 170 c 9
 397 170 l 25
 397 199 l 25
 614 199 l 25
 614 170 l 25
 585 170 l 17
 551 45 448 -17 343 -17 c 0
 166 -17 55 147 55 347 c 0
EndSplineSet
Validated: 19457
EndChar

StartChar: afii10054
Encoding: 1029 1029 371
Width: 665
VWidth: 0
Flags: W
HStem: -23 43<302.459 437.465> 35 95<123 212.099> 474 21G<527.5 556> 681 29<311.628 407.518>
VStem: 107 154<425.959 602.811> 453 133<482.25 598.625> 468 160<68.2646 254.007>
AnchorPoint: "TopCap" 339 752 basechar 0
AnchorPoint: "DblMark" 665 762 basechar 0
AnchorPoint: "Yerik" 484 742 basechar 0
AnchorPoint: "CyrTopCap" 340 752 basechar 0
LayerCount: 2
Fore
SplineSet
6 27 m 1xfa
 32 47 55 71 67 87 c 0
 80 105 103 130 143 130 c 0
 190 130 224 102 254 76 c 0
 284 50 327 20 378 20 c 0
 453 20 468 78 468 167 c 0xfa
 468 261 428 312 322 326 c 0
 242 336 107 366 107 512 c 0
 107 643 220 710 340 710 c 0
 473 710 586 646 586 510 c 0
 586 484 568 474 544 474 c 0
 511 474 453 482 453 494 c 0xfc
 453 609 448 681 353 681 c 0
 288 681 261 603 261 527 c 0
 261 402 305 370 408 354 c 0
 539 333 628 290 628 167 c 0
 628 26 540 -23 399 -23 c 0
 357 -23 305 -12 269 11 c 0
 237 32 219 35 205 35 c 0
 190 35 168 16 150 -6 c 0
 125 -38 110 -43 90 -43 c 0
 59 -43 17 1 6 27 c 1xfa
EndSplineSet
Validated: 19457
EndChar

StartChar: afii10058
Encoding: 1033 1033 375
Width: 867
VWidth: 0
Flags: W
HStem: 0 29<12 62 197.848 251 317 368 506 697.627> 664 29<317 368 506 557>
VStem: 53 137<30.8292 263.714> 368 138<29 368 396.898 518 564.627 664> 700 132<29.46 296.576>
AnchorPoint: "TopCap" 436 752 basechar 0
LayerCount: 2
Fore
SplineSet
12 0 m 1
 12 29 l 1
 62 29 l 1
 54 70 53 113 53 158 c 0
 53 283 127 353 201 412 c 0
 273 469 368 555 368 629 c 2
 368 664 l 1
 317 664 l 1
 317 693 l 1
 557 693 l 1
 557 664 l 1
 506 664 l 1
 506 440 l 2
 506 401 554 374 591 357 c 0
 625 341 672 336 717 336 c 2
 808 336 l 2
 832 336 832 322 832 311 c 2
 832 26 l 2
 832 10 824 0 808 0 c 2
 317 0 l 1
 317 29 l 1
 368 29 l 1
 368 518 l 1
 363 519 l 1
 342 489 322 467 293 437 c 0
 222 364 190 274 190 153 c 0
 190 104 194 66 200 29 c 1
 251 29 l 1
 251 0 l 1
 12 0 l 1
506 29 m 1
 670 29 l 2
 697 29 700 42 700 63 c 2
 700 263 l 2
 700 276 700 288 684 297 c 0
 675 302 648 309 634 312 c 0
 588 323 542 341 508 369 c 1
 506 368 l 1
 506 29 l 1
EndSplineSet
Validated: 19457
EndChar

StartChar: afii10059
Encoding: 1034 1034 376
Width: 965
VWidth: 0
Flags: W
HStem: 0 29<47 98 235 286 416 467 604 796.627> 664 29<47 98 235 286 416 467 604 655>
VStem: 98 137<29 503 568 664> 467 137<29 130 195 368 396.898 664> 799 132<29.46 296.576>
DStem2: 235 568 235 503 0.528156 -0.849147<55.1946 439.264>
AnchorPoint: "TopCap" 361 752 basechar 0
LayerCount: 2
Fore
SplineSet
47 0 m 1
 47 29 l 1
 98 29 l 1
 98 664 l 1
 47 664 l 1
 47 693 l 1
 286 693 l 1
 286 664 l 1
 235 664 l 1
 235 568 l 1
 467 195 l 1
 467 664 l 1
 416 664 l 1
 416 693 l 1
 655 693 l 1
 655 664 l 1
 604 664 l 1
 604 440 l 2
 604 401 652 374 689 357 c 0
 723 341 770 336 815 336 c 2
 907 336 l 2
 931 336 931 322 931 311 c 2
 931 26 l 2
 931 10 922 0 906 0 c 2
 416 0 l 1
 416 29 l 1
 467 29 l 1
 467 130 l 1
 235 503 l 1
 235 29 l 1
 286 29 l 1
 286 0 l 1
 47 0 l 1
604 29 m 1
 769 29 l 2
 796 29 799 42 799 63 c 2
 799 263 l 2
 799 276 799 288 783 297 c 0
 774 302 747 309 733 312 c 0
 687 323 641 341 607 369 c 1
 604 368 l 1
 604 29 l 1
EndSplineSet
Validated: 19457
EndChar

StartChar: afii10060
Encoding: 1035 1035 377
Width: 673
VWidth: 0
Flags: W
HStem: 0 29<81 132 270 320 409 460 598 648> 440 39<282.744 474> 652 41<47 132 270 538>
VStem: 132 138<29 431.699 458 652 693 835.994> 460 138<29 390.174>
AnchorPoint: "TopCap" 204 878 basechar 0
LayerCount: 2
Fore
SplineSet
47 652 m 1
 47 693 l 1
 132 693 l 1
 132 813 l 2
 132 834 133 836 154 836 c 2
 247 836 l 2
 268 836 270 834 270 813 c 2
 270 693 l 1
 538 693 l 1
 538 652 l 1
 270 652 l 1
 270 458 l 1
 272 456 l 1
 312 471 357 479 413 479 c 0
 535 479 598 417 598 322 c 2
 598 29 l 1
 648 29 l 1
 648 0 l 1
 409 0 l 1
 409 29 l 1
 460 29 l 1
 460 318 l 2
 460 382 420 440 346 440 c 0
 314 440 294 433 270 424 c 1
 270 29 l 1
 320 29 l 1
 320 0 l 1
 81 0 l 1
 81 29 l 1
 132 29 l 1
 132 652 l 1
 47 652 l 1
EndSplineSet
Validated: 19457
EndChar

StartChar: afii10145
Encoding: 1039 1039 381
Width: 702
VWidth: 0
Flags: W
HStem: 0 29<47 98 235 336.996 365.004 467 604 655> 664 29<47 98 235 286 416 467 604 655>
VStem: 98 137<29 664> 260 182<-167.984 -96> 337 28<-42.3319 -0.291069> 467 137<29 664>
AnchorPoint: "TopCap" 350 752 basechar 0
AnchorPoint: "DblMark" 702 762 basechar 0
AnchorPoint: "Yerik" 503 742 basechar 0
AnchorPoint: "CyrTopCap" 351 752 basechar 0
LayerCount: 2
Fore
SplineSet
47 0 m 1xec
 47 29 l 1
 98 29 l 1
 98 664 l 1
 47 664 l 1
 47 693 l 1
 286 693 l 1
 286 664 l 1
 235 664 l 1
 235 29 l 1
 467 29 l 1
 467 664 l 1
 416 664 l 1
 416 693 l 1
 655 693 l 1
 655 664 l 1
 604 664 l 1
 604 29 l 1
 655 29 l 1
 655 0 l 1
 384 0 l 2
 371 0 365 -5 365 -13 c 0xec
 365 -23 371 -32 380 -44 c 2
 430 -108 l 2
 436 -116 442 -127 442 -133 c 0
 442 -137 440 -141 436 -147 c 2
 377 -226 l 2
 371 -234 363 -244 351 -244 c 0
 339 -244 331 -234 325 -226 c 2
 266 -147 l 2
 262 -141 260 -137 260 -133 c 0xf4
 260 -127 266 -116 272 -108 c 2
 322 -44 l 2
 331 -32 337 -23 337 -13 c 0
 337 -5 331 0 318 0 c 2
 47 0 l 1xec
EndSplineSet
Validated: 19457
EndChar

StartChar: afii10017
Encoding: 1040 1040 382
Width: 634
VWidth: 0
Flags: W
HStem: 0 29<31 75.6919 193.308 238 349 399 537 588> 648 45<381.286 399> 664 29<317 359.999 537 588>
VStem: 51 72<314.092 414.722> 57 156<142.285 249.398> 118 33<65.7405 124.522> 399 138<29 485 497.203 648>
AnchorPoint: "TopCap" 447 752 basechar 0
AnchorPoint: "DblMark" 635 762 basechar 0
AnchorPoint: "Yerik" 518 742 basechar 0
AnchorPoint: "CyrTopCap" 447 752 basechar 0
LayerCount: 2
Fore
SplineSet
31 0 m 1xa6
 31 29 l 1
 54 32 77 42 89 52 c 0
 110 71 118 92 118 119 c 1xa6
 79 129 57 162 57 196 c 0xaa
 57 223 71 255 107 270 c 1
 107 273 l 1
 85 295 51 332 51 387 c 0xb2
 51 455 102 506 215 547 c 0
 297 576 360 632 360 654 c 0
 360 660 358 664 343 664 c 2
 317 664 l 1
 317 693 l 1
 588 693 l 1
 588 664 l 1
 537 664 l 1
 537 29 l 1
 588 29 l 1
 588 0 l 1
 349 0 l 1
 349 29 l 1
 399 29 l 1
 399 485 l 1
 397 486 l 1
 391 473 385 459 372 443 c 0
 350 413 327 396 304 378 c 0
 287 365 268 350 251 333 c 0
 221 303 209 287 186 255 c 1
 202 241 213 221 213 196 c 0xaa
 213 162 190 129 151 119 c 1
 151 92 159 71 180 52 c 0
 192 42 215 32 238 29 c 1
 238 0 l 1
 31 0 l 1xa6
123 321 m 0xd2
 123 305 128 285 135 274 c 1
 144 274 154 273 162 270 c 1
 184 300 196 315 224 344 c 0
 244 365 266 385 288 401 c 0
 312 419 328 433 348 456 c 0
 378 493 399 527 399 574 c 2
 399 648 l 1
 394 648 l 1
 371 605 320 563 272 538 c 0
 227 514 191 487 159 440 c 0
 132 400 123 351 123 321 c 0xd2
EndSplineSet
Validated: 19457
EndChar

StartChar: afii10018
Encoding: 1041 1041 383
Width: 608
VWidth: 0
Flags: W
HStem: 0 29<47 98 235 415.627> 664 29<47 98 235 363.296>
VStem: 98 137<29 361 389.06 664> 418 132<29.46 288.576> 454 32<494.002 556.481>
AnchorPoint: "TopCap" 309 752 basechar 0
AnchorPoint: "DblMark" 608 762 basechar 0
AnchorPoint: "Yerik" 428 742 basechar 0
AnchorPoint: "CyrTopCap" 307 752 basechar 0
LayerCount: 2
Fore
SplineSet
47 0 m 1xf0
 47 29 l 1
 98 29 l 1
 98 664 l 1
 47 664 l 1
 47 693 l 1
 521 693 l 18
 529 693 533 691 533 687 c 0
 533 682 529 673 527 669 c 0
 501 618 489 548 486 503 c 0
 486 497 476 494 470 494 c 0
 465 494 455 496 454 503 c 0xe8
 448 533 436 574 413 606 c 0
 388 640 351 664 304 664 c 10
 235 664 l 1
 235 439 l 2
 235 392 283 364 320 347 c 0
 354 331 390 326 435 326 c 2
 526 326 l 2
 550 326 550 311 550 300 c 2
 550 26 l 2
 550 10 541 0 525 0 c 2
 47 0 l 1xf0
235 29 m 1
 388 29 l 2
 415 29 418 42 418 63 c 2
 418 255 l 2xf0
 418 268 418 280 402 289 c 0
 393 294 378 299 364 302 c 0
 318 313 272 333 238 362 c 1
 235 361 l 1
 235 29 l 1
EndSplineSet
Validated: 19457
EndChar

StartChar: afii10019
Encoding: 1042 1042 384
Width: 604
VWidth: 0
Flags: W
HStem: 0 29<35 86 224 403.375> 399 39<319.654 398.248> 450 35<255.906 301.33> 681 29<276.296 375.706>
VStem: 86 138<29 342 367.378 411 446 562.788> 406 132<29.4959 265.381> 420 113<467.253 629.678>
DStem2: 226 445 224 411 0.795829 0.605522<0 45.89>
AnchorPoint: "TopCap" 333 752 basechar 0
AnchorPoint: "DblMark" 604 762 basechar 0
AnchorPoint: "Yerik" 435 742 basechar 0
AnchorPoint: "CyrTopCap" 331 752 basechar 0
LayerCount: 2
Fore
SplineSet
35 0 m 1xfc
 35 29 l 1
 86 29 l 1
 86 441 l 2
 86 631 213 710 333 710 c 0
 468 710 533 639 533 548 c 0xfa
 533 454 463 399 388 399 c 0
 338 399 311 422 292 442 c 0
 287 448 283 450 280 450 c 0
 277 450 274 449 268 444 c 2
 224 411 l 1
 224 372 279 339 305 326 c 0
 340 309 378 307 423 307 c 2
 514 307 l 2
 538 307 538 292 538 280 c 2
 538 28 l 2
 538 11 530 0 514 0 c 2
 35 0 l 1xfc
224 29 m 1
 376 29 l 2
 403 29 406 43 406 66 c 2
 406 229 l 2xfc
 406 260 381 270 352 278 c 0
 313 288 260 309 226 343 c 1
 224 342 l 1
 224 29 l 1
226 445 m 1
 272 480 l 2
 276 483 282 485 285 485 c 0
 289 485 294 484 299 477 c 0
 314 457 329 438 360 438 c 0
 398 438 420 477 420 544 c 0xfa
 420 617 398 681 329 681 c 0
 264 681 224 630 224 552 c 2
 224 446 l 1
 226 445 l 1
EndSplineSet
Validated: 19457
EndChar

StartChar: afii10020
Encoding: 1043 1043 385
Width: 553
VWidth: 0
Flags: W
HStem: 0 29<47 98 235 286> 468 21G<464.5 470> 664 29<47 98 235 359.117>
VStem: 98 137<29 664> 451 32<468.002 537.121>
AnchorPoint: "TopCap" 308 752 basechar 0
AnchorPoint: "DblMark" 554 762 basechar 0
AnchorPoint: "Yerik" 423 742 basechar 0
AnchorPoint: "CyrTopCap" 307 752 basechar 0
LayerCount: 2
Fore
SplineSet
47 0 m 17
 47 29 l 1
 98 29 l 1
 98 664 l 1
 47 664 l 1
 47 693 l 1
 529 693 l 18
 537 693 540 691 540 687 c 0
 540 682 537 673 535 669 c 0
 508 616 486 522 483 477 c 0
 483 471 473 468 467 468 c 0
 462 468 452 470 451 477 c 0
 445 507 430 570 407 602 c 0
 382 636 354 664 307 664 c 2
 235 664 l 9
 235 29 l 25
 286 29 l 25
 286 0 l 25
 47 0 l 17
EndSplineSet
Validated: 19457
EndChar

StartChar: afii10021
Encoding: 1044 1044 386
Width: 680
VWidth: 0
Flags: W
HStem: 0 29<189.165 417> 664 29<202 274 415 481>
VStem: 593 32<-173.998 -113.607>
DStem2: 122 29 97 -164 0.266715 0.963775<8.26818 555.118> 415 664 285 618 0.219695 -0.975569<0 16.3158 79.8768 619.925>
AnchorPoint: "TopCap" 343 752 basechar 0
AnchorPoint: "DblMark" 681 762 basechar 0
AnchorPoint: "Yerik" 506 742 basechar 0
AnchorPoint: "CyrTopCap" 343 752 basechar 0
LayerCount: 2
Fore
SplineSet
12 20 m 0
 12 27 18 29 26 29 c 2
 122 29 l 17
 285 618 l 1
 274 664 l 1
 202 664 l 25
 202 693 l 25
 481 693 l 25
 481 664 l 25
 415 664 l 1
 558 29 l 9
 658 29 l 2
 666 29 669 26 669 22 c 0
 669 17 666 9 664 5 c 0
 637 -48 628 -120 625 -165 c 0
 625 -171 615 -174 609 -174 c 0
 604 -174 594 -172 593 -165 c 0
 587 -135 573 -92 550 -60 c 0
 525 -26 483 0 436 0 c 2
 248 0 l 2
 201 0 161 -25 136 -59 c 0
 113 -91 101 -141 97 -164 c 0
 96 -171 89 -174 82 -174 c 0
 76 -174 65 -171 65 -165 c 0
 60 -116 42 -61 22 -14 c 0
 17 -1 12 12 12 20 c 0
153 29 m 17
 417 29 l 1
 299 556 l 1
 153 29 l 17
EndSplineSet
Validated: 19457
EndChar

StartChar: afii10022
Encoding: 1045 1045 387
Width: 657
VWidth: 0
Flags: W
HStem: -17 30<277.303 382.325> 171 29<397 435 581.612 614> 301 76<463 576> 366 64<277 415.5> 524 30<397 435 580.909 614> 682 29<272.274 382.815>
VStem: 55 156<205.75 337.227 358 488.25>
AnchorPoint: "TopCap" 346 752 basechar 0
AnchorPoint: "DblMark" 657 762 basechar 0
AnchorPoint: "Yerik" 480 742 basechar 0
AnchorPoint: "CyrTopCap" 346 752 basechar 0
LayerCount: 2
Fore
SplineSet
55 347 m 0xde
 55 547 166 711 343 711 c 0
 448 711 543 667 585 554 c 9
 614 554 l 25
 614 524 l 25
 397 524 l 25
 397 554 l 25
 435 554 l 17
 435 618 407 682 330 682 c 0
 256 682 211 624 211 544 c 2
 211 358 l 1
 214 357 l 1
 273 402 349 430 399 430 c 0xde
 432 430 462 418 492 401 c 0
 526 382 566 377 576 377 c 0
 588 377 591 374 591 369 c 0
 591 360 553 327 523 313 c 0
 505 305 479 301 463 301 c 0xee
 438 301 402 319 378 336 c 0
 354 353 330 366 299 366 c 0
 255 366 211 340 211 265 c 2
 211 152 l 2
 211 80 256 13 330 13 c 0
 404 13 435 75 435 171 c 9
 397 171 l 25
 397 200 l 25
 614 200 l 25
 614 171 l 25
 585 171 l 17
 551 46 448 -17 343 -17 c 0
 166 -17 55 147 55 347 c 0xde
EndSplineSet
Validated: 19457
EndChar

StartChar: afii10024
Encoding: 1046 1046 388
Width: 929
VWidth: 0
Flags: W
HStem: 0 29<34 71.4379 222 273 345 396 534 584 657 708 858.562 896> 362 30<344.649 396 534 585.244> 587 124<116.764 185.061 744.644 813.236> 664 29<345 396 534 584>
VStem: 70 152<29 132.968> 396 138<29 362 392 664> 708 152<29 132.968>
CounterMasks: 1 0e
AnchorPoint: "TopCap" 463 752 basechar 0
AnchorPoint: "DblMark" 930 762 basechar 0
AnchorPoint: "Yerik" 688 742 basechar 0
AnchorPoint: "CyrTopCap" 465 752 basechar 0
LayerCount: 2
Fore
SplineSet
20 674 m 1xee
 54 696 88 711 130 711 c 0xee
 195 711 221 644 234 590 c 0
 254 508 303 392 396 392 c 1
 396 664 l 1
 345 664 l 1
 345 693 l 1
 584 693 l 1
 584 664 l 1
 534 664 l 1xde
 534 392 l 1
 627 392 675 508 695 590 c 0
 708 644 735 711 800 711 c 0
 842 711 876 696 910 674 c 1
 879 635 868 604 860 551 c 0
 859 542 854 533 846 533 c 0
 838 533 833 539 828 547 c 0
 813 568 795 587 771 587 c 0
 743 587 726 570 714 538 c 0
 687 462 651 407 607 381 c 1
 607 374 l 1
 657 353 711 317 746 281 c 0
 816 211 851 129 860 29 c 1
 896 29 l 1
 896 0 l 1
 657 0 l 1
 657 29 l 1
 708 29 l 1
 708 146 690 227 649 284 c 0
 620 325 588 362 534 362 c 1
 534 29 l 1
 584 29 l 1
 584 0 l 1
 345 0 l 1
 345 29 l 1
 396 29 l 1
 396 362 l 1
 342 362 310 325 281 284 c 0
 240 227 222 146 222 29 c 1
 222 29 253 29 273 29 c 1
 273 0 l 1
 34 0 l 1
 34 29 l 1
 70 29 l 1
 79 129 114 211 184 281 c 0
 219 317 273 353 323 374 c 1
 323 381 l 1
 279 407 242 462 215 538 c 0
 203 570 187 587 159 587 c 0
 135 587 117 568 102 547 c 0
 97 539 91 533 83 533 c 0
 75 533 70 542 69 551 c 0
 61 604 51 635 20 674 c 1xee
EndSplineSet
Validated: 19457
EndChar

StartChar: afii10025
Encoding: 1047 1047 389
Width: 689
VWidth: 0
Flags: W
HStem: -24 43<319.736 431.424> 52 96<128 214.63> 280 121<238.159 316.614> 330 29<334.658 417.739> 680 29<317.659 416.168>
VStem: 122 138<484.203 589.131> 470 137<442.782 601.039> 477 150<73.7591 249.809>
AnchorPoint: "TopCap" 367 752 basechar 0
AnchorPoint: "DblMark" 689 762 basechar 0
AnchorPoint: "Yerik" 497 742 basechar 0
AnchorPoint: "CyrTopCap" 367 752 basechar 0
LayerCount: 2
Fore
SplineSet
12 46 m 1xdd
 38 66 61 90 73 105 c 0
 86 123 108 148 148 148 c 0
 195 148 226 121 253 91 c 0
 283 59 322 19 369 19 c 0
 454 19 477 96 477 174 c 0
 477 287 430 330 373 330 c 0xdd
 358 330 341 322 323 307 c 0
 315 300 289 280 280 280 c 0
 272 280 243 296 223 311 c 0
 206 323 190 335 190 341 c 0
 190 347 221 368 233 376 c 0
 245 384 270 401 280 401 c 0xed
 289 401 311 386 320 380 c 0
 330 372 358 359 373 359 c 0
 455 359 470 461 470 537 c 0
 470 606 443 680 367 680 c 0
 290 680 260 599 260 524 c 0
 260 493 248 482 222 482 c 2
 145 482 l 2
 124 482 122 490 122 504 c 0
 122 619 229 709 368 709 c 0
 517 709 607 623 607 520 c 0xde
 607 416 517 370 442 351 c 9
 442 343 l 17
 560 321 627 265 627 166 c 0
 627 20 509 -24 407 -24 c 0
 371 -24 306 -3 271 24 c 0
 241 48 225 52 211 52 c 0
 196 52 174 34 156 11 c 0
 131 -21 113 -23 93 -23 c 0
 62 -23 21 19 12 46 c 1xdd
EndSplineSet
Validated: 19457
AlternateSubs2: "'salt' Stylistic Alternatives for Old Cyrillic-1" uniA640
Substitution2: "'ss08' Sharp Cyrillic Zemlya-1" uniA640
EndChar

StartChar: afii10026
Encoding: 1048 1048 390
Width: 702
VWidth: 0
Flags: W
HStem: 0 29<47 98 235 286 416 467 604 655> 664 29<47 98 235 286 416 467 604 655>
VStem: 98 137<29 130 195 664> 467 137<29 503 568 664>
DStem2: 235 195 235 130 0.528156 0.849147<0 384.07>
AnchorPoint: "TopCap" 351 752 basechar 0
AnchorPoint: "DblMark" 702 762 basechar 0
AnchorPoint: "Yerik" 503 742 basechar 0
AnchorPoint: "CyrTopCap" 351 752 basechar 0
LayerCount: 2
Fore
SplineSet
47 0 m 1
 47 29 l 1
 98 29 l 1
 98 664 l 1
 47 664 l 1
 47 693 l 1
 286 693 l 1
 286 664 l 1
 235 664 l 1
 235 195 l 1
 467 568 l 1
 467 664 l 1
 416 664 l 1
 416 693 l 1
 655 693 l 1
 655 664 l 1
 604 664 l 1
 604 29 l 1
 655 29 l 1
 655 0 l 1
 416 0 l 1
 416 29 l 1
 467 29 l 1
 467 503 l 1
 235 130 l 1
 235 29 l 1
 286 29 l 1
 286 0 l 1
 47 0 l 1
EndSplineSet
Validated: 19457
EndChar

StartChar: afii10028
Encoding: 1050 1050 392
Width: 661
VWidth: 0
Flags: W
HStem: 0 29<47 98 235 286 379 430 584 634> 351 29<235 352.301> 664 29<47 98 235 286 366 408 562 608>
VStem: 98 137<29 351 380 664> 408 154<539.603 664> 430 154<29 263.853>
AnchorPoint: "TopCap" 322 752 basechar 0
AnchorPoint: "DblMark" 661 762 basechar 0
AnchorPoint: "Yerik" 478 742 basechar 0
AnchorPoint: "CyrTopCap" 322 752 basechar 0
LayerCount: 2
Fore
SplineSet
47 0 m 1xf4
 47 29 l 1
 98 29 l 1
 98 664 l 1
 47 664 l 1
 47 693 l 1
 286 693 l 1
 286 664 l 1
 235 664 l 1
 235 380 l 1
 268 380 l 2
 310 380 345 383 372 407 c 0
 408 439 408 502 408 569 c 2
 408 664 l 1
 366 664 l 1
 366 693 l 1
 608 693 l 1
 608 664 l 1
 562 664 l 1xf8
 561 620 549 536 515 483 c 0
 474 419 441 392 372 371 c 1
 372 367 l 1
 465 356 554 327 577 225 c 0
 582 202 584 155 584 113 c 2
 584 29 l 1
 634 29 l 1
 634 0 l 1
 379 0 l 1
 379 29 l 1
 430 29 l 1
 430 125 l 2
 430 155 428 218 423 242 c 0
 410 307 386 351 282 351 c 2
 235 351 l 1
 235 29 l 1
 286 29 l 1
 286 0 l 1
 47 0 l 1xf4
EndSplineSet
Validated: 19457
EndChar

StartChar: afii10029
Encoding: 1051 1051 393
Width: 615
VWidth: 0
Flags: W
HStem: 0 29<27 78 213.28 267 345 396 533 584> 664 29<278 330.708 467 518>
VStem: 61 136<31.2273 272.359> 332 135<596.651 664>
DStem2: 467 664 343 524 0.104929 -0.99448<0 23.9694 126.216 624.045>
AnchorPoint: "TopCap" 395 752 basechar 0
AnchorPoint: "DblMark" 615 762 basechar 0
AnchorPoint: "Yerik" 490 742 basechar 0
AnchorPoint: "CyrTopCap" 396 752 basechar 0
LayerCount: 2
Fore
SplineSet
27 0 m 1
 27 29 l 1
 78 29 l 1
 66 70 61 120 61 165 c 0
 61 274 122 358 184 412 c 0
 247 467 332 561 332 625 c 0
 332 639 331 649 329 664 c 1
 278 664 l 1
 278 693 l 1
 518 693 l 1
 518 664 l 1
 467 664 l 1
 533 29 l 1
 584 29 l 1
 584 0 l 1
 345 0 l 1
 345 29 l 1
 396 29 l 1
 343 524 l 1
 337 525 l 1
 319 495 299 467 273 437 c 0
 208 362 197 286 197 182 c 0
 197 130 204 83 216 29 c 1
 267 29 l 1
 267 0 l 1
 27 0 l 1
EndSplineSet
Validated: 19457
EndChar

StartChar: afii10030
Encoding: 1052 1052 394
Width: 957
VWidth: 0
Flags: W
HStem: 0 29<27 78 212.812 267 333 384 519.311 572 687 737 875 926> 664 29<267 318.643 455 506 620 672.556 809 859>
VStem: 56 137<34.9196 282.557> 321 134<597.578 664> 675 134<596.651 664>
DStem2: 455 664 333 518 0.104929 -0.99448<0 30.3531 132.393 429.365 553.908 624.045> 809 664 688 496 0.10338 -0.994642<0 35.2685 154.591 624.154>
AnchorPoint: "TopCap" 560 752 basechar 0
AnchorPoint: "DblMark" 957 762 basechar 0
AnchorPoint: "Yerik" 742 742 basechar 0
AnchorPoint: "CyrTopCap" 559 752 basechar 0
LayerCount: 2
Fore
SplineSet
27 0 m 1
 27 29 l 1
 78 29 l 1
 67 71 56 136 56 175 c 0
 56 284 115 358 177 412 c 0
 240 467 321 548 321 619 c 0
 321 626 319 649 317 664 c 1
 267 664 l 1
 267 693 l 1
 506 693 l 1
 506 664 l 1
 455 664 l 1
 500 237 l 1
 505 234 l 1
 526 295 550 340 588 396 c 0
 634 465 675 544 675 614 c 0
 675 627 673 646 671 664 c 1
 620 664 l 1
 620 693 l 1
 859 693 l 1
 859 664 l 1
 809 664 l 1
 875 29 l 1
 926 29 l 1
 926 0 l 1
 687 0 l 1
 687 29 l 1
 737 29 l 1
 688 496 l 1
 684 497 l 1
 661 447 638 407 611 366 c 0
 556 283 513 184 513 114 c 0
 513 96 518 52 521 29 c 1
 572 29 l 1
 572 0 l 1
 333 0 l 1
 333 29 l 1
 384 29 l 1
 333 518 l 1
 327 519 l 1
 309 489 292 467 266 437 c 0
 214 377 193 290 193 196 c 0
 193 144 202 91 216 29 c 1
 267 29 l 1
 267 0 l 1
 27 0 l 1
EndSplineSet
Validated: 19457
EndChar

StartChar: afii10031
Encoding: 1053 1053 395
Width: 702
VWidth: 0
Flags: W
HStem: 0 29<47 98 235 286 416 467 604 655> 664 29<47 98 235 286 416 467 604 655>
VStem: 98 137<29 503 568 664> 467 137<29 130 195 664>
DStem2: 235 568 235 503 0.528156 -0.849147<55.1946 439.264>
AnchorPoint: "TopCap" 351 752 basechar 0
AnchorPoint: "DblMark" 702 762 basechar 0
AnchorPoint: "Yerik" 503 742 basechar 0
AnchorPoint: "CyrTopCap" 351 752 basechar 0
LayerCount: 2
Fore
SplineSet
47 0 m 1
 47 29 l 1
 98 29 l 1
 98 664 l 1
 47 664 l 1
 47 693 l 1
 286 693 l 1
 286 664 l 1
 235 664 l 1
 235 568 l 1
 467 195 l 1
 467 664 l 1
 416 664 l 1
 416 693 l 1
 655 693 l 1
 655 664 l 1
 604 664 l 1
 604 29 l 1
 655 29 l 1
 655 0 l 1
 416 0 l 1
 416 29 l 1
 467 29 l 1
 467 130 l 1
 235 503 l 1
 235 29 l 1
 286 29 l 1
 286 0 l 1
 47 0 l 1
EndSplineSet
Validated: 19457
EndChar

StartChar: afii10032
Encoding: 1054 1054 396
Width: 685
VWidth: 0
Flags: W
HStem: -17 30<278.307 407.693> 682 29<278.307 407.693>
VStem: 55 156<205.75 488.25> 475 156<205.75 488.25>
AnchorPoint: "TopCap" 346 752 basechar 0
AnchorPoint: "DblMark" 686 762 basechar 0
AnchorPoint: "Yerik" 487 742 basechar 0
AnchorPoint: "CyrTopCap" 343 752 basechar 0
LayerCount: 2
Fore
SplineSet
55 347 m 0
 55 547 166 711 343 711 c 0
 520 711 631 547 631 347 c 0
 631 147 520 -17 343 -17 c 0
 166 -17 55 147 55 347 c 0
211 151 m 2
 211 56 269 13 343 13 c 0
 417 13 475 56 475 151 c 2
 475 543 l 2
 475 638 417 682 343 682 c 0
 269 682 211 638 211 543 c 2
 211 151 l 2
EndSplineSet
Validated: 19457
EndChar

StartChar: afii10033
Encoding: 1055 1055 397
Width: 702
VWidth: 0
Flags: W
HStem: 0 29<47 98 235 286 416 467 604 655> 664 29<47 98 235 467 604 655>
VStem: 98 137<29 664> 467 137<29 664>
AnchorPoint: "TopCap" 351 752 basechar 0
AnchorPoint: "DblMark" 702 762 basechar 0
AnchorPoint: "Yerik" 503 742 basechar 0
AnchorPoint: "CyrTopCap" 351 752 basechar 0
LayerCount: 2
Fore
SplineSet
47 0 m 1
 47 29 l 1
 98 29 l 1
 98 664 l 1
 47 664 l 1
 47 693 l 1
 655 693 l 1
 655 664 l 1
 604 664 l 1
 604 29 l 1
 655 29 l 1
 655 0 l 1
 416 0 l 1
 416 29 l 1
 467 29 l 1
 467 664 l 1
 235 664 l 1
 235 29 l 1
 286 29 l 1
 286 0 l 1
 47 0 l 1
EndSplineSet
Validated: 19457
EndChar

StartChar: afii10034
Encoding: 1056 1056 398
Width: 594
VWidth: 0
Flags: W
HStem: 0 29<35 86 224 274> 329 43<317.188 397.439> 384 35<254.844 299.95> 681 29<277.608 374.086>
VStem: 86 138<29 345 380 565.606> 423 137<415.66 598.358>
DStem2: 226 379 224 345 0.787505 0.616308<0 45.1009>
AnchorPoint: "TopCap" 321 752 basechar 0
AnchorPoint: "DblMark" 595 762 basechar 0
AnchorPoint: "Yerik" 440 742 basechar 0
AnchorPoint: "CyrTopCap" 320 752 basechar 0
LayerCount: 2
Fore
SplineSet
224 380 m 17
 226 379 l 1
 272 415 l 2
 276 418 283 419 286 419 c 0
 290 419 295 418 300 411 c 0
 314 393 330 372 357 372 c 0
 405 372 423 430 423 513 c 0
 423 598 403 681 327 681 c 0
 264 681 224 630 224 522 c 2
 224 380 l 17
35 0 m 25
 35 29 l 25
 86 29 l 25
 86 463 l 18
 86 607 202 710 337 710 c 0
 481 710 560 615 560 504 c 0
 560 411 497 329 393 329 c 0
 332 329 310 355 291 376 c 0
 286 382 283 384 280 384 c 0
 277 384 274 383 268 378 c 2
 224 345 l 9
 224 29 l 25
 274 29 l 25
 274 0 l 25
 35 0 l 25
EndSplineSet
Validated: 19457
EndChar

StartChar: afii10035
Encoding: 1057 1057 399
Width: 691
VWidth: 0
Flags: W
HStem: -17 30<278.307 409.702> 250 29<424 475 612.716 656> 415 29<424 475 612.716 656> 682 29<278.307 406.526>
VStem: 55 156<205.75 488.25> 475 140<173.744 250 444 520.256>
AnchorPoint: "TopCap" 346 752 basechar 0
AnchorPoint: "DblMark" 691 762 basechar 0
AnchorPoint: "Yerik" 500 742 basechar 0
AnchorPoint: "CyrTopCap" 345 752 basechar 0
LayerCount: 2
Fore
SplineSet
55 347 m 0
 55 547 166 711 343 711 c 0
 495 711 593 583 615 444 c 1
 656 444 l 1
 656 415 l 1
 424 415 l 1
 424 444 l 1
 475 444 l 1
 475 542 l 2
 475 638 417 682 343 682 c 0
 269 682 211 638 211 543 c 2
 211 151 l 2
 211 56 269 13 343 13 c 0
 417 13 475 56 475 152 c 2
 475 250 l 1
 424 250 l 1
 424 279 l 1
 656 279 l 1
 656 250 l 1
 615 250 l 1
 593 111 495 -17 343 -17 c 0
 166 -17 55 147 55 347 c 0
EndSplineSet
Validated: 19457
EndChar

StartChar: afii10036
Encoding: 1058 1058 400
Width: 708
VWidth: 0
Flags: W
HStem: 0 29<234 285 423 474> 468 21G<88 93.5 614.5 620> 664 29<198.476 285 423 509.524>
VStem: 75 32<468.002 540.324> 285 138<29 664> 601 32<468.002 540.324>
CounterMasks: 1 1c
AnchorPoint: "TopCap" 353 752 basechar 0
AnchorPoint: "DblMark" 708 762 basechar 0
AnchorPoint: "Yerik" 522 742 basechar 0
AnchorPoint: "CyrTopCap" 354 752 basechar 0
LayerCount: 2
Fore
SplineSet
18 687 m 0
 18 691 21 693 29 693 c 10
 679 693 l 18
 687 693 690 691 690 687 c 0
 690 682 687 673 685 669 c 0
 658 616 636 522 633 477 c 0
 633 471 623 468 617 468 c 0
 612 468 602 470 601 477 c 0
 595 507 581 570 558 602 c 0
 533 636 504 664 457 664 c 2
 423 664 l 9
 423 29 l 25
 474 29 l 25
 474 0 l 25
 234 0 l 17
 234 29 l 1
 285 29 l 1
 285 664 l 1
 251 664 l 2
 204 664 175 636 150 602 c 0
 127 570 113 507 107 477 c 0
 106 470 96 468 91 468 c 0
 85 468 75 471 75 477 c 0
 72 522 50 616 23 669 c 0
 21 673 18 682 18 687 c 0
EndSplineSet
Validated: 19457
EndChar

StartChar: afii10037
Encoding: 1059 1059 401
Width: 745
VWidth: 0
Flags: W
HStem: -290 21G<300 320.5> 0 43<372 392> 600 111<566.081 656> 664 29<33 84 222 273>
DStem2: 222 664 84 664 0.232874 -0.972507<0 638.858> 400 43 446 92 0.185097 0.98272<0 568.58>
AnchorPoint: "DblMark" 745 762 basechar 0
AnchorPoint: "TopCap" 402 762 basechar 0
LayerCount: 2
Fore
SplineSet
33 664 m 1xd0
 33 693 l 1
 273 693 l 1
 273 664 l 1
 222 664 l 1xd0
 372 43 l 1
 400 43 l 1
 427 204 458 388 485 533 c 0
 499 613 534 711 641 711 c 0
 671 711 707 700 736 687 c 1
 709 634 698 597 691 554 c 0
 690 544 684 537 679 537 c 0
 673 537 653 556 634 574 c 0
 614 593 595 600 579 600 c 0xe0
 554 600 534 574 523 524 c 0
 496 397 470 242 446 92 c 0
 427 -24 394 -190 371 -283 c 1
 352 -288 330 -290 311 -290 c 0
 289 -290 240 -273 240 -261 c 0
 240 -257 246 -250 253 -242 c 0
 315 -173 366 -99 392 0 c 1
 243 0 l 1
 84 664 l 1
 33 664 l 1xd0
EndSplineSet
Validated: 19457
EndChar

StartChar: afii10038
Encoding: 1060 1060 402
Width: 854
VWidth: 0
Flags: W
HStem: 0 29<308 358 496 547> 108 31<232.581 330.691 523.57 621.788> 568 31<232.581 330.691 523.57 621.788> 664 29<308 358 496 547>
VStem: 47 150<240.226 467.542> 358 138<29 131 158.996 548.004 576 664> 657 151<245.47 462.318>
AnchorPoint: "TopCap" 427 752 basechar 0
AnchorPoint: "DblMark" 854 762 basechar 0
AnchorPoint: "Yerik" 660 742 basechar 0
AnchorPoint: "CyrTopCap" 427 752 basechar 0
LayerCount: 2
Fore
SplineSet
47 354 m 0
 47 482 123 599 259 599 c 0
 297 599 328 594 356 574 c 1
 358 576 l 1
 358 664 l 1
 308 664 l 1
 308 693 l 1
 547 693 l 1
 547 664 l 1
 496 664 l 1
 496 576 l 1
 498 574 l 1
 526 594 557 599 595 599 c 0
 731 599 808 482 808 354 c 0
 808 226 731 108 595 108 c 0
 557 108 526 113 498 133 c 1
 496 131 l 1
 496 29 l 1
 547 29 l 1
 547 0 l 1
 308 0 l 1
 308 29 l 1
 358 29 l 1
 358 131 l 1
 356 133 l 1
 328 113 297 108 259 108 c 0
 123 108 47 226 47 354 c 0
197 239 m 2
 197 186 220 139 281 139 c 0
 316 139 358 156 358 219 c 2
 358 488 l 2
 358 551 316 568 281 568 c 0
 220 568 197 521 197 468 c 2
 197 239 l 2
496 219 m 2
 496 156 539 139 574 139 c 0
 635 139 657 186 657 239 c 2
 657 468 l 2
 657 521 635 568 574 568 c 0
 539 568 496 551 496 488 c 2
 496 219 l 2
EndSplineSet
Validated: 19457
EndChar

StartChar: afii10039
Encoding: 1061 1061 403
Width: 693
VWidth: 0
Flags: W
HStem: 0 29<31 79.8305 159.404 198 395 442 588 637> 604 107<502.155 584.5> 664 29<35 84 230 280>
DStem2: 230 664 84 664 0.491108 -0.871099<0 240.01 278.959 311.574 351.013 657.263> 135 100 167 89 0.51353 0.858071<-24.8501 248.806 413.997 612.006>
AnchorPoint: "TopCap" 365 752 basechar 0
AnchorPoint: "DblMark" 693 762 basechar 0
AnchorPoint: "Yerik" 516 742 basechar 0
AnchorPoint: "CyrTopCap" 366 752 basechar 0
LayerCount: 2
Fore
SplineSet
31 0 m 1xc0
 31 29 l 1
 73 29 112 61 135 100 c 2
 272 330 l 1
 84 664 l 1
 35 664 l 1
 35 693 l 1
 280 693 l 1
 280 664 l 1
 230 664 l 1xa0
 348 455 l 1
 448 623 l 2
 475 669 507 711 568 711 c 0
 601 711 633 701 666 688 c 1
 642 640 628 612 617 562 c 0
 616 555 612 547 606 547 c 0
 599 547 591 556 581 567 c 0
 561 588 541 604 508 604 c 0
 489 604 469 591 448 556 c 2
 367 421 l 1
 588 29 l 1
 637 29 l 1
 637 0 l 1
 395 0 l 1
 395 29 l 1
 442 29 l 1
 292 296 l 1
 167 89 l 2
 161 79 156 68 156 58 c 0
 156 48 158 29 198 29 c 1
 198 0 l 1
 31 0 l 1xc0
EndSplineSet
Validated: 19457
EndChar

StartChar: afii10040
Encoding: 1062 1062 404
Width: 727
VWidth: 0
Flags: W
HStem: 0 29<47 98 235 459> 664 29<47 98 235 286 408 459 597 647>
VStem: 98 137<29 664> 459 138<29 664> 620 32<-200.998 -111.717>
AnchorPoint: "TopCap" 346 752 basechar 0
AnchorPoint: "DblMark" 728 762 basechar 0
AnchorPoint: "Yerik" 529 742 basechar 0
AnchorPoint: "CyrTopCap" 348 752 basechar 0
LayerCount: 2
Fore
SplineSet
47 0 m 1
 47 29 l 1
 98 29 l 1
 98 664 l 1
 47 664 l 1
 47 693 l 1
 286 693 l 1
 286 664 l 1
 235 664 l 1
 235 29 l 1
 459 29 l 1
 459 664 l 1
 408 664 l 1
 408 693 l 1
 647 693 l 1
 647 664 l 1
 597 664 l 1
 597 29 l 1
 699 29 l 2
 707 29 710 26 710 22 c 0
 710 17 708 9 706 5 c 0
 683 -48 655 -147 652 -192 c 0
 652 -198 642 -201 636 -201 c 0
 631 -201 620 -199 620 -192 c 0
 619 -164 612 -100 591 -59 c 0
 572 -22 536 0 494 0 c 10
 47 0 l 1
EndSplineSet
Validated: 19457
EndChar

StartChar: afii10041
Encoding: 1063 1063 405
Width: 631
Flags: W
HStem: 0 29<346 396 534 585> 297 37<191.287 382.914> 664 29<23 74 212 263 346 396 534 585>
VStem: 74 138<371.42 664> 396 138<29 317 343.837 664>
AnchorPoint: "TopCap" 307 752 basechar 0
AnchorPoint: "DblMark" 632 762 basechar 0
AnchorPoint: "Yerik" 445 742 basechar 0
AnchorPoint: "CyrTopCap" 306 752 basechar 0
LayerCount: 2
Fore
SplineSet
23 664 m 1
 23 693 l 1
 263 693 l 1
 263 664 l 1
 212 664 l 1
 212 457 l 2
 212 379 242 334 316 334 c 0
 348 334 374 343 396 352 c 1
 396 664 l 1
 346 664 l 1
 346 693 l 1
 585 693 l 1
 585 664 l 1
 534 664 l 1
 534 29 l 1
 585 29 l 1
 585 0 l 1
 346 0 l 1
 346 29 l 1
 396 29 l 1
 396 317 l 1
 394 319 l 1
 354 304 310 297 254 297 c 0
 132 297 74 358 74 453 c 2
 74 664 l 1
 23 664 l 1
EndSplineSet
Validated: 19457
AlternateSubs2: "'salt' Stylistic Alternatives for Old Cyrillic-1" afii10041.old
Substitution2: "'ss09' Double-Sided Cyrillic Cherv-1" afii10041.old
EndChar

StartChar: afii10042
Encoding: 1064 1064 406
Width: 973
VWidth: 0
Flags: W
HStem: 0 29<47 98 235 418 556 738 876 927> 664 29<47 98 235 286 367 418 556 606 688 738 876 927>
VStem: 98 137<29 664> 418 138<29 664> 738 138<29 664>
AnchorPoint: "TopCap" 488 752 basechar 0
AnchorPoint: "DblMark" 974 762 basechar 0
AnchorPoint: "Yerik" 652 742 basechar 0
AnchorPoint: "CyrTopCap" 487 752 basechar 0
LayerCount: 2
Fore
SplineSet
47 0 m 1
 47 29 l 1
 98 29 l 1
 98 664 l 1
 47 664 l 1
 47 693 l 1
 286 693 l 1
 286 664 l 1
 235 664 l 1
 235 29 l 1
 418 29 l 1
 418 664 l 1
 367 664 l 1
 367 693 l 1
 606 693 l 1
 606 664 l 1
 556 664 l 1
 556 29 l 1
 738 29 l 1
 738 664 l 1
 688 664 l 1
 688 693 l 1
 927 693 l 1
 927 664 l 1
 876 664 l 1
 876 29 l 1
 927 29 l 1
 927 0 l 1
 47 0 l 1
EndSplineSet
Validated: 19457
EndChar

StartChar: afii10043
Encoding: 1065 1065 407
Width: 973
VWidth: 0
Flags: W
HStem: 0 29<47 98 235 418 556 738 876 927> 664 29<47 98 235 286 367 418 556 606 688 738 876 927>
VStem: 98 137<29 664> 396 182<-167.984 -97> 418 138<29 664> 473 27<-40.1649 -0.51416> 738 138<29 664>
AnchorPoint: "TopCap" 488 752 basechar 0
AnchorPoint: "DblMark" 974 762 basechar 0
AnchorPoint: "Yerik" 652 742 basechar 0
AnchorPoint: "CyrTopCap" 487 752 basechar 0
LayerCount: 2
Fore
SplineSet
47 0 m 1xe6
 47 29 l 1
 98 29 l 1
 98 664 l 1
 47 664 l 1
 47 693 l 1
 286 693 l 1
 286 664 l 1
 235 664 l 1
 235 29 l 1
 418 29 l 1
 418 664 l 1
 367 664 l 1
 367 693 l 1
 606 693 l 1
 606 664 l 1
 556 664 l 1
 556 29 l 1xea
 738 29 l 1
 738 664 l 1
 688 664 l 1
 688 693 l 1
 927 693 l 1
 927 664 l 1
 876 664 l 1
 876 29 l 1
 927 29 l 1
 927 0 l 1
 520 0 l 2
 507 0 500 -5 500 -13 c 0xe6
 500 -23 507 -32 516 -44 c 2
 565 -108 l 2
 571 -116 578 -127 578 -133 c 0
 578 -137 576 -141 572 -147 c 2
 513 -226 l 2
 507 -234 499 -244 487 -244 c 0
 475 -244 466 -234 460 -226 c 2
 402 -147 l 2
 398 -141 396 -137 396 -133 c 0xf2
 396 -127 402 -116 408 -108 c 2
 458 -44 l 2
 467 -32 473 -23 473 -13 c 0
 473 -5 467 0 454 0 c 2
 47 0 l 1xe6
EndSplineSet
Validated: 19457
AlternateSubs2: "'salt' Stylistic Alternatives for Old Cyrillic-1" afii10043.modern
Substitution2: "'ss10' Modern Form for Cyrillic Shcha-1" afii10043.modern
EndChar

StartChar: afii10044
Encoding: 1066 1066 408
Width: 808
VWidth: 0
Flags: W
HStem: 0 29<259 310 447 639.311> 468 21G<84 89.5> 664 29<194.476 310 447 498>
VStem: 71 32<468.002 540.324> 310 137<29 368 396.898 664> 642 131<29.5996 296.576>
AnchorPoint: "TopCap" 373 752 basechar 0
AnchorPoint: "DblMark" 809 762 basechar 0
AnchorPoint: "Yerik" 574 742 basechar 0
AnchorPoint: "CyrTopCap" 374 752 basechar 0
LayerCount: 2
Fore
SplineSet
14 687 m 0
 14 691 17 693 25 693 c 9
 498 693 l 25
 498 664 l 25
 447 664 l 17
 447 440 l 2
 447 401 495 374 532 357 c 0
 566 341 613 336 658 336 c 2
 750 336 l 2
 772 336 773 324 773 314 c 0
 773 311 l 2
 773 26 l 2
 773 10 765 0 749 0 c 2
 259 0 l 1
 259 29 l 1
 310 29 l 1
 310 664 l 1
 247 664 l 2
 200 664 171 636 146 602 c 0
 123 570 109 507 103 477 c 0
 102 470 92 468 87 468 c 0
 81 468 71 471 71 477 c 0
 68 522 46 616 19 669 c 0
 17 673 14 682 14 687 c 0
447 29 m 1
 611 29 l 2
 638 29 642 42 642 63 c 2
 642 263 l 2
 642 276 641 288 625 297 c 0
 616 302 590 309 576 312 c 0
 530 323 484 341 450 369 c 1
 447 368 l 1
 447 29 l 1
EndSplineSet
Validated: 19457
EndChar

StartChar: afii10046
Encoding: 1068 1068 410
Width: 596
VWidth: 0
Flags: W
HStem: 0 29<47 98 235 427.311> 664 29<47 98 235 286>
VStem: 98 137<29 368 396.898 664> 430 132<29.5996 296.576>
AnchorPoint: "TopCap" 173 753 basechar 0
AnchorPoint: "DblMark" 597 762 basechar 0
AnchorPoint: "Yerik" 367 742 basechar 0
AnchorPoint: "CyrTopCap" 173 752 basechar 0
LayerCount: 2
Fore
SplineSet
47 0 m 1
 47 29 l 1
 98 29 l 1
 98 664 l 9
 47 664 l 25
 47 693 l 25
 286 693 l 25
 286 664 l 25
 235 664 l 17
 235 440 l 2
 235 401 283 374 320 357 c 0
 354 341 401 336 446 336 c 2
 538 336 l 2
 562 336 562 322 562 311 c 2
 562 26 l 2
 562 10 553 0 537 0 c 2
 47 0 l 1
235 29 m 1
 399 29 l 2
 426 29 430 42 430 63 c 2
 430 263 l 2
 430 276 430 288 414 297 c 0
 405 302 378 309 364 312 c 0
 318 323 272 341 238 369 c 1
 235 368 l 1
 235 29 l 1
EndSplineSet
Validated: 19457
EndChar

StartChar: afii10047
Encoding: 1069 1069 411
Width: 700
VWidth: 0
Flags: W
HStem: -16 36<302.576 433.144> 231 68<117 220> 357 64<289 405.365> 680 29<308.47 421.273>
VStem: 113 138<485.344 585.812> 489 157<197.905 324.688 348 512.046>
AnchorPoint: "TopCap" 356 752 basechar 0
AnchorPoint: "DblMark" 700 762 basechar 0
AnchorPoint: "Yerik" 502 742 basechar 0
AnchorPoint: "CyrTopCap" 358 752 basechar 0
LayerCount: 2
Fore
SplineSet
27 28 m 1
 44 39 63 55 75 69 c 0
 96 95 120 124 162 124 c 0
 198 124 220 105 242 84 c 0
 276 51 315 20 374 20 c 0
 448 20 489 75 489 171 c 2
 489 256 l 2
 489 331 437 357 393 357 c 0
 362 357 321 347 292 299 c 0
 269 261 241 231 220 231 c 0
 204 231 179 241 161 249 c 0
 131 263 102 281 102 290 c 0
 102 295 105 299 117 299 c 0
 139 299 163 302 198 343 c 0
 233 384 265 421 313 421 c 0
 373 421 427 396 486 347 c 1
 489 348 l 1
 489 543 l 2
 489 638 432 680 358 680 c 0
 281 680 251 599 251 525 c 0
 251 495 239 483 213 483 c 2
 136 483 l 2
 115 483 113 493 113 506 c 0
 113 620 226 709 365 709 c 0
 567 709 646 557 646 357 c 0
 646 157 560 -16 383 -16 c 0
 342 -16 301 -7 267 7 c 0
 250 14 238 19 221 19 c 0
 199 19 185 4 171 -11 c 0
 154 -29 137 -43 113 -43 c 0
 76 -43 40 1 27 28 c 1
EndSplineSet
Validated: 19457
EndChar

StartChar: afii10048
Encoding: 1070 1070 412
Width: 972
VWidth: 0
Flags: W
HStem: -17 30<565.451 694.693> 0 29<47 98 235 286> 347 29<235 342> 664 29<47 98 235 286> 682 29<566.99 694.693>
VStem: 98 137<29 347 376 664> 342 156<205.75 347 376 491.579> 762 156<205.75 488.25>
AnchorPoint: "TopCap" 477 752 basechar 0
AnchorPoint: "DblMark" 973 762 basechar 0
AnchorPoint: "Yerik" 696 742 basechar 0
AnchorPoint: "CyrTopCap" 475 752 basechar 0
LayerCount: 2
Fore
SplineSet
47 0 m 1x67
 47 29 l 1
 98 29 l 1
 98 664 l 1
 47 664 l 1
 47 693 l 1
 286 693 l 1
 286 664 l 1
 235 664 l 1x77
 235 376 l 1
 343 376 l 1
 354 562 463 711 630 711 c 0
 807 711 918 547 918 347 c 0
 918 147 807 -17 630 -17 c 0xaf
 454 -17 342 147 342 347 c 1
 235 347 l 1
 235 29 l 1
 286 29 l 1
 286 0 l 1
 47 0 l 1x67
498 151 m 2
 498 56 556 13 630 13 c 0
 704 13 762 56 762 151 c 2
 762 543 l 2
 762 638 704 682 630 682 c 0xaf
 556 682 498 638 498 543 c 2
 498 151 l 2
EndSplineSet
Validated: 19457
EndChar

StartChar: afii10049
Encoding: 1071 1071 413
Width: 644
VWidth: 0
Flags: W
HStem: 0 29<25 69 220 265 358 409 547 598> 348 29<303.516 409> 664 29<266.265 409 547 598>
VStem: 69 151<29 188.241> 81 147<443.71 619.346> 409 138<29 348 377 664>
AnchorPoint: "TopCap" 372 752 basechar 0
AnchorPoint: "Yerik" 484 742 basechar 0
AnchorPoint: "CyrTopCap" 371 752 basechar 0
LayerCount: 2
Fore
SplineSet
25 0 m 1xf4
 25 29 l 1
 69 29 l 1xf4
 69 101 71 158 104 216 c 0
 141 280 187 315 264 354 c 1
 264 359 l 1
 193 368 81 397 81 526 c 0
 81 658 173 693 263 693 c 2
 598 693 l 1
 598 664 l 1
 547 664 l 1
 547 29 l 1
 598 29 l 1
 598 0 l 1
 358 0 l 1
 358 29 l 1
 409 29 l 1
 409 348 l 1
 349 348 l 2
 279 348 238 266 228 203 c 0xec
 220 151 220 94 220 29 c 1
 265 29 l 1
 265 0 l 1
 25 0 l 1xf4
228 522 m 0xec
 228 383 282 377 353 377 c 2
 409 377 l 1
 409 664 l 1
 338 664 l 2
 273 664 228 660 228 522 c 0xec
EndSplineSet
Validated: 19457
EndChar

StartChar: afii10065
Encoding: 1072 1072 414
Width: 469
VWidth: 0
Flags: W
HStem: -21 46<128.5 237.666> 0 21G<324.5 415> 341 123<213.447 283>
VStem: 35 112<43.0436 163.13>
DStem2: 363 278 234 326 0.244277 -0.969706<-94.9957 175.706 192.128 263.093>
AnchorPoint: "Top" 258 546 basechar 0
AnchorPoint: "Yerik" 344 518 basechar 0
AnchorPoint: "Acute" 260 557 basechar 0
AnchorPoint: "Grave" 260 547 basechar 0
AnchorPoint: "CyrMark" 260 537 basechar 0
LayerCount: 2
Fore
SplineSet
35 91 m 0xb0
 35 150 81 203 125 251 c 0
 150 278 203 343 209 369 c 0
 211 379 213 392 213 404 c 0
 213 415 208 439 202 452 c 1
 208 457 239 464 257 464 c 0
 309 464 328 460 333 426 c 0
 338 391 357 302 363 278 c 0
 371 247 386 187 403 131 c 0
 419 77 429 29 429 23 c 0
 429 10 424 0 406 0 c 2
 335 0 l 2x70
 314 0 308 27 300 64 c 1
 298 64 l 1
 270 13 217 -21 164 -21 c 0
 93 -21 35 0 35 91 c 0xb0
147 108 m 0
 147 57 174 25 203 25 c 0xb0
 240 25 264 55 290 97 c 1
 284 122 276 152 267 186 c 0
 250 249 240 290 234 326 c 0
 233 335 228 341 224 341 c 0
 218 341 211 325 204 306 c 0
 194 281 190 271 175 237 c 0
 153 186 147 141 147 108 c 0
EndSplineSet
Validated: 19457
PairPos2: "'kern' Positioning for Enclosing Combining Marks-1" uniA672 dx=287 dy=0 dh=280 dv=0 dx=0 dy=0 dh=332 dv=0
PairPos2: "'kern' Positioning for Enclosing Combining Marks-1" uniA671 dx=219 dy=0 dh=210 dv=0 dx=0 dy=0 dh=262 dv=0
PairPos2: "'kern' Positioning for Enclosing Combining Marks-1" uniA670 dx=327 dy=0 dh=318 dv=0 dx=0 dy=0 dh=370 dv=0
PairPos2: "'kern' Positioning for Enclosing Combining Marks-1" uni20DD dx=240 dy=0 dh=232 dv=0 dx=0 dy=0 dh=284 dv=0
PairPos2: "'kern' Positioning for Enclosing Combining Marks-1" uni0489 dx=327 dy=0 dh=318 dv=0 dx=0 dy=0 dh=370 dv=0
PairPos2: "'kern' Positioning for Enclosing Combining Marks-1" uni0488 dx=287 dy=0 dh=278 dv=0 dx=0 dy=0 dh=330 dv=0
EndChar

StartChar: afii10066
Encoding: 1073 1073 415
Width: 484
VWidth: 0
Flags: W
HStem: 0 29<189.985 325.678> 433 29<187.242 303.827> 449 20G<391 401.5>
VStem: 74 113<29.3809 240.974 273.123 433> 327 112<29.213 168.267>
AnchorPoint: "Top" 253 535 basechar 0
AnchorPoint: "Yerik" 346 518 basechar 0
AnchorPoint: "CyrMark" 252 537 basechar 0
LayerCount: 2
Fore
SplineSet
74 40 m 2xd8
 74 436 l 2
 74 458 86 462 116 462 c 2
 285 462 l 2xd8
 299 462 324 464 345 466 c 0
 361 467 390 469 392 469 c 0xb8
 411 469 420 461 420 452 c 0
 420 445 419 442 415 432 c 0
 394 387 384 362 376 328 c 0
 375 322 371 310 359 310 c 0
 347 310 345 320 343 329 c 0
 335 368 321 433 267 433 c 2
 201 433 l 2
 194 433 187 430 187 414 c 2
 187 315 l 2
 187 265 247 250 312 237 c 0
 354 229 403 217 420 196 c 0
 438 174 439 131 439 79 c 0
 439 30 434 0 419 0 c 2
 119 0 l 2
 96 0 74 9 74 40 c 2xd8
187 62 m 2
 187 44 193 29 209 29 c 2
 312 29 l 2
 322 29 327 37 327 59 c 0
 327 92 326 136 321 156 c 0
 316 175 297 192 269 210 c 0
 239 229 204 241 193 241 c 0
 187 241 187 205 187 195 c 2
 187 62 l 2
EndSplineSet
Validated: 19457
EndChar

StartChar: afii10067
Encoding: 1074 1074 416
Width: 487
VWidth: 0
Flags: W
HStem: 0 29<189.985 329.678> 433 29<187.142 314.021>
VStem: 74 113<29.3809 225.947 248 432.303> 318 107<382.318 447.5> 331 113<29.4976 168.314>
AnchorPoint: "Top" 251 536 basechar 0
AnchorPoint: "CyrMark" 252 537 basechar 0
LayerCount: 2
Fore
SplineSet
74 40 m 2xe8
 74 436 l 2
 74 458 86 462 116 462 c 2
 383 462 l 2
 414 462 425 458 425 437 c 0xf0
 425 382 348 319 298 287 c 0
 277 274 269 267 269 261 c 0
 269 247 316 230 347 223 c 0
 404 211 417 192 424 177 c 0
 432 158 444 117 444 62 c 0
 444 16 434 0 419 0 c 2
 119 0 l 2
 96 0 74 9 74 40 c 2xe8
187 62 m 2
 187 44 193 29 209 29 c 2
 316 29 l 2
 326 29 331 37 331 59 c 0xe8
 331 92 330 132 321 158 c 0
 314 179 294 200 275 216 c 0
 264 225 244 241 237 241 c 0
 233 241 226 238 213 229 c 0
 197 218 187 209 187 188 c 2
 187 62 l 2
187 248 m 25
 189 247 l 17
 200 255 205 258 210 261 c 0
 258 292 318 338 318 400 c 0xf0
 318 418 311 433 284 433 c 2
 219 433 l 2
 209 433 187 431 187 417 c 2
 187 248 l 25
EndSplineSet
Validated: 19457
PairPos2: "'kern' Positioning for Enclosing Combining Marks-1" uniA672 dx=293 dy=0 dh=274 dv=0 dx=0 dy=0 dh=332 dv=0
PairPos2: "'kern' Positioning for Enclosing Combining Marks-1" uniA671 dx=223 dy=0 dh=204 dv=0 dx=0 dy=0 dh=262 dv=0
PairPos2: "'kern' Positioning for Enclosing Combining Marks-1" uniA670 dx=331 dy=0 dh=312 dv=0 dx=0 dy=0 dh=370 dv=0
PairPos2: "'kern' Positioning for Enclosing Combining Marks-1" uni20DD dx=245 dy=0 dh=227 dv=0 dx=0 dy=0 dh=284 dv=0
PairPos2: "'kern' Positioning for Enclosing Combining Marks-1" uni0489 dx=331 dy=0 dh=312 dv=0 dx=0 dy=0 dh=370 dv=0
PairPos2: "'kern' Positioning for Enclosing Combining Marks-1" uni0488 dx=290 dy=0 dh=272 dv=0 dx=0 dy=0 dh=330 dv=0
EndChar

StartChar: afii10068
Encoding: 1075 1075 417
Width: 447
VWidth: 0
Flags: W
HStem: -5 21G<119.5 140.5> 433 29<187.242 301.794> 449 20G<396 406>
VStem: 74 113<-3.09409 432.264> 341 33<300.015 367.94>
AnchorPoint: "Top" 245 558 basechar 0
AnchorPoint: "Yerik" 335 518 basechar 0
AnchorPoint: "Acute" 248 557 basechar 0
AnchorPoint: "CyrMark" 248 537 basechar 0
LayerCount: 2
Fore
SplineSet
74 0 m 1xd8
 74 417 l 2
 74 444 74 462 108 462 c 2
 287 462 l 2xd8
 301 462 330 464 351 466 c 0
 367 467 395 469 397 469 c 0
 415 469 422 461 422 449 c 0xb8
 422 441 419 431 415 424 c 0
 398 392 380 344 374 319 c 0
 370 303 365 300 357 300 c 0
 349 300 343 305 341 320 c 0
 331 380 315 433 262 433 c 2
 201 433 l 2
 194 433 187 430 187 414 c 2
 187 0 l 17
 170 -3 151 -5 130 -5 c 0
 109 -5 91 -3 74 0 c 1xd8
EndSplineSet
Validated: 19457
PairPos2: "'kern' Positioning for Enclosing Combining Marks-1" uniA672 dx=323 dy=0 dh=314 dv=0 dx=0 dy=0 dh=332 dv=0
PairPos2: "'kern' Positioning for Enclosing Combining Marks-1" uniA671 dx=253 dy=0 dh=244 dv=0 dx=0 dy=0 dh=262 dv=0
PairPos2: "'kern' Positioning for Enclosing Combining Marks-1" uniA670 dx=361 dy=0 dh=353 dv=0 dx=0 dy=0 dh=370 dv=0
PairPos2: "'kern' Positioning for Enclosing Combining Marks-1" uni20DD dx=275 dy=0 dh=267 dv=0 dx=0 dy=0 dh=284 dv=0
PairPos2: "'kern' Positioning for Enclosing Combining Marks-1" uni0489 dx=361 dy=0 dh=353 dv=0 dx=0 dy=0 dh=370 dv=0
PairPos2: "'kern' Positioning for Enclosing Combining Marks-1" uni0488 dx=321 dy=0 dh=312 dv=0 dx=0 dy=0 dh=330 dv=0
EndChar

